<?xml version="1.0" standalone="no"?>
<!DOCTYPE svg PUBLIC "-//W3C//DTD SVG 1.1//EN" "http://www.w3.org/Graphics/SVG/1.1/DTD/svg11.dtd" >
<svg xmlns="http://www.w3.org/2000/svg" xmlns:xlink="http://www.w3.org/1999/xlink" version="1.1">
<metadata>
Created by FontForge 20170731 at Wed Feb  5 03:05:37 2020
 By Aleksey,,,
Copyright (c) Font Awesome
</metadata>
<defs>
<font id="FontAwesome5Brands-Regular" horiz-adv-x="448" >
  <font-face 
    font-family="Font Awesome 5 Brands Regular"
    font-weight="400"
    font-stretch="normal"
    units-per-em="512"
    panose-1="2 0 5 3 0 0 0 0 0 0"
    ascent="448"
    descent="-64"
    x-height="313"
    cap-height="421"
    bbox="-28 -67.7826 3992 448.315"
    underline-thickness="25"
    underline-position="-99"
    unicode-range="U+0020-F957"
  />
<missing-glyph horiz-adv-x="256" 
d="M25 0v298h206v-298h-206zM50 25h156v248h-156v-248z" />
    <glyph glyph-name="twitter-square" unicode="TWITTER&#x2d;SQUARE" 
d="M400 416q20 0 34 -14t14 -34v-352q0 -20 -14 -34t-34 -14h-352q-20 0 -34 14t-14 34v352q0 20 14 34t34 14h352zM351 257q19 14 33 34q-19 -8 -38 -10q21 13 29 36q-20 -12 -42 -16q-19 21 -47 21q-31 0 -51 -24t-13 -57q-83 5 -136 69q-9 -15 -9 -33q0 -10 4 -20.5
t11 -19.5t15 -15q-16 1 -30 9v-1q0 -24 15 -42t38 -23q-14 -3 -30 -1q6 -20 23 -32.5t38 -12.5q-36 -28 -81 -28q-9 0 -16 1q46 -30 101 -30q57 0 101 29t64.5 71t20.5 87v8z" />
    <glyph glyph-name="facebook-square" unicode="FACEBOOK&#x2d;SQUARE" 
d="M400 416q20 0 34 -14t14 -34v-352q0 -20 -14 -34t-34 -14h-137v152h58l11 72h-69v47q0 38 40 38h31v61q-28 5 -55 5q-29 0 -49.5 -11t-32.5 -33t-12 -52v-55h-63v-72h63v-152h-137q-20 0 -34 14t-14 34v352q0 20 14 34t34 14h352z" />
    <glyph glyph-name="linkedin" unicode="Linkedin" 
d="M416 416q13 0 22.5 -9.5t9.5 -22.5v-384q0 -13 -9.5 -22.5t-22.5 -9.5h-384q-13 0 -22.5 9.5t-9.5 22.5v384q0 13 9.5 22.5t22.5 9.5h384zM135 32h1v214h-67v-214h66zM102 275q16 0 27.5 11.5t11.5 27t-11.5 27t-27.5 11.5t-27 -11.5t-11 -27t11 -27t27 -11.5zM384 32
v117q0 24 -3 41t-11 31.5t-24.5 22t-40.5 7.5q-23 0 -39.5 -10t-23.5 -24h-1v29h-64v-214h67v106q0 25 8 40t31 15q12 0 20 -5t10.5 -15t3.5 -17.5t1 -19.5v-104h66z" />
    <glyph glyph-name="github-square" unicode="GITHUB&#x2d;SQUARE" 
d="M400 416q20 0 34 -14t14 -34v-352q0 -20 -14 -34t-34 -14h-352q-20 0 -34 14t-14 34v352q0 20 14 34t34 14h352zM277 32q50 17 80.5 60.5t30.5 98.5q0 68 -48.5 114.5t-117.5 46.5t-115.5 -46.5t-46.5 -114.5q0 -55 31 -98.5t81 -60.5q12 -2 12 8q0 1 -0.5 17t-0.5 24
q-2 -1 -5 -1.5t-11.5 -0.5t-15.5 1.5t-14 6.5t-10 14q-7 19 -18 24l-7 7q0 3 8 3q16 -1 25 -17q17 -29 49 -14q2 15 10 22q-18 2 -28 4.5t-22.5 9.5t-18 22t-5.5 37t16 39q-9 20 1 45q6 2 17.5 -2.5t20.5 -9.5l8 -5q20 5 41.5 5t41.5 -5q4 2 9.5 5.5t18 8.5t18.5 3
q10 -24 2 -45q17 -18 17 -39q0 -22 -6 -37t-19 -22t-23 -9.5t-28 -4.5q11 -9 11 -30v-34.5v-21.5q0 -10 11 -8zM179.5 93.5q-3.5 -0.5 -4 2t2.5 2.5q4 1 4.5 -1.5t-3 -3zM170 94q0 3 -4 3t-4 -3q0 -2 4 -2t4 2zM156 95.5q-1 -2.5 -4 -1.5q-4 1 -3 3.5t4 1.5q4 -1 3 -3.5z
M144 101q1 1 -1.5 4t-4.5 1q-1 -2 1 -5q3 -2 5 0zM135 110q2 1 0 4t-4 1q-2 -1 0 -3.5t4 -1.5zM128.5 119.5q1.5 1.5 -0.5 3.5t-3.5 0.5t0.5 -3.5t3.5 -0.5zM121 127q1 1 -1 3q-2 0 -3 -1t2 -2q2 -2 2 0z" />
    <glyph glyph-name="twitter" unicode="Twitter" horiz-adv-x="512" 
d="M459 296q1 -4 1 -13q0 -53 -20 -105.5t-56.5 -96t-94.5 -70.5t-128 -27q-88 0 -161 47q11 -1 25 -1q73 0 131 45q-35 0 -61.5 20.5t-36.5 51.5q10 -1 19 -1q14 0 28 3q-24 5 -43 20t-30 36.5t-11 46.5v2q22 -13 47 -14q-47 32 -47 88q0 28 15 53q39 -49 95.5 -78
t120.5 -32q-2 12 -2 24q0 43 30.5 74t73.5 31q46 0 77 -33q36 7 67 25q-12 -37 -46 -58q30 4 60 17q-22 -32 -53 -55z" />
    <glyph glyph-name="facebook" unicode="FACEBOOK" horiz-adv-x="512" 
d="M504 192q0 -92 -60 -161.5t-149 -83.5v173h58l11 72h-69v47q0 38 40 38h31v61q-28 5 -55 5q-29 0 -49.5 -11t-32.5 -33t-12 -52v-55h-63v-72h63v-173q-89 14 -149 83.5t-60 161.5q0 103 72.5 175.5t175.5 72.5t175.5 -72.5t72.5 -175.5z" />
    <glyph glyph-name="github" unicode="GITHUB" horiz-adv-x="496" 
d="M166 51q0 -4 -5 -4q-6 -1 -6 4q0 3 5 3q6 1 6 -3zM134.5 55q1.5 4 6.5 2q5 -1 4 -5t-6 -2q-6 1 -4.5 5zM179 57q5 0 5.5 -3t-4.5 -5q-5 -1 -5.5 3t4.5 5zM245 440q68 0 126 -32t91.5 -88t33.5 -124q0 -83 -46.5 -148.5t-121.5 -90.5q-8 -2 -12.5 2t-4.5 10v32.5v51.5
q0 32 -17 46q22 3 34 5t30 9t27.5 18t16.5 31t7 48q0 19 -6 31t-20 27q12 31 -2 68q-10 3 -27 -3.5t-30 -14.5l-12 -9q-31 9 -63.5 9t-62.5 -9q-5 4 -14 9.5t-27.5 13t-27.5 4.5q-15 -37 -3 -68q-23 -25 -23 -58q0 -28 7 -48t16 -31t26 -18t29.5 -9.5t33.5 -4.5
q-13 -12 -16 -34q-10 -4 -20.5 -6t-26.5 4t-26 23q-6 11 -15.5 17.5t-16.5 7.5l-6 1q-22 0 -2 -15q7 -4 14 -13t10 -16l4 -8q4 -12 14 -20t22 -10t23 -2t18 1l7 1q0 -12 0.5 -36t0.5 -25q0 -6 -4.5 -10t-12.5 -2q-76 25 -123 90.5t-47 148.5q0 104 70.5 174t174.5 70zM97 95
q2 2 5 -1t1 -5t-5 1t-1 5zM86 103q2 2 5 1q3 -2 2 -4q-1 -3 -4 -1q-4 2 -3 4zM119 68q2 3 6 -1t2 -7q-3 -3 -7 1t-1 7zM107 82q3 3 6 -2q3 -4 0 -6t-5.5 2.5t-0.5 5.5z" />
    <glyph glyph-name="pinterest" unicode="Pinterest" horiz-adv-x="496" 
d="M496 192q0 -103 -72.5 -175.5t-175.5 -72.5q-38 0 -73 11q24 40 30 65l16 59q6 -12 22 -20t35 -8q55 0 91.5 44.5t36.5 109.5q0 61 -44 102t-109 41q-76 0 -119.5 -44t-43.5 -106q0 -29 14 -57.5t36 -38.5q7 -3 8 3q1 2 3.5 13.5t3.5 14.5q1 4 -2 7q-18 23 -18 57
q0 43 30.5 75.5t81.5 32.5q46 0 75 -28.5t29 -72.5q0 -33 -10.5 -59t-28.5 -40.5t-39 -14.5q-19 0 -30 13.5t-7 31.5q2 10 8 28t9 31.5t3 23.5q0 9 -3 17t-10.5 12.5t-17.5 4.5q-19 0 -32 -17t-13 -43q0 -4 0.5 -8.5t1 -8t1.5 -7t1.5 -5.5t1.5 -4t1 -3l1 -1
q-25 -103 -30 -123q-5 -25 0 -71q-71 27 -114.5 90t-43.5 141q0 103 72.5 175.5t175.5 72.5t175.5 -72.5t72.5 -175.5z" />
    <glyph glyph-name="pinterest-square" unicode="PINTEREST&#x2d;SQUARE" 
d="M448 368v-352q0 -20 -14 -34t-34 -14h-246q22 36 28 59l15 59q6 -12 22 -20t34 -8q37 0 66 20t45.5 55t16.5 77q0 61 -43.5 101.5t-108.5 40.5q-75 0 -118.5 -43.5t-43.5 -105.5q0 -28 14 -56t36 -39q7 -3 8 4q0 1 3 12t4 15t-2 7q-18 23 -18 56q0 43 30.5 75t80.5 32
q45 0 74 -28t29 -72q0 -32 -10.5 -58t-28 -40t-39.5 -14q-18 0 -29 13t-7 31q2 11 7.5 28.5t9 31t3.5 22.5q0 30 -25 34q-27 4 -42 -24q-8 -15 -8 -35q0 -6 0.5 -12t1.5 -10.5t2 -7.5t2 -5l1 -2q-5 -21 -11.5 -48.5t-9 -37.5t-6 -26t-4 -22t-1 -17t0 -19.5t1.5 -21.5l3 -1
h-89q-20 0 -34 14t-14 34v352q0 20 14 34t34 14h352q20 0 34 -14t14 -34z" />
    <glyph glyph-name="google-plus-square" unicode="GOOGLE&#x2d;PLUS&#x2d;SQUARE" 
d="M400 416q20 0 34 -14t14 -34v-352q0 -20 -14 -34t-34 -14h-352q-20 0 -34 14t-14 34v352q0 20 14 34t34 14h352zM164 92q43 0 69.5 27t26.5 71q0 8 -2 16h-94v-34h57q-3 -15 -17 -29t-40 -14q-17 0 -31 8.5t-22.5 23t-8.5 31.5q0 26 18 44.5t44 18.5q24 0 40 -15l27 26
q-28 26 -67 26q-41 0 -70.5 -29.5t-29.5 -70.5t29.5 -70.5t70.5 -29.5zM384 174v29h-29v29h-29v-29h-29v-29h29v-29h29v29h29z" />
    <glyph glyph-name="google-plus-g" unicode="GOOGLE&#x2d;PLUS&#x2d;G" horiz-adv-x="640" 
d="M386 220q3 -17 3 -32q0 -83 -51 -135.5t-133 -52.5q-80 0 -136 56t-56 136t56 136t136 56q75 0 128 -50l-52 -50q-30 29 -76 29q-32 0 -59.5 -16t-43.5 -44t-16 -61q0 -50 35 -85.5t84 -35.5q50 0 77 27t32 55h-109v67h181zM571 213h56v-56h-56v-56h-56v56h-55v56h55v56
h56v-56z" />
    <glyph glyph-name="linkedin-in" unicode="LINKEDIN&#x2d;IN" 
d="M100 0h-93v299h93v-299zM54 340q-22 0 -38 16t-16 38t16 38t38 16q14 0 26.5 -7t20 -19.5t7.5 -27t-7.5 -27t-20 -20t-26.5 -7.5zM448 0h-93v146q0 17 -1 27.5t-5 24t-14.5 20.5t-27.5 7q-33 0 -44.5 -21t-11.5 -56v-148h-93v299h90v-41h1q10 20 33 34.5t55 14.5
q34 0 56.5 -10.5t34 -31t16 -44.5t4.5 -57v-164z" />
    <glyph glyph-name="github-alt" unicode="GITHUB&#x2d;ALT" horiz-adv-x="480" 
d="M186 119q0 -19 -9.5 -37t-27.5 -18q-12 0 -20.5 10t-12 22t-3.5 23q0 19 9.5 37t27 18t27 -18t9.5 -37zM480 170q0 -59 -18 -95q-9 -19 -22.5 -32.5t-34 -21.5t-36.5 -12.5t-43.5 -6t-39.5 -2t-40 -0.5h-35.5t-34.5 1.5t-39 3.5t-34.5 7.5t-34.5 13.5t-26 20.5t-22 28.5
q-20 40 -20 95q0 65 42 113q-8 24 -8 49q0 23 14 52q35 0 59.5 -8t49.5 -28q42 10 89 10q42 0 80 -9q25 20 49.5 27.5t58.5 7.5q15 -29 15 -52q0 -25 -8 -48q39 -46 39 -114zM416 119q0 35 -20 59t-54 24q-12 0 -56 -6q-21 -3 -45 -3t-45 3q-43 6 -56 6q-34 0 -54 -24
t-20 -59q0 -25 9.5 -44t23.5 -29.5t35 -17t40 -8.5t43 -2h48q30 0 54 3.5t47.5 13.5t36.5 31.5t13 52.5zM333.5 174q17.5 0 27 -18t9.5 -37t-9.5 -37t-27 -18t-27.5 18t-10 37t10 37t27.5 18z" />
    <glyph glyph-name="maxcdn" unicode="MAXCDN" horiz-adv-x="512" 
d="M461 5h-97l52 243q3 16 -5 25.5t-24 9.5h-49l-60 -278h-97l59 278h-83l-60 -278h-97l60 278l-45 96h372q62 0 98 -45q37 -45 24 -106z" />
    <glyph glyph-name="html5" unicode="HTML&#x35;" horiz-adv-x="384" 
d="M0 416h384l-35 -396l-157 -52l-157 52zM308 288l5 48h-241l12 -146h167l-6 -62l-53 -14l-54 14l-4 38h-47l6 -76l99 -27h1l97 27l14 149h-176l-4 49h184z" />
    <glyph glyph-name="css3" unicode="Css&#x33;" horiz-adv-x="512" 
d="M480 416l-64 -368l-223 -80l-193 80l20 95h82l-8 -41l116 -44l134 44l19 97h-333l16 82h333l11 53h-334l17 82h407z" />
    <glyph glyph-name="btc" unicode="Btc" horiz-adv-x="384" 
d="M310 205q77 -18 70 -100q-6 -53 -41.5 -75t-101.5 -26v-68h-49v67h-38v-67h-49v68h-97l10 58h10q17 -1 23.5 -0.5t12.5 4.5t7 12v217q-3 16 -14.5 19.5t-40.5 2.5h-8v52q84 -1 97 0v79h49v-78q25 1 38 1v77h49v-79q19 -2 35 -5.5t30.5 -9.5t24.5 -15t16.5 -22.5
t7.5 -29.5q6 -58 -41 -82zM151 313v-96q1 0 10.5 -0.5t14.5 0t15.5 0.5t17.5 1.5t16.5 3.5t15.5 6t11.5 9t8.5 12t3 16q0 12 -4.5 20.5t-13.5 14t-17.5 8.5t-22 4t-21 1.5t-20.5 0t-14 -0.5zM151 62q1 0 12.5 -0.5t17.5 0t18.5 1t20.5 2t19 3.5t18 6.5t13.5 9.5t10 13
t3.5 18q0 13 -5.5 22.5t-16 15t-20 9.5t-26 5t-24.5 1.5t-24 0t-17 -0.5v-106z" />
    <glyph glyph-name="youtube" unicode="Youtube" horiz-adv-x="576" 
d="M550 324q3 -12 5.5 -30t3.5 -35.5t1.5 -32.5t0.5 -25v-9q0 -90 -11 -133q-5 -17 -18 -30t-31 -18q-19 -5 -72 -7.5t-97 -3.5h-44q-171 0 -213 11q-39 11 -49 48q-5 19 -7.5 52.5t-3.5 56.5v24q0 89 11 132q5 18 18 31t31 18q19 5 72 7.5t97 3.5h44q171 0 213 -11
q18 -5 31 -18t18 -31zM232 110l143 82l-143 81v-163z" />
    <glyph glyph-name="xing" unicode="Xing" horiz-adv-x="384" 
d="M163 238l-70 -124q-8 -12 -18 -12h-65q-6 0 -8.5 4.5t-0.5 9.5l69 122l-44 76q-3 5 0 9.5t9 4.5h65q11 0 18 -12zM383 402l-144 -253l91 -167q3 -5 0.5 -9.5t-8.5 -4.5h-66q-11 0 -18 12l-92 169q1 2 16.5 29t51.5 90.5t77 135.5q7 12 17 12h66q6 0 8.5 -4.5t0.5 -9.5z
" />
    <glyph glyph-name="xing-square" unicode="XING&#x2d;SQUARE" 
d="M400 416q20 0 34 -14t14 -34v-352q0 -20 -14 -34t-34 -14h-352q-20 0 -34 14t-14 34v352q0 20 14 34t34 14h352zM140 128q8 0 13 9q48 85 50 88l-32 55q-5 9 -13 9h-46q-5 0 -6.5 -3t0.5 -7l31 -54l-49 -87q-2 -4 0 -7t6 -3h46zM360 342q2 4 0 7t-6 3h-47q-7 0 -12 -9
q-102 -179 -104 -182l66 -120q5 -9 13 -9h47q4 0 6 3t0 7l-66 119z" />
    <glyph glyph-name="dropbox" unicode="DROPBOX" horiz-adv-x="528" 
d="M264 332l-132 -85l132 -84l-132 -84l-132 85l132 84l-132 84l132 84zM132 52l132 85l132 -85l-132 -84zM264 164l132 84l-132 84l132 84l132 -84l-132 -85l132 -84l-132 -84z" />
    <glyph glyph-name="stack-overflow" unicode="STACK&#x2d;OVERFLOW" horiz-adv-x="384" 
d="M291 137l-9 -39l-195 41l8 39zM342 224l-26 -31l-153 129l25 30zM310 184l-16 -36l-182 84l17 37zM262 416l119 -160l-32 -24l-119 160zM282 88v-40h-200v40h200zM322 8v120h40v-160h-359v160h40v-120h279z" />
    <glyph glyph-name="instagram" unicode="Instagram" 
d="M224 307q48 0 81.5 -33.5t33.5 -81.5t-33.5 -81.5t-81.5 -33.5t-81.5 33.5t-33.5 81.5t33.5 81.5t81.5 33.5zM224 117q31 0 53 22t22 53t-22 53t-53 22t-53 -22t-22 -53t22 -53t53 -22zM370 312q0 -11 -7.5 -19t-18.5 -8t-19 8t-8 19t8 18.5t19 7.5t18.5 -7.5t7.5 -18.5z
M447 284q1 -27 1 -92t-1 -92q-3 -61 -36.5 -94.5t-94.5 -35.5q-27 -2 -92 -2t-92 2q-61 3 -94 36q-13 12 -21 28t-11.5 31t-3.5 35q-2 27 -2 92t2 93q3 60 36 93q33 34 94 37q27 1 92 1t92 -1q61 -3 94.5 -36.5t36.5 -94.5zM399 60q3 8 5 20.5t3 30t1 28.5v31v22.5v22v30.5
t-1 28.5t-3 30t-5 20.5q-12 31 -43 43q-8 3 -20.5 5t-30 3t-28 1h-31h-22.5h-22h-31t-28.5 -1t-30 -3t-20.5 -5q-31 -12 -43 -43q-3 -8 -5 -20.5t-3 -30t-1 -28v-31v-22.5v-18.5v-24t0.5 -24.5t1.5 -25.5t3 -21.5t4 -18q13 -31 43 -43q8 -3 20.5 -5t30 -3t28 -1h31h22.5
h22.5h30.5t28.5 1t30 3t20.5 5q31 13 43 43z" />
    <glyph glyph-name="flickr" unicode="Flickr" 
d="M400 416q20 0 34 -14t14 -34v-352q0 -20 -14 -34t-34 -14h-352q-20 0 -34 14t-14 34v352q0 20 14 34t34 14h352zM144.5 129q26.5 0 45 18.5t18.5 45t-18.5 45t-45 18.5t-45 -18.5t-18.5 -45t18.5 -45t45 -18.5zM303.5 129q26.5 0 45 18.5t18.5 45t-18.5 45t-45 18.5
t-45 -18.5t-18.5 -45t18.5 -45t45 -18.5z" />
    <glyph glyph-name="adn" unicode="ADN" horiz-adv-x="496" 
d="M248 280l65 -98h-130zM496 192q0 -103 -72.5 -175.5t-175.5 -72.5t-175.5 72.5t-72.5 175.5t72.5 175.5t175.5 72.5t175.5 -72.5t72.5 -175.5zM396 109l-148 223l-148 -223h30l34 52h168l34 -52h30z" />
    <glyph glyph-name="bitbucket" unicode="BITBUCKET" horiz-adv-x="512" 
d="M22 416h467h3q3 -1 5 -2.5t4 -3.5t3 -4.5t1 -5.5v-3l-68 -417q-1 -5 -5.5 -9t-10.5 -4h-326q-7 0 -13.5 5.5t-7.5 12.5l-68 412v3q0 7 4.5 11.5t11.5 4.5zM308 118l25 147h-157l28 -147h104z" />
    <glyph glyph-name="tumblr" unicode="Tumblr" horiz-adv-x="320" 
d="M310 -32q-12 -13 -38.5 -22.5t-59.5 -9.5q-42 0 -73 14t-46 37t-21.5 45t-6.5 45v144h-47q-10 0 -10 10v68q0 12 11 16q42 14 62 47t23 70q1 16 16 16h70q10 0 10 -10v-115h84q10 0 10 -10v-82q0 -10 -10 -10h-84v-133q0 -27 17.5 -37.5t50.5 1.5q9 4 13 2q5 -1 7 -8
l22 -64q4 -10 0 -14z" />
    <glyph glyph-name="tumblr-square" unicode="TUMBLR&#x2d;SQUARE" 
d="M400 416q20 0 34 -14t14 -34v-352q0 -20 -14 -34t-34 -14h-352q-20 0 -34 14t-14 34v352q0 20 14 34t34 14h352zM318 52q2 2 0 9l-14 40q-1 4 -4 5t-8 -1q-21 -8 -32 -1.5t-11 23.5v83h52q6 0 6 6v52q0 6 -6 6h-52v72q0 6 -6 6h-44q-9 0 -10 -10q-4 -56 -53 -73
q-7 -3 -7 -10v-43q0 -6 6 -6h30v-90q0 -14 4 -28t13.5 -28t28.5 -23t46 -9q42 0 61 20z" />
    <glyph glyph-name="apple" unicode="Apple" horiz-adv-x="384" 
d="M319 179q0 -63 61 -92q-12 -38 -41 -78t-61 -41q-14 0 -37 9t-40 9t-40.5 -9t-34.5 -9q-22 -1 -46.5 24t-39 52t-22.5 49q-14 42 -14 81q0 63 34.5 98t80.5 36q15 0 43 -10t34 -10q4 0 14.5 3.5t21.5 8t25.5 7.5t26.5 2q57 -5 85 -45q-51 -30 -50 -85zM262 344
q-32 -38 -69 -35q-4 40 25 72q12 14 31 24t37 11q3 -40 -24 -72z" />
    <glyph glyph-name="windows" unicode="Windows" 
d="M0 354l184 26v-178h-184v152zM0 30v150h184v-176zM204 2v178h244v-212zM204 382l244 34v-214h-244v180z" />
    <glyph glyph-name="android" unicode="ANDROID" horiz-adv-x="576" 
d="M420.5 146q-9.5 0 -16.5 7t-7 17t7 17t16.5 7t17 -7t7.5 -17t-7.5 -17t-17 -7zM155.5 146q-9.5 0 -17 7t-7.5 17t7.5 17t17 7t16.5 -7t7 -17t-7 -17t-16.5 -7zM429 291l48 83q2 2 2 5q0 10 -10 10q-6 0 -9 -5l-49 -85q-16 8 -38 14t-44.5 9.5t-40.5 3.5q-27 0 -63 -8
t-60 -19l-49 85q-3 5 -9 5q-10 0 -10 -10q0 -3 2 -5l48 -83q-63 -34 -102 -94t-45 -133h576q-6 73 -45 133t-102 94z" />
    <glyph glyph-name="linux" unicode="LINUX" 
d="M221 325h-2l-2 1q0 1 1 2q2 1 6 -1q3 -1 3 -2.5t-3 -1.5q-1 0 -2 1zM199 323q-3 0 -3 1q0 2 3 3q4 2 6 0q1 0 0.5 -0.5t-2.5 -1.5h-1l-1 -1t-2 -1zM420 44q16 -18 16 -30q-1 -10 -14 -18q-5 -2 -16.5 -7.5t-20 -11.5t-14.5 -13q-22 -26 -49 -28t-40 23q-1 3 -2 7
q-12 -1 -30.5 2t-25.5 2q-7 0 -14.5 -1.5l-12.5 -2.5t-11 -2t-10 -1q-7 -16 -26 -20q-25 -6 -56 11q-8 4 -18.5 6t-22.5 3.5t-18 2.5q-15 3 -20 12q-5 11 2 32q2 5 -1 21q-1 8 -1 12q0 7 3 12q5 10 18 15q14 5 18 8q1 2 6.5 9.5t9.5 10.5q-4 24 6 53q15 46 58 97
q20 28 23 65q0 5 -1 21t-1.5 28.5t3.5 29.5t11.5 28.5t24 19.5t41.5 8q23 0 39 -9.5t22.5 -24t10.5 -32t3.5 -34.5t0.5 -31q-1 -14 5 -28t11 -22t17 -22q33 -40 46 -75q17 -42 4 -79l4 -2t4 -3q7 -5 11 -22q4 -16 7 -20zM224 361q-5 -11 -3 -22q8 -2 13 -5q-2 9 2 16.5
t10 7.5q6 -1 9 -10t0 -18q-1 0 -4 -4q9 -3 12 -5q15 17 5 40q-8 16 -22.5 16t-21.5 -16zM183 372q-14 0 -17 -20.5t9 -31.5l6 5l-1 1q-5 5 -4.5 16t6.5 12q3 0 5.5 -3t3.5 -7.5t1 -9.5q4 3 10 5q1 14 -5 23.5t-14 9.5zM169 312q-6 -5 -4 -13q3 -8 15 -15q3 -2 9.5 -7.5
t10.5 -7.5t10 -2q10 -1 23 6.5t15 8.5q18 5 22 18q5 12 -10 18q-4 2 -11.5 4.5t-11.5 4.5q-14 9 -26 9t-27 -14q-1 0 -15 -10zM173 -22q1 11 -19 37.5t-22 30.5l-20 36q-10 14 -22 16q-10 2 -18 -7q-2 -2 -6.5 -8.5t-7.5 -9.5q-6 -5 -19 -10q-11 -4 -15 -11q-3 -6 -1 -20
q3 -18 1 -24q-7 -19 -3 -27q3 -6 15.5 -8t30.5 -4.5t30 -8.5q24 -15 49 -11t27 29zM171 3q31 -17 59.5 -14t55.5 22q6 21 6 29q2 28 5 40q5 21 21 27q3 28 38 12q28 -12 23 -26h5q6 20 -31 35q4 17 -1 36q-8 35 -35 59q-4 0 3 -7q13 -12 22.5 -36.5t0.5 -48.5q-6 2 -11 2
q-5 31 -23 64q-25 46 -38 96q-7 -10 -22 -15q-2 -1 -4.5 -2t-6 -3.5t-5.5 -3.5q-24 -14 -42 1q-1 1 -5.5 5t-7.5 5q-2 2 -6 5q-1 -11 -3.5 -23.5t-8 -25.5t-9.5 -23t-10 -23.5t-8 -17.5q-13 -31 -14 -62q-24 32 3 83q12 22 8 21q-22 -36 -27 -60q-5 -19 0 -35q6 -18 25 -30
q25 -14 38 -32q11 -15 8 -25q-4 -9 -17 -9q10 -12 14 -20zM429 15q0 9 -14 25q-4 4 -6.5 13t-4.5 17t-6 11q-7 6 -23 5q-6 -7 -17.5 -12.5t-20.5 -3.5q-17 4 -19 29h-1q-10 -5 -14 -21q-2 -11 -4 -39q0 -3 -10 -41q-6 -23 -1 -36q11 -21 34 -19q24 2 44 25q9 11 25 19.5
t26.5 14.5t11.5 13zM173 299q-4 4 -1 7q1 0 2.5 -2.5l1.5 -2.5q5 -5 8 -7q12 -10 24 -10t30 10q2 2 14 10q2 1 3.5 3.5t2.5 1.5q4 0 -3 -6q-7 -7 -15 -11q-20 -10 -31 -10q-14 0 -28 10q-3 3 -8 7z" />
    <glyph glyph-name="dribbble" unicode="DRIBBBLE" horiz-adv-x="512" 
d="M256 440q103 0 175.5 -72.5t72.5 -175.5t-72.5 -175.5t-175.5 -72.5t-175.5 72.5t-72.5 175.5t72.5 175.5t175.5 72.5zM420 326q-6 -8 -15.5 -18t-38.5 -31t-64 -35q9 -20 18 -42q73 10 148 -6q-1 74 -48 132zM396 350q-39 35 -89 47.5t-101 0.5q43 -57 79 -124
q34 12 61.5 31t36 28.5t13.5 16.5zM166 383q-30 -14 -54 -36t-40.5 -50.5t-22.5 -61.5q94 -1 195 26q-36 65 -78 122zM44 192q0 -82 55 -142q17 30 44 58t63 51t73 33q-7 18 -17 36q-108 -32 -218 -30v-6zM126 25q46 -37 104 -44t109 16q-13 77 -45 160
q-61 -20 -105.5 -57.5t-62.5 -74.5zM374 16q77 52 91 142q-63 20 -132 9q29 -80 41 -151z" />
    <glyph glyph-name="skype" unicode="SKYPE" 
d="M425 148q23 -30 23 -68q0 -46 -33 -79t-79 -33q-38 0 -68 23q-22 -4 -44 -4q-85 0 -145 60t-60 145q0 21 4 44q-23 30 -23 68q0 46 33 79t79 33q38 0 68 -23q22 4 44 4q85 0 145 -60t60 -145q0 -21 -4 -44zM230 57q45 0 78.5 22.5t33.5 63.5q0 57 -91 78q-5 1 -16 3
q-17 4 -24 6t-15.5 5.5t-11 7.5t-2.5 11q0 22 42 22q20 0 32.5 -8t22 -16.5t20.5 -8.5q7 0 13 2.5t9.5 7t6 10t2.5 12.5q0 24 -34 39.5t-77.5 15.5t-76 -20t-32.5 -61q0 -11 1.5 -20t6 -16t8.5 -12t13 -10t13.5 -8t17 -6.5t17.5 -5t20.5 -5t20.5 -4.5q17 -5 23 -6.5t12.5 -7
t6.5 -14.5q0 -12 -12 -19.5t-31 -7.5q-18 0 -32 7t-20.5 15.5t-16 15.5t-19.5 7q-14 0 -21.5 -8.5t-7.5 -21.5q0 -27 35.5 -46t84.5 -19z" />
    <glyph glyph-name="foursquare" unicode="FOURSQUARE" horiz-adv-x="368" 
d="M323 445q29 0 39 -16t3 -49l-48 -243q-2 -9 -4 -13t-6.5 -12t-13 -11.5t-21.5 -3.5h-83q-4 0 -7 -3q-2 -3 -131 -152q-13 -15 -33 -7q-18 7 -18 30v434q0 17 12.5 31.5t37.5 14.5h273zM307 371q1 7 -3 12.5t-11 5.5h-219q-7 0 -11.5 -5.5t-4.5 -11.5v-339q0 -2 2 0
l89 108q7 8 11.5 10.5t15.5 2.5h73q5 0 8.5 2.5t5.5 5.5t3 5q4 22 11 59q2 7 -3 12.5t-12 5.5h-90q-9 0 -14.5 6t-5.5 15v13q0 4 1.5 8t4 6.5t6.5 4t8 1.5h106q3 0 6 1.5t5.5 3t4 4t1.5 5.5z" />
    <glyph glyph-name="trello" unicode="TRELLO" 
d="M392 416q23 0 39.5 -16.5t16.5 -39.5v-336q0 -15 -7.5 -28t-20.5 -20.5t-28 -7.5h-336q-23 0 -39.5 16.5t-16.5 39.5v296v40q0 23 16.5 39.5t39.5 16.5h336zM197 77v254q0 11 -8 19t-19 8h-83q-11 0 -19 -8t-8 -19v-254q0 -8 4 -14t10 -9.5t13 -3.5h83q11 0 19 8t8 19z
M390 189v142q0 11 -8 19t-19 8h-81q-7 0 -13.5 -4t-10 -10t-3.5 -13v-142q0 -8 4 -14t10 -9.5t13 -3.5h81q11 0 19 8t8 19z" />
    <glyph glyph-name="gratipay" unicode="GRATIPAY" horiz-adv-x="496" 
d="M248 440q103 0 175.5 -72.5t72.5 -175.5t-72.5 -175.5t-175.5 -72.5t-175.5 72.5t-72.5 175.5t72.5 175.5t175.5 72.5zM363 214q3 5 5.5 13t3 18.5t-5.5 21.5t-17 19q-23 11 -39.5 6.5t-28.5 -18.5q-12 -13 -31 -13.5t-31 13.5t-29 18.5t-40 -6.5q-14 -10 -19 -26
t-2 -27.5t8 -18.5l113 -153z" />
    <glyph glyph-name="vk" unicode="VK" horiz-adv-x="576" 
d="M545 330q-3 -15 -23.5 -49t-37.5 -59.5t-18 -26.5q-6 -9 -6 -13t6 -14l6.5 -7t15.5 -16t20 -21t20.5 -23.5t17 -23.5t10.5 -20q7 -25 -20 -25h-59q-7 0 -12 2t-11 7t-11 11t-15 17t-20 21q-40 38 -59 38q-12 0 -14 -7t-2 -40q1 -16 1 -26q0 -12 -8 -17.5t-35 -5.5
q-47 0 -95 28t-84 80q-34 46 -56.5 91.5t-29.5 69.5t-7 34q0 17 20 17h59q11 0 16.5 -5t9.5 -18q21 -61 51.5 -109t46.5 -48q6 0 8.5 4.5t2.5 17.5v87q-1 14 -5 24t-8 14.5t-7.5 9.5t-3.5 9t2 7t5.5 5t7.5 2h93q16 0 16 -22v-116q0 -17 9.5 -17t27.5 18q19 21 37 51t27 50
l9 19q7 17 25 17h59q24 0 18 -22z" />
    <glyph glyph-name="weibo" unicode="Weibo" horiz-adv-x="512" 
d="M407 270q6 18 -6.5 32t-30.5 10q-11 -2 -17 5t-3.5 16.5t12.5 11.5q38 8 63.5 -20.5t13.5 -64.5q-3 -10 -12.5 -11.5t-16 5t-3.5 16.5zM215 1q-85 0 -150 38t-65 99q0 67 76 143q72 72 132 76q44 3 47 -36q1 -14 -5 -34q-3 -11 12 -6q60 27 96.5 12.5t17.5 -63.5
q-2 -7 0 -9t8 -5q66 -20 62 -73q-3 -53 -67 -96q-68 -46 -164 -46zM358.5 147.5q-4.5 41.5 -52 67t-111.5 18.5q-64 -6 -105.5 -40t-37.5 -75.5t51.5 -67t111.5 -18.5q64 6 106 40t37.5 75.5zM348 413q50 10 92.5 -13t61.5 -68t3 -93q-6 -19 -24.5 -13t-12.5 25
q17 53 -20 94t-92 30q-12 -3 -19 5.5t-4 19t15 13.5zM269 102q-12 -29 -44.5 -43t-64.5 -3q-30 9 -41.5 35.5t1.5 53.5t43 40t60 5q32 -8 45.5 -33.5t0.5 -54.5zM183 132q-10 4 -21 0t-17 -13q-6 -10 -3.5 -19.5t12.5 -14.5t21.5 -1t17.5 14t3 20t-13 14zM216 145
q-9 3 -15 -5q-5 -9 4 -13q10 -4 15 5q5 10 -4 13z" />
    <glyph glyph-name="renren" unicode="RENREN" horiz-adv-x="512" 
d="M214 279q0 -82 -41 -148.5t-107 -98.5q-58 69 -58 159q0 61 27 113.5t74 87t105 44.5v-157zM255 -56q-63 0 -119 30q45 28 76.5 68.5t42.5 86.5q11 -46 42.5 -86.5t76.5 -68.5q-55 -30 -119 -30zM446 32q-33 15 -60 40.5t-46.5 57t-30.5 70t-11 79.5v157q88 -15 147 -84
t59 -161q0 -90 -58 -159z" />
    <glyph glyph-name="pagelines" unicode="Pagelines" horiz-adv-x="384" 
d="M384 135q-15 -38 -40 -57.5t-49.5 -20.5t-47 4t-36.5 13l-14 7q-31 -62 -79.5 -98t-105.5 -36q-12 0 -12 12t12 12q48 0 88.5 29.5t69.5 80.5q-19 -7 -37.5 -9t-42 2.5t-45.5 27t-37 61.5q31 13 58.5 16t46 -2t34 -15.5t24 -21t15.5 -22.5q15 36 22 80q-2 -1 -5 -1.5
t-12.5 -0.5t-19 0.5t-22.5 2.5t-24.5 6t-23 12t-20.5 18t-15 25.5t-8 35.5q36 13 62 10t43.5 -17t28 -29.5t14.5 -28.5l5 -12q3 34 3 53q-4 3 -11 8.5t-21.5 23.5t-22 36t-5 45t21.5 53q35 -13 54 -34t21.5 -42.5t0 -41.5t-8.5 -32l-5 -13v-13.5v-19.5q0 2 2 5t8.5 11.5
t14 16t19.5 15.5t25 12t30.5 4t36.5 -7q-1 -37 -16 -62t-36 -33.5t-41.5 -11.5t-34.5 -1l-14 2q-7 -41 -20 -78q3 4 9.5 10t25.5 17.5t38 17t46.5 0.5t52.5 -25z" />
    <glyph glyph-name="stack-exchange" unicode="STACK&#x2d;EXCHANGE" 
d="M18 116h412v-22q0 -29 -19 -48.5t-46 -19.5h-19l-87 -90v90h-176q-27 0 -46 19.5t-19 48.5v22zM18 139v85h412v-85h-412zM18 249v85h412v-85h-412zM365 448q27 0 46 -20t19 -48v-22h-412v22q0 28 19 48t46 20h282z" />
    <glyph glyph-name="vimeo-square" unicode="VIMEO&#x2d;SQUARE" 
d="M400 416q20 0 34 -14t14 -34v-352q0 -20 -14 -34t-34 -14h-352q-20 0 -34 14t-14 34v352q0 20 14 34t34 14h352zM384 266q3 63 -47 64q-66 3 -90 -75q15 9 31.5 4.5t13.5 -26.5q-1 -16 -21 -48q-27 -42 -39 -27t-28 117q-4 28 -15.5 40.5t-30.5 10.5q-6 0 -14 -4
t-18.5 -12.5t-18 -15t-22 -19.5t-21.5 -19l15 -19q21 15 25 15q7 0 12 -6t11 -23.5t10.5 -31.5t12.5 -47q7 -25 11 -39q19 -51 47 -51q45 0 110 84q64 82 66 128z" />
    <glyph glyph-name="slack" unicode="SLACK" 
d="M94 133q0 -20 -14 -33.5t-33 -13.5t-33 13.5t-14 33t14 33.5t33 14h47v-47zM118 133q0 19 13.5 33t33 14t33.5 -14t14 -33v-118q0 -19 -14 -33t-33.5 -14t-33 14t-13.5 33v118zM165 322q-20 0 -33.5 14t-13.5 33t13.5 33t33 14t33.5 -14t14 -33v-47h-47zM165 298
q19 0 33 -13.5t14 -33t-14 -33.5t-33 -14h-118q-19 0 -33 14t-14 33q0 13 6.5 24t17 17t23.5 6h118zM354 251q0 20 14 33.5t33 13.5t33 -13.5t14 -33t-14 -33.5t-33 -14h-47v47zM330 251q0 -19 -13.5 -33t-33 -14t-33.5 14t-14 33v118q0 19 14 33t33 14q13 0 24 -6.5t17 -17
t6 -23.5v-118zM283 62q20 0 33.5 -14t13.5 -33t-13.5 -33t-33 -14t-33.5 14t-14 33v47h47zM283 86q-19 0 -33 13.5t-14 33t14 33.5t33 14h118q19 0 33 -14t14 -33.5t-14 -33t-33 -13.5h-118z" />
    <glyph glyph-name="wordpress" unicode="Wordpress" horiz-adv-x="512" 
d="M62 279l101 -278q-54 26 -87 77.5t-33 113.5q0 45 19 87zM400 203q0 -17 -16 -69l-22 -71l-76 229l24 2q8 1 7.5 9.5t-9.5 7.5q-34 -2 -56 -2l-56 2q-6 1 -8.5 -3.5t-0.5 -9t7 -4.5q11 -2 23 -2l33 -91l-47 -140l-77 231l24 2q9 1 8 9.5t-9 7.5q-35 -2 -57 -2h-14
q29 44 76 70t102 26q83 0 144 -56h-3q-15 0 -25.5 -11.5t-10.5 -26.5q0 -16 21 -50q18 -30 18 -58zM260 173l65 -179q1 -1 2 -3q-35 -12 -71 -12q-30 0 -60 9zM443 294q26 -47 26 -102q0 -58 -29 -107t-77 -77l65 188q16 40 16 76q0 12 -1 22zM504 192q0 -103 -72.5 -175.5
t-175.5 -72.5t-175.5 72.5t-72.5 175.5t72.5 175.5t175.5 72.5t175.5 -72.5t72.5 -175.5zM493 192q0 98 -69.5 167.5t-167.5 69.5t-167.5 -69.5t-69.5 -167.5t69.5 -167.5t167.5 -69.5t167.5 69.5t69.5 167.5z" />
    <glyph glyph-name="openid" unicode="Openid" 
d="M272 16l-68 -32q-87 8 -145.5 49t-58.5 97q0 53 54.5 93.5t137.5 50.5v-43q-55 -9 -89.5 -37t-34.5 -64q0 -38 38.5 -67t96.5 -36v340l68 33v-384h1zM448 157l-131 29l37 20q-30 18 -70 25v43q69 -8 120 -39l35 19z" />
    <glyph glyph-name="yahoo" unicode="YAHOO" 
d="M252 156l4 -220q-23 4 -32 4t-33 -4l4 220q-11 19 -27 47.5t-28 49.5t-28 48.5t-29.5 50t-29.5 48t-32 48.5q15 -4 34 -4q16 0 34 4q32 -57 135 -226q9 15 38.5 63t53 87.5t43.5 75.5q15 -4 33 -4q19 0 34 4q-37 -52 -174 -292z" />
    <glyph glyph-name="google" unicode="GOOGLE" horiz-adv-x="488" 
d="M488 186q0 -106 -66.5 -174t-173.5 -68q-103 0 -175.5 72.5t-72.5 175.5t72.5 175.5t175.5 72.5q97 0 166 -65l-67 -65q-32 31 -76.5 36.5t-83 -11t-66 -55t-27.5 -88.5q0 -65 45 -111t109 -46q35 0 62.5 11.5t43 29t24 34.5t11.5 32h-141v86h236q4 -22 4 -42z" />
    <glyph glyph-name="reddit" unicode="REDDIT" horiz-adv-x="512" 
d="M201.5 142q-10.5 0 -17.5 7.5t-7 17.5t7 17.5t17.5 7.5t17.5 -7.5t7 -17.5t-7 -17.5t-17.5 -7.5zM504 192q0 -103 -72.5 -175.5t-175.5 -72.5t-175.5 72.5t-72.5 175.5t72.5 175.5t175.5 72.5t175.5 -72.5t72.5 -175.5zM372 233q-14 0 -24 -10q-36 25 -86 27l17 78
l56 -12q0 -11 7 -18t17.5 -7t17.5 7.5t7 17.5t-7 17.5t-18 7.5q-15 0 -22 -14l-61 14q-5 1 -7 -5l-19 -86q-50 -2 -86 -27q-9 10 -24 10q-16 0 -25.5 -12t-6.5 -27.5t18 -23.5q-2 -7 -2 -15q0 -40 39 -67.5t93 -27.5q27 0 51.5 7.5t42.5 20t28 30.5t10 37q0 8 -1 16
q15 7 17.5 22.5t-7 27.5t-25.5 12zM303 117q4 4 8 0q5 -5 0 -9q-17 -17 -55 -17t-55 17q-5 4 0 9q4 4 8 0q13 -13 46.5 -13.5t47.5 13.5zM310 192q11 0 18 -7.5t7 -17.5t-7 -17.5t-17.5 -7.5t-17.5 7.5t-7 17.5q0 7 3 12.5t9 9t12 3.5z" />
    <glyph glyph-name="reddit-square" unicode="REDDIT&#x2d;SQUARE" 
d="M283 102q5 -4 0 -9q-18 -18 -59 -18t-59 18q-5 5 0 9q4 5 9 0q14 -14 50 -14t50 14q5 5 9 0zM192 156q0 -11 -8 -18.5t-19 -7.5t-18.5 7.5t-7.5 18.5t7.5 19t18.5 8t19 -8t8 -19zM283 183q11 0 18.5 -8t7.5 -19t-7.5 -18.5t-18.5 -7.5t-19 7.5t-8 18.5t8 19t19 8z
M448 368v-352q0 -20 -14 -34t-34 -14h-352q-20 0 -34 14t-14 34v352q0 20 14 34t34 14h352q20 0 34 -14t14 -34zM348 227q-14 0 -25 -10q-39 27 -93 28l19 85l59 -14q0 -7 4 -13t10 -9.5t13 -3.5q11 0 19 7.5t8 18.5t-8 19t-19 8q-16 0 -24 -15l-66 15q-5 1 -7 -5l-20 -93
q-54 -2 -92 -29q-11 11 -26 11q-18 0 -28.5 -13t-7 -29.5t19.5 -24.5q-2 -8 -2 -17q0 -42 42 -72t100 -30q59 0 100.5 30t41.5 72q0 10 -2 17q16 8 19.5 24.5t-7 29.5t-28.5 13z" />
    <glyph glyph-name="stumbleupon-circle" unicode="STUMBLEUPON&#x2d;CIRCLE" horiz-adv-x="496" 
d="M256 440q103 0 175.5 -72.5t72.5 -175.5t-72.5 -175.5t-175.5 -72.5t-175.5 72.5t-72.5 175.5t72.5 175.5t175.5 72.5zM256 262q7 0 12.5 -5t5.5 -12v-21l23 -10l34 10v23q0 30 -22 51.5t-53 21.5t-53 -21t-22 -51v-108q0 -8 -5 -13t-12.5 -5t-12.5 5t-5 13v45h-58v-46
q0 -31 22 -53t53 -22t53 21.5t22 52.5v107q0 7 5.5 12t12.5 5zM424 139v46h-58v-48q0 -7 -5 -12t-12.5 -5t-12.5 5t-5 12v47l-34 -10l-23 11v-47q0 -31 22 -52.5t53 -21.5q20 0 37.5 10t27.5 27.5t10 37.5z" />
    <glyph glyph-name="stumbleupon" unicode="STUMBLEUPON" horiz-adv-x="512" 
d="M503 182v-70q0 -46 -33 -79t-79.5 -33t-79.5 32.5t-33 78.5v70l34 -16l52 16v-71q0 -11 7.5 -18.5t18.5 -7.5t19 7.5t8 18.5v72h86zM278 240v31q0 11 -7.5 19t-19 8t-19 -8t-7.5 -19v-160q0 -46 -33 -78.5t-80 -32.5q-46 0 -79 33t-33 79v70h86v-69q0 -11 8 -18.5
t19 -7.5q5 0 10 2t8.5 5.5t5.5 8.5t2 10v163q0 45 33.5 76.5t79 31.5t79 -32t33.5 -77v-36l-52 -15z" />
    <glyph glyph-name="delicious" unicode="Delicious" 
d="M446 380q2 -5 2 -12v-352q0 -20 -14 -34t-34 -14h-352q-6 0 -12 1q-11 3 -20 11l-4 4q-3 4 -6 9t-4.5 11t-1.5 12v352q0 20 14 34t34 14h352q6 0 12 -2q3 0 5.5 -1t5.5 -3q2 -1 4 -2.5t3 -2.5q4 -3 7 -7q3 -2 5 -6t3 -8q1 -3 1 -4zM416 16v176h-192v192h-176
q-7 0 -11.5 -4.5t-4.5 -11.5v-176h192v-192h176q7 0 11.5 4.5t4.5 11.5z" />
    <glyph glyph-name="digg" unicode="DIGG" horiz-adv-x="512" 
d="M82 276v76h51v-251h-133v175h82zM82 142v93h-31v-93h31zM379 276h133v-244h-133v41h82v28h-82v175zM461 142v93h-31v-93h31zM225 101v175h133v-244h-133v41h82v28h-82zM276 235v-93h31v93h-31zM153 352h52v-51h-52v51zM153 276h52v-175h-52v175z" />
    <glyph glyph-name="pied-piper-pp" unicode="PIED&#x2d;PIPER&#x2d;PP" 
d="M205 273.5q0 -15.5 -9 -27t-22 -11.5q-11 0 -18 4v68q7 4 18 4q13 0 22 -11t9 -26.5zM258 206q13 0 22.5 -11t9.5 -26.5t-9.5 -27t-22.5 -11.5q-11 0 -17 4v68q7 4 17 4zM448 368v-352q0 -20 -14 -34t-34 -14h-352q-20 0 -34 14t-14 34v352q0 20 14 34t34 14h352
q20 0 34 -14t14 -34zM185 193q31 0 52.5 23.5t21.5 55.5q0 22 -10 40.5t-27 29t-37 10.5q-18 0 -35 -9h-45v-206l51 10v51q14 -5 29 -5zM343 168q0 33 -21.5 56t-51.5 23q-6 0 -10 -1q-6 -19 -19 -33q-22 -23 -52 -25v-156l52 10v51q12 -5 28 -5q31 0 52.5 23.5t21.5 56.5z
" />
    <glyph glyph-name="pied-piper-alt" unicode="PIED&#x2d;PIPER&#x2d;ALT" horiz-adv-x="576" 
d="M244 202l-28 -6l-1 5q3 0 9 2t10 2q5 0 10 -3zM380 4q3 0 6.5 -4.5t8 -12.5t7.5 -14t6.5 -14.5t4.5 -9.5q-51 -19 -106 -10l-7 45q11 8 38 14t42 6zM341 271q-3 4 -39.5 2.5t-59.5 -12.5q8 15 26 22q10 3 19 10t13 11t14 15.5t13 14.5q4 -3 8.5 -9.5t9.5 -10.5t13 -3v-22
h7q71 27 106 54q8 7 14.5 12t12.5 10.5t9.5 9t8.5 10t7 8.5t7 10.5t6.5 11t7.5 13.5t9 15l2 3q-1 -16 -13 -40q-44 -92 -147 -117q-3 0 -7 -1t-8 -1.5l-8 -1t-7.5 -2t-6.5 -3.5q1 -5 7 -12.5t6 -9.5q0 -4 -7 -9q-18 20 -23 22zM556 448l-1 -1v-1v1zM496 66q10 -16 23 -31.5
t21.5 -23t28.5 -25.5q-14 -9 -31.5 -17t-39.5 -16.5t-32 -13.5q-18 15 -28.5 55t-15 77.5t-21.5 67.5t-47 30q-3 -1 -5 -2q2 -1 4 -4q2 -2 6.5 -5.5t6.5 -5t5 -4.5l4.5 -4.5t3.5 -4.5t3 -5t2.5 -5.5t2 -7t1 -7.5t0.5 -10v-9q1 -13 -10 -64q-7 1 -38.5 -3.5t-39.5 0.5v19.5
t1 22.5q0 3 16.5 19.5t16.5 23.5q-7 1 -13 -7q-10 -15 -32 -28.5t-39 -13.5q-6 0 -16.5 12t-20.5 26t-21.5 29t-17.5 19q-2 2 -8 9q-137 -32 -148 -32q-4 0 -7.5 3t-3.5 8q0 10 9 12l140 30q-2 5 -3 8t3 5.5t6.5 3.5t8 2t6.5 1t4.5 2t4.5 2q9 0 14 -14q48 10 50 10
q11 0 12 -10t-9 -12l-53 -12v-4q0 -8 23.5 -34t29.5 -26q14 0 34.5 23t20.5 37q0 10 -6.5 15t-14.5 5.5t-14.5 3t-6.5 9.5q0 5 2 10l-19 6q16 16 11 50q23 5 41 5t27 -1t15.5 -6t8 -8.5t6.5 -17t9 -22.5l14 7q-1 -14 -10 -19t-17 -6t-8 -6v-6q22 1 41.5 -5.5t34 -16.5
t29 -27.5t24 -31t21.5 -34.5zM300 20h9l3 -24l-12 -3v27zM231 170l14 4l31 -51l-20 -14zM316 15q7 1 18 3t20 3t21 1l1 -5q0 -2 -5 -4t-13 -3.5t-15.5 -3t-15.5 -2.5t-9 -1z" />
    <glyph glyph-name="drupal" unicode="DRUPAL" 
d="M320 333q9 -5 21 -16t31 -33t31.5 -56.5t12.5 -73.5q0 -82 -56 -134t-134 -52t-136 54.5t-58 135.5q0 37 13 71t32 55t33 32.5t23 16.5q40 22 53 33q19 14 22 49q32 -38 47 -48q11 -7 32.5 -17t32.5 -17zM322 8q5 5 1 9q-2 1 -5 -1q-19 -14 -55 -14q-15 0 -28 3.5
t-18 6.5l-5 4q-5 0 -7.5 -4.5t0.5 -7.5q21 -18 61 -15t56 19zM268 60q-8 -3 -17.5 -11t-5.5 -14q3 -3 12 5q14 11 27 11q9 0 14 -3t6 -6.5t2.5 -5.5t3.5 -1q6 5 2.5 13t-8.5 11q-5 4 -17.5 4t-18.5 -3zM360 43q23 -2 36 35q15 42 -1 63q-7 8 -19 8q-10 0 -40.5 -21
t-41.5 -21q-10 0 -27 12t-38.5 24.5t-42.5 12.5q-24 0 -41.5 -13t-24.5 -30t-3.5 -35t17.5 -28q19 -14 44.5 -9t45.5 16.5t41 23.5t30 11q10 0 34 -24.5t31 -24.5z" />
    <glyph glyph-name="joomla" unicode="Joomla" 
d="M1 356q0 25 17.5 42.5t41.5 17.5q23 0 39.5 -14.5t20.5 -35.5q54 12 96 -30l-44 -44q-17 14 -31 14t-24.5 -11t-10.5 -26t10 -26l100 -100l-44 -44q-51 50 -67.5 67t-32.5 33q-20 19 -26.5 46t1.5 53q-20 4 -33 20.5t-13 37.5zM130 240q86 85 100 99q19 20 46 26.5
t52 -1.5q3 22 20 37t40 15q24 0 41.5 -17.5t17.5 -42.5q0 -23 -15 -39.5t-37 -20.5q16 -56 -29 -101l-44 45q15 16 15 30t-11 25t-26 11t-26 -11l-100 -100zM396 87q22 -3 37 -19.5t15 -39.5q0 -25 -17.5 -42.5t-42.5 -17.5q-14 0 -26.5 6.5t-21 17.5t-11.5 24
q-25 -8 -53.5 -1t-48.5 29l44 44q16 -14 30 -14t25 11t11 26t-11 26l-100 100l45 44q91 -91 99 -100q40 -40 26 -94zM312 140l-67.5 -67.5l-31.5 -31.5q-40 -40 -95 -26q-3 -14 -11 -24.5t-20.5 -16.5t-26.5 -6q-25 0 -42.5 17.5t-17.5 42.5q0 21 13 37.5t33 20.5
q-14 55 30 99l44 -45q-14 -16 -14 -30t10 -25q11 -11 26.5 -11t25.5 11q89 88 100 100z" />
    <glyph glyph-name="behance" unicode="BEHANCE" horiz-adv-x="576" 
d="M232 211q65 -18 65 -90q0 -51 -36 -77t-89 -26h-172v355h167q113 0 113 -88q0 -51 -48 -74zM78 312v-83h79q47 0 47 43q0 40 -53 40h-73zM161 78q58 0 58 47q0 51 -56 51h-85v-98h83zM520 319h-144v35h144v-35zM576 143q0 -5 -1 -13h-185q0 -32 16.5 -49t46.5 -17
q11 0 22.5 4t21 11.5t12.5 18.5h62q-28 -86 -120 -86q-60 0 -95.5 37t-35.5 97q0 59 36.5 97.5t94.5 38.5t91.5 -40t33.5 -99zM390 174h115q-5 55 -56 55q-25 0 -41 -15t-18 -40z" />
    <glyph glyph-name="behance-square" unicode="Behance&#x2d;Square" 
d="M186 155q0 -25 -31 -25h-45v52h46q30 0 30 -27zM179 237q0 -23 -26 -23h-43v45h40q29 0 29 -22zM311 214q28 0 31 -30h-63q1 14 9.5 22t22.5 8zM448 368v-352q0 -20 -14 -34t-34 -14h-352q-20 0 -34 14t-14 34v352q0 20 14 34t34 14h352q20 0 34 -14t14 -34zM272 263h78
v19h-78v-19zM229 153q0 41 -35 51q26 13 26 37q0 48 -62 48h-90v-192h93q29 0 48.5 14t19.5 42zM380 168q0 32 -18 53.5t-49.5 21.5t-51.5 -21t-20 -53q0 -16 5 -29.5t14 -23t22.5 -15t29.5 -5.5q50 0 66 47h-34q-3 -8 -12 -13t-18 -5q-34 0 -34 35h100v8z" />
    <glyph glyph-name="steam" unicode="Steam" horiz-adv-x="496" 
d="M496 192q0 -67 -33 -124.5t-90.5 -90.5t-124.5 -33q-85 0 -151 50.5t-88 129.5l95 -39q5 -24 24 -40t45 -16q29 0 50 21.5t20 51.5l84 60q40 -1 68 27t28 67t-27.5 66t-66 27t-66 -27t-27.5 -66v-1l-59 -86q-24 1 -44 -12l-133 55q8 96 79 162t169 66q103 0 175.5 -72.5
t72.5 -175.5zM156 64q15 -6 29.5 0t21 21t0 29.5t-20.5 20.5l-32 13q20 8 39 0q20 -9 29 -29q8 -20 -0.5 -40t-28.5 -28.5t-41 -0.5q-18 8 -27 26zM329.5 194q-25.5 0 -44 18t-18.5 44t18.5 44t44 18t44 -18t18.5 -44t-18.5 -44t-44 -18zM329.5 209q19.5 0 33 14t13.5 33
t-13.5 33t-33 14t-33 -14t-13.5 -33t13.5 -33t33 -14z" />
    <glyph glyph-name="steam-square" unicode="STEAM&#x2d;SQUARE" 
d="M185 91.5q6 13.5 0.5 27.5t-19.5 20l-30 12q18 7 36 0q19 -8 27 -27t0 -38t-27 -26.5t-38 0.5q-17 7 -25 24l29 -12q14 -6 27.5 0t19.5 19.5zM400 416q20 0 34 -14t14 -34v-352q0 -20 -14 -34t-34 -14h-352q-20 0 -34 14t-14 34v113l89 -37q3 -15 12 -27t23 -19t30 -7
q27 0 46.5 20t18.5 49l79 56q37 -1 63.5 25t26.5 63q0 36 -25.5 61.5t-62 25.5t-62 -25.5t-25.5 -61.5v-1l-56 -81q-22 2 -40 -11l-117 48v161q0 20 14 34t34 14h352zM300 194q-24 0 -41 17t-17 41t17 41t41 17t41.5 -17t17.5 -41t-17.5 -41t-41.5 -17zM300 208
q19 0 31.5 13t12.5 31t-12.5 31t-31 13t-31.5 -13t-13 -31q0 -12 6 -22t16 -16t22 -6z" />
    <glyph glyph-name="spotify" unicode="SPOTIFY" horiz-adv-x="496" 
d="M248 440q103 0 175.5 -72.5t72.5 -175.5t-72.5 -175.5t-175.5 -72.5t-175.5 72.5t-72.5 175.5t72.5 175.5t175.5 72.5zM349 75q6 0 10.5 4.5t4.5 10.5q0 11 -10 17q-96 57 -237 26q-13 -3 -13 -17q0 -6 4 -10.5t11 -4.5q2 0 12 2q124 26 207 -24q6 -4 11 -4zM376 141
q8 0 13.5 5.5t5.5 13.5q0 13 -11 20q-77 45 -177 45q-50 0 -98 -13q-16 -5 -16 -21q0 -8 6 -13.5t14 -5.5q2 0 12 2q63 16 126.5 7.5t111.5 -36.5q8 -4 13 -4zM407 217q9 0 16 6.5t7 16.5q0 15 -13 23q-82 48 -205 48q-66 0 -118 -16q-17 -5 -17 -23q0 -10 6.5 -17t16.5 -7
q3 0 13 2q60 18 144 10t137 -39q6 -4 13 -4z" />
    <glyph glyph-name="deviantart" unicode="DEVIANTART" horiz-adv-x="320" 
d="M320 355l-98 -179l7 -10h91v-128h-161l-13 -9l-44 -84l-9 -9h-93v93l93 180l-7 9h-86v128h156l14 9l43 84l9 9h98v-93z" />
    <glyph glyph-name="soundcloud" unicode="SOUNDCLOUD" horiz-adv-x="640" 
d="M111 192l6 -65l-6 -69q0 -4 -4 -4t-4 4l-6 69l6 65q0 4 4 4t4 -4zM133 237q5 0 5 -5l5 -105l-5 -69q0 -5 -5 -5t-5 5l-5 69l5 105q0 5 5 5zM158 261q6 0 6 -5l5 -130l-5 -68q0 -5 -6 -5q-5 0 -5 5l-5 68l5 130q0 5 5 5zM7 165q2 0 3 -3l5 -35l-5 -35q-1 -3 -3 -3t-2 3
l-5 35l5 35q0 3 2 3zM31 187q2 0 3 -3l7 -57l-7 -57q-1 -2 -3 -2q-3 0 -3 3l-6 56l6 57q0 3 3 3zM56 198q3 0 3 -3l7 -68l-7 -66q0 -3 -3 -3t-3 3l-6 66l6 68q0 3 3 3zM81.5 200q3.5 0 3.5 -3l7 -70l-7 -68q0 -4 -3.5 -4t-3.5 4l-6 68l6 70q0 3 3.5 3zM323 311q4 -2 4 -7
l4 -178l-4 -64q0 -8 -8 -8q-9 0 -9 8l-2 32l-2 32l4 177v1q0 4 3 7q2 2 6 2q2 0 4 -2zM296 296q4 -2 4 -7l3 -163l-3 -58v-7q0 -3 -3 -5q-2 -3 -5 -3q-4 0 -7 3q-1 2 -1 5l-3 66l2 161l1 1q0 5 3 7q3 1 5 1t4 -1zM184.5 273q5.5 0 6.5 -6l5 -140l-5 -67q-1 -6 -6 -6
q-6 0 -6 6l-5 67l5 140q0 6 5.5 6zM561 211q33 0 56 -23.5t23 -55.5q0 -33 -23 -56t-56 -23h-218q-9 1 -9 10v249q0 7 8 10q24 9 50 9q55 0 94.5 -36.5t44.5 -90.5q15 7 30 7zM265 271q7 0 7 -8l4 -137l-4 -65q0 -8 -7 -8q-8 0 -8 8l-3 65l3 137q0 8 8 8zM211 279q6 0 7 -7
l4 -145l-4 -67q-1 -7 -7 -7t-6 7l-4 67l4 145q0 7 6 7zM238 275q7 0 7 -7l4 -141l-4 -67q0 -7 -7 -7t-7 7l-4 67l4 141q0 7 7 7z" />
    <glyph glyph-name="vine" unicode="VINE" horiz-adv-x="384" 
d="M384 193v-52q-27 -6 -52 -6q-25 -52 -64.5 -98t-60.5 -58t-43 1q-11 6 -24.5 18t-35 41.5t-40 67t-36.5 100.5t-28 138h74q13 -109 42.5 -178.5t72.5 -122.5q45 44 76 106q-37 19 -58.5 58t-21.5 88q0 50 27.5 82.5t74.5 32.5q40 0 64 -20.5t29 -50.5t2 -59t-13 -51
q-6 -1 -14 -2t-25 4t-25 18q8 27 8 49q0 46 -28 46q-14 0 -22.5 -13t-8.5 -37q0 -58 38 -86.5t92 -15.5z" />
    <glyph glyph-name="codepen" unicode="CODEPEN" horiz-adv-x="512" 
d="M502 288q10 -6 10 -18v-156q0 -12 -10 -18l-234 -156q-12 -8 -24 0l-234 156q-10 6 -10 18v156q0 12 10 18l234 156q12 8 24 0zM278 385v-103l95 -63l77 51zM234 385l-172 -115l77 -51l95 63v103zM44 229v-74l55 37zM234 -1v103l-95 63l-77 -51zM256 140l78 52l-78 52
l-78 -52zM278 -1l172 115l-77 51l-95 -63v-103zM468 155v74l-55 -37z" />
    <glyph glyph-name="jsfiddle" unicode="JSFIDDLE" horiz-adv-x="576" 
d="M511 211q34 -19 49.5 -53t6.5 -70q-4 -19 -14 -35t-24 -27.5t-32 -18t-38 -6.5q-35 -1 -252 -1q-74 0 -91 1q-36 1 -65.5 24t-39.5 57q-11 35 0.5 68.5t40.5 56.5q6 4 5 9q-6 49 33 77q38 28 85 9l8 -4q25 41 65 64q34 19 72.5 21.5t72.5 -10t61.5 -39.5t40.5 -64
q4 -9 9 -49q1 -8 7 -10zM532 54q29 36 18.5 80t-53.5 64q-10 5 -10 16q-1 30 -11.5 57t-27.5 45.5t-40.5 31t-48.5 17t-52 0t-50 -17.5q-40 -22 -61 -62q-2 -4 -4 -6t-4.5 -2h-3.5t-5 2.5t-5 3.5q-38 20 -72 -3q-35 -24 -27 -63q3 -15 -10 -23q-29 -19 -38.5 -52t4.5 -64
q27 -60 95 -60q164 -2 164 0h170q43 1 72 36zM444 134q-4 -23 -23.5 -39t-43.5 -16q-25 0 -44 18q-8 7 -44.5 45t-51.5 48q-30 23 -60 -4q-14 -12 -17 -28.5t4.5 -30t19.5 -23t28.5 -9t31.5 13.5q2 2 6 6.5t7 6.5q6 5 12 1.5t1 -12.5q-13 -19 -35 -27.5t-44 -1.5t-35.5 26
t-13.5 44q3 38 36 56q37 21 67 -2q26 -20 59 -56t48 -45q19 -12 38.5 -7t30.5 24q10 18 6 36.5t-18 29t-32 12.5t-35 -15q-1 -1 -5 -5.5t-6 -5.5q-8 -5 -12.5 0t-0.5 10q34 47 83 28q24 -8 36 -30t7 -48z" />
    <glyph glyph-name="rebel" unicode="REBEL" horiz-adv-x="512" 
d="M256 -56q-103 0 -174.5 75t-68.5 179q2 60 32 112.5t85 87.5h1q-4 -4 -13.5 -16.5t-22 -38t-18 -52.5t3 -60t36.5 -60q10 -10 20.5 -15.5t19 -6.5t16.5 0.5t14 4.5t10.5 6.5t6.5 5.5l3 3q8 10 12 22.5t4.5 24t-1 23.5t-4 22t-5.5 17.5t-5 11.5l-2 5q-4 11 -15.5 21
t-20.5 14l-10 5l29 32q7 -3 14 -8t12 -10.5t9 -10t6 -7.5l2 -3q1 13 -4.5 28.5t-11.5 24.5l-6 8l45 51l44 -50q-9 -13 -14.5 -28.5t-6.5 -24.5v-10q2 5 6 9.5t8 8.5t8.5 7.5t8 6t6.5 4.5t4 3l2 1l29 -32q-13 -4 -24 -14t-17 -18l-5 -8q-8 -16 -13 -37.5t-2 -47t16 -42.5
q6 -10 14.5 -14.5t16.5 -5t16.5 1.5t15.5 5.5t12.5 6.5t8.5 6l3 2q29 26 38.5 58.5t2.5 61t-18 53t-22 38.5l-11 14q1 2 1 3q25 -18 40 -31.5t35 -38t30 -58.5t11 -77q1 -109 -67 -179t-176 -70z" />
    <glyph glyph-name="empire" unicode="EMPIRE" horiz-adv-x="496" 
d="M288 394q-16 3 -34 3v19q58 -2 106.5 -30.5t78.5 -76.5l-16 -9q-10 16 -20 27l-18 -15q-41 46 -102 58zM53 126q7 -17 14 -32l-16 -9q-27 50 -27 107t27 106l16 -9q-8 -15 -14 -31l23 -7q-10 -28 -10 -59q0 -30 10 -59zM213 14l-5 -24q19 -3 34 -3v-19q-58 2 -107 30.5
t-78 76.5l16 9q8 -13 20 -27l18 16q41 -47 102 -59zM93 327q-10 -11 -20 -27l-16 9q30 48 78.5 76.5t106.5 30.5v-19q-18 0 -34 -3l5 -24q-61 -12 -102 -58zM403 57q12 14 20 27l16 -9q-29 -48 -78 -76.5t-107 -30.5v19q15 0 34 3l-5 24q61 12 102 59zM496 192
q0 -103 -72.5 -175.5t-175.5 -72.5t-175.5 72.5t-72.5 175.5t72.5 175.5t175.5 72.5t175.5 -72.5t72.5 -175.5zM484 192q0 98 -69 167t-167 69t-167 -69t-69 -167t69 -167t167 -69t167 69t69 167zM445 299q27 -50 27 -107t-27 -106l-16 9q8 14 14 31l-23 7q10 29 10 59
q0 31 -10 59l23 7q-6 16 -14 32zM262 121l13 -67q-14 -3 -27 -3t-27 3l13 67q-25 5 -40 23l-52 -44q-18 21 -27 46l64 22q-3 12 -3 24t3 24l-64 22q9 25 27 46l52 -44q16 18 40 23l-13 67q12 3 27 3q14 0 27 -3l-13 -67q24 -5 40 -23l52 44q18 -21 27 -46l-64 -22
q3 -12 3 -24t-3 -24l64 -22q-9 -25 -27 -46l-52 44q-16 -18 -40 -23z" />
    <glyph glyph-name="git-square" unicode="GIT&#x2d;SQUARE" 
d="M101 114q7 -1 20 -2q25 -1 32 -2.5t7 -7.5q0 -10 -16.5 -14t-33 0t-16.5 12q0 6 7 14zM129 230q14 0 20 -11t0 -22t-21 -11q-16 0 -22 11t0.5 22t22.5 11zM448 368v-352q0 -20 -14 -34t-34 -14h-352q-20 0 -34 14t-14 34v352q0 20 14 34t34 14h352q20 0 34 -14t14 -34z
M221 299q0 -23 23 -23t23 23q0 22 -23 22t-23 -22zM199 253h-49q-15 2 -33 2.5t-33.5 -12.5t-15.5 -37q0 -27 22 -38q-23 -21 -23 -31q0 -12 11 -16q-14 -14 -14 -26q0 -32 64 -32q22 0 37.5 5.5t23.5 15.5t8 25q0 23 -16 29t-64 9q-9 1 -14 1l8 14q10 -1 26.5 -2t32 10.5
t15.5 33.5q0 14 -9 26l23 1v22zM284 143l-13 2q-5 0 -5 5v105h-52l-3 -20q3 -1 7 -2q7 -3 8.5 -4t1.5 -4v-75q0 -4 -1.5 -4.5t-15.5 -2.5v-20h72zM384 133l-7 22q-14 -3 -22 -4t-11.5 4.5t-4 8.5t-0.5 7v1v61h38v25h-36q-2 0 -2 16v23h-24q-2 -21 -9.5 -30.5t-24.5 -11.5
v-22h10q10 0 10 -2v-1v-66q0 -22 9.5 -31.5t32.5 -9.5q20 0 41 10z" />
    <glyph glyph-name="git" unicode="GIT" horiz-adv-x="512" 
d="M216 290v-35l-37 -3q15 -19 15 -41t-10 -37.5t-24 -22.5t-31 -9.5t-30.5 -1.5t-23.5 3l-13 -21q8 -1 23 -2q28 -1 41 -2t31.5 -3.5t26 -6.5t16 -10.5t11 -16t2.5 -22.5q0 -35 -29 -54t-82 -19q-102 0 -102 50q0 21 22 42q-17 7 -17 27q0 10 7.5 19.5t29.5 29.5
q-35 17 -35 61q0 29 14.5 48t35 24t43 6.5t37.5 -3.5h79zM153 48q0 9 -11 11.5t-51 5.5q-6 0 -10 0.5t-10.5 0.5t-11.5 1q-11 -13 -11 -22q0 -14 26 -19.5t52.5 1t26.5 21.5zM102 182q25 0 34.5 18t0 35.5t-33.5 17.5t-34.5 -17.5t-1 -35.5t34.5 -18zM235 82v32q5 0 11 1
t8 1.5t4.5 1t3 1.5l1 2t0.5 4v119q0 6 -2.5 7.5t-25.5 9.5l5 33h84v-169q0 -5 1 -6.5t6 -1.5l20 -3v-32h-116zM288 326q-12 0 -20 4.5t-12.5 12.5t-4.5 20q0 35 37 35t37 -35q0 -18 -10 -27.5t-27 -9.5zM512 98q-33 -17 -66 -17q-36 0 -51.5 15.5t-15.5 50.5v106v1
q0 3 -2 3.5t-14 -0.5h-16v37q14 1 23.5 5.5t16 12.5t10 19.5t5.5 28.5h38q2 -62 4 -62h57v-41h-61v-97v-1q0 -5 0.5 -9t3.5 -11t8.5 -10t18 -2.5t30.5 6.5z" />
    <glyph glyph-name="hacker-news" unicode="HACKER&#x2d;NEWS" 
d="M0 416h448v-448h-448v448zM21 219zM239 165l81 155h-35q-24 -45 -35.5 -68.5t-17 -37.5t-7.5 -20q-2 5 -6.5 16t-8 19.5t-15 32.5t-30.5 58h-37l80 -153v-103h31v101z" />
    <glyph glyph-name="tencent-weibo" unicode="TENCENT&#x2d;WEIBO" horiz-adv-x="384" 
d="M72 -48q1 -15 -13.5 -16t-15.5 13q-9 95 18.5 175.5t82.5 137.5q-12 27 4 52.5t47 25.5q22 0 38.5 -16.5t16.5 -39.5q0 -33 -29.5 -48.5t-57.5 3.5q-107 -115 -91 -287zM192 448q69 0 118 -49t49 -118q0 -78 -61.5 -128.5t-142.5 -33.5q-15 4 -11.5 18t17.5 11
q62 -16 115 25t53 108q0 57 -40 97t-97 40q-37 0 -68 -18t-48 -46.5t-20.5 -64t14.5 -70.5q4 -8 -1 -15t-13 -7t-12 9q-23 40 -18.5 83t24 78.5t58 58t84.5 22.5z" />
    <glyph glyph-name="qq" unicode="QQ" 
d="M434 27.5q-3 -0.5 -9 5t-12 13t-11.5 15.5t-9.5 14l-3 5q0 -25 -13 -52.5t-38 -48.5q8 -3 15.5 -6t16.5 -7.5t13 -10.5t1 -11q-15 -8 -70 -8t-90 4q-35 -4 -89.5 -4t-70.5 8q-6 10 10 19t36 16q-25 21 -38 48.5t-13 52.5q-1 -1 -2 -3t-4.5 -7.5t-7.5 -10.5t-8.5 -11
t-8.5 -10.5t-7.5 -7.5t-6.5 -2q-3 0 -5 9.5t1.5 33.5t13.5 56q7 25 40 106q-3 94 37.5 154.5t122.5 60.5q81 0 122 -60t38 -155q33 -81 40 -106q10 -32 13.5 -56t1.5 -33.5t-5 -10z" />
    <glyph glyph-name="weixin" unicode="WEIXIN" horiz-adv-x="576" 
d="M385 280q-69 0 -117 -45t-48 -109q0 -20 6 -40q-10 -1 -18 -1q-19 0 -68 9l-68 -34l19 59q-78 55 -78 132q0 69 57 117t138 48q71 0 127.5 -39t68.5 -98q-9 1 -19 1zM281 333q-12 0 -21 -6.5t-9 -17.5t9 -17.5t21 -6.5q11 0 17.5 6.5t6.5 17.5t-6.5 17.5t-17.5 6.5z
M144 285q11 0 18 6.5t7 17.5t-7 17.5t-18 6.5t-20 -6.5t-9 -17.5t9 -17.5t20 -6.5zM563 129q0 -61 -68 -113l15 -48l-54 29q-40 -10 -58 -10q-70 0 -118 41.5t-48 100t48 100t118 41.5q66 0 115.5 -42t49.5 -99zM344 153q7 0 12.5 3t8.5 7.5t3 9.5q0 3 -1.5 6.5t-4.5 6.5
t-8 4.5t-10 1.5q-7 0 -13 -6t-6 -13q0 -4 1.5 -7.5t4 -6.5t6 -4.5t7.5 -1.5zM451 153q7 0 12.5 3t8.5 7.5t3 9.5q0 7 -7 13t-17 6q-7 0 -13 -6t-6 -13.5t6 -13.5t13 -6z" />
    <glyph glyph-name="slideshare" unicode="SLIDESHARE" horiz-adv-x="512" 
d="M187.5 294q25.5 0 43.5 -16.5t18 -40.5t-18 -41t-43.5 -17t-43.5 17t-18 41t18 40.5t43.5 16.5zM331.5 294q25.5 0 43.5 -16.5t18 -40.5t-18 -41t-43.5 -17t-44 17t-18.5 41t18.5 40.5t44 16.5zM488 204q11 8 17 0.5t-1 -18.5q-35 -42 -106 -72q30 -102 -24 -154
q-34 -33 -74 -22q-38 10 -37 52v4v8.5v12.5v15.5v17.5v18.5v17.5q-3 0 -7.5 1.5t-6.5 1.5v-17.5v-18.5v-18v-16.5v-13.5v-9v-4q1 -41 -37 -52q-40 -11 -74 22q-54 52 -23 155q-72 29 -107 72q-7 10 -1 17.5t17 -0.5q1 0 3.5 -1.5t3.5 -2.5v198q0 21 13.5 35.5t32.5 14.5h359
q12 0 22.5 -6.5t17 -18t6.5 -25.5v-198zM457 185v191q0 16 -4 26t-12.5 14.5t-24.5 4.5h-317q-24 0 -32.5 -9.5t-8.5 -35.5v-193q31 -16 64 -23t53.5 -6t40.5 1q19 1 27 -7q10 -10 20 -18q2 27 34 25q19 0 40 -1t55 6.5t65 24.5z" />
    <glyph glyph-name="twitch" unicode="Twitch" horiz-adv-x="512" 
d="M391 345v-110h-38v110h38zM285 345v-110h-39v110h39zM121 448h367v-256l-174 -165h-77l-97 -91v91h-116v330zM449 210v201h-309v-274h87v-64l68 64h77z" />
    <glyph glyph-name="yelp" unicode="Yelp" horiz-adv-x="384" 
d="M43 208l100 -49q14 -7 12.5 -23t-17.5 -20l-108 -26q-2 -1 -5 -1q-9 0 -15.5 6t-7.5 14q-1 11 -1 23q0 32 10 62q2 7 8.5 11.5t13.5 4.5q5 0 10 -2zM87 -32q-10 7 -10 19q0 9 6 16l74 82q11 12 25.5 6t14.5 -22l-4 -111q0 -9 -7 -15.5t-16 -6.5h-4q-43 8 -79 32zM232 78
q-8 14 2 26.5t25 7.5l105 -34q7 -2 11.5 -8.5t4.5 -13.5q0 -5 -2 -10q-8 -16 -23.5 -36t-29.5 -31q-6 -5 -15 -5q-12 0 -19 10zM381 211q2 -5 2 -10q0 -3 -1.5 -6.5t-4 -6.5t-5.5 -5.5t-6 -3.5l-107 -30q-15 -5 -24.5 8t-0.5 27l62 91q7 11 19 11q9 0 15 -6
q14 -12 28.5 -32.5t22.5 -36.5zM62 418q53 25 112 30h2q10 0 16.5 -6.5t6.5 -16.5v-208q0 -18 -17 -22.5t-26 10.5l-104 181q-3 5 -3 11q0 15 13 21z" />
    <glyph glyph-name="paypal" unicode="PAYPAL" horiz-adv-x="384" 
d="M111 152q0 -4 -2 -14.5t-4 -23t-4 -27t-4 -27.5t-4 -24.5t-3 -17.5q-1 -2 -3 -2h-75q-5 0 -9 4t-3 10l59 371q1 8 6.5 12.5t13.5 4.5q28 0 64 0.5t48.5 0.5t30.5 -0.5t25.5 -2t16.5 -3.5t19 -6q42 -17 52 -56.5t-8 -83.5q-31 -89 -140 -91q-8 0 -23.5 0.5t-21 0t-14 -2.5
t-12 -7.5t-5.5 -14.5zM357 296q36 -27 24 -93q-22 -112 -143 -112h-4.5h-4.5h-4t-4 -0.5l-3 -1.5t-3 -2.5t-2.5 -3.5t-2.5 -5t-1 -7q-14 -87 -15 -91q-3 -15 -17 -15h-64q-5 0 -8 4t-2 9q4 30 27 170q1 9 11 9h17h21.5t21.5 1t24 3t23 5.5t24 9t21.5 13t20.5 18t16.5 24
t14.5 30.5q6 18 9 34q1 3 3 1z" />
    <glyph glyph-name="google-wallet" unicode="GOOGLE&#x2d;WALLET" 
d="M157 321q53 -85 84 -162q-12 -50 -31 -99q-25 99 -56 149q2 13 3 28t0.5 27t-0.5 29v28zM109 248q8 0 13 -6q55 -76 83 -194h-104q-31 110 -91 187q-3 4 -1 8.5t7 4.5h93zM157 336h109q126 -174 143 -368h-114q-10 166 -138 368zM409 404q31 -110 31 -212
q0 -106 -25 -203q-17 138 -91 271q-6 74 -26 146q-1 4 1 7t6 3h89q12 0 15 -12z" />
    <glyph glyph-name="cc-visa" unicode="CC&#x2d;VISA" horiz-adv-x="576" 
d="M470 217q8 -38 9 -45h-33l16 43l1 2.5t2 6.5t2 6zM576 368v-352q0 -20 -14 -34t-34 -14h-480q-20 0 -34 14t-14 34v352q0 20 14 34t34 14h480q20 0 34 -14t14 -34zM152 117l64 155h-43l-39 -106l-4 22l-14 71q-3 12 -19 13h-64l-1 -3q23 -6 42 -17l36 -135h42zM247 117
l25 155h-40l-25 -155h40zM387 167q0 26 -34 43q-23 11 -23 19q1 13 24 13q15 1 29 -6l4 -1l5 33q-16 7 -36 7q-19 0 -34.5 -6.5t-24 -18.5t-8.5 -26q-1 -25 35 -43q21 -10 21 -19q-1 -15 -24 -15q-19 0 -38 8l-5 3l-6 -35q17 -8 45 -9q31 0 50.5 14.5t19.5 38.5zM528 117
l-32 155h-32q-15 0 -20 -13l-60 -142h42q7 19 8 23h52l5 -23h37z" />
    <glyph glyph-name="cc-mastercard" unicode="CC&#x2d;MASTERCARD" horiz-adv-x="576" 
d="M483 37.5q0 -11.5 -11.5 -11.5t-11.5 11.5t11.5 11.5t11.5 -11.5zM172 49q11 0 11 -11.5t-11 -11.5t-11 11.5t11 11.5zM289.5 50q8.5 0 9.5 -9h-19q1 9 9.5 9zM397 49q12 0 12 -11.5t-12 -11.5q-11 0 -11 11.5t11 11.5zM503 23q1 0 1 -1l-0.5 -0.5l-0.5 -0.5v-1h-1h-1h-1
h-1l-1 1v1.5v0.5q0 1 1 1v1h1h1h1l1 -1v-1zM501 22h1v1v1h-1h-2v-3h1v1l1 -1h1zM576 367v-352q0 -20 -14 -34t-34 -14h-480q-20 0 -34 14t-14 34v352q0 20 14 34t34 14h480q20 0 34 -14t14 -34zM64 227.5q0 -57.5 40.5 -98t97.5 -40.5q42 0 77 23q-55 45 -54.5 115.5
t54.5 114.5q-35 24 -77 24q-57 0 -97.5 -40.5t-40.5 -98zM288 119q53 41 53 108.5t-53 108.5q-53 -41 -53 -108.5t53 -108.5zM146 42q0 15 -15 15q-9 0 -13 -7q-4 7 -12 7q-7 0 -11 -5v4h-8v-37h8v7.5v7v5.5t1 4.5l2 3t2.5 2.5t3.5 1q6 0 7.5 -5t1.5 -17v-9h7v7.5v7t0.5 5.5
t1 4.5t1.5 3t2.5 2.5t4.5 1q5 0 6.5 -5t1.5 -17v-9h8v23zM191 56h-8v-4q-5 5 -12 5q-8 0 -13 -5.5t-5 -14t5 -14t13 -5.5t12 6v-5h8v37zM231 30q0 9 -11.5 11t-11.5 5q0 4 7 4t12 -3l3 6q-7 6 -18.5 4t-11.5 -12q0 -8 11.5 -10.5t11.5 -4.5q0 -5 -8 -5t-13 4l-4 -6
q9 -6 21 -4t12 11zM266 21l-2 7q-12 -7 -12 4v17h13v7h-13v11h-8v-11h-8v-7h8v-17q0 -12 9.5 -13.5t12.5 2.5zM280 34h27q0 23 -17 23q-8 0 -13 -5.5t-5 -13.5q0 -15 12.5 -19t21.5 5l-4 6q-6 -6 -13.5 -4.5t-8.5 8.5zM339 56q-10 4 -15 -4v4h-8v-37h8v21q0 8 5 9.5t7 -1.5z
M350 37.5q0 8.5 6.5 11t13.5 -2.5l4 7q-9 7 -21 2.5t-12 -17.5q0 -14 12.5 -18.5t20.5 3.5l-4 6q-7 -5 -13.5 -2.5t-6.5 11zM416 56h-8v-4q-6 8 -18 3.5t-12 -17.5q0 -14 12 -18.5t18 4.5v-5h8v37zM450 56q-10 5 -15 -4v4h-8v-37h8v21q0 7 5 9t8 -1zM490 71h-8v-19
q-6 8 -18 3.5t-12 -18t12.5 -18t17.5 4.5v-5h8v52zM498 146v-5h1v5h1v1h-4v-1h2zM504 22v2l-1 1l-1 1h-1h-1h-1l-1 -1l-1 -1v-2v-1q0 -1 1 -1q1 -1 1.5 -1h1.5h1l0.5 0.5l0.5 0.5l0.5 0.5l0.5 0.5v1zM508 147h-2l-1 -4l-2 4h-1v-5v4l2 -4h1l1 4v-4h2v5zM512 227
q0 58 -40.5 98.5t-97.5 40.5q-42 0 -77 -23q54 -45 54.5 -115.5t-54.5 -115.5q35 -23 77 -23q57 0 97.5 40.5t40.5 97.5z" />
    <glyph glyph-name="cc-discover" unicode="Cc&#x2d;discover" horiz-adv-x="576" 
d="M520 252q0 -13 -15 -13h-5v25h5q15 0 15 -12zM528 416q20 0 34 -14t14 -34v-352q0 -20 -14 -34t-34 -14h-480q-20 0 -34 14t-14 34v352q0 20 14 34t34 14h480zM484 277v-82h16v33h2l22 -33h20l-26 35q19 3 19 23q0 6 -1.5 10t-5.5 7t-7 4.5t-9.5 2t-9 0.5h-10.5h-10z
M428 277v-82h45v14h-29v22h28v14h-28v18h29v14h-45zM359 277h-17l35 -84h8l36 84h-18l-22 -55zM303.5 280q-18.5 0 -31.5 -13t-13 -31.5t13 -31.5t31.5 -13t31.5 13t13 31.5t-13 31.5t-31.5 13zM254 274q-16 7 -30 4t-23.5 -15t-9.5 -27q0 -12 5.5 -22t14.5 -15t20.5 -6
t22.5 5v19q-14 -14 -30.5 -7t-16.5 26q0 18 16 25.5t31 -6.5v19zM157 208q-12 0 -18 10l-10 -10q13 -19 35 -14.5t22 26.5q0 10 -5 15t-19 10q-12 5 -12 11q0 7 8.5 8.5t16.5 -6.5l8 11q-14 13 -32 8t-18 -22q0 -16 21 -23q11 -4 14 -10t-1 -10t-10 -4zM55 195
q22 0 33.5 12.5t11.5 28.5q0 12 -6 21.5t-16 14.5t-23 5h-23v-82h23zM123 195v82h-16v-82h16zM544 15v145q-51 -32 -172.5 -84.5t-243.5 -75.5h401q6 0 10.5 4.5t4.5 10.5zM74 256q9 -7 9 -20t-9 -21q-7 -6 -22 -6h-4v54h4q15 0 22 -7z" />
    <glyph glyph-name="cc-amex" unicode="Cc&#x2d;amex" horiz-adv-x="576" 
d="M325 280q0 -14 -12 -18q11 -4 11 -19v-13h-16v6.5v6.5t-1 4.5t-2.5 4t-4.5 2.5t-7 1h-18v-25h-16v69h39q27 0 27 -19zM296 269q11 0 11 8q0 7 -11 7h-21v-15h21zM279 179q28 0 28 -22q0 -6 -1.5 -10.5t-5 -7t-7 -4t-9 -2t-8.5 -0.5h-9.5h-8.5v-23h-33l-20 23l-21 -23h-66
v69h67l20 -22l21 22h53zM175 125l19 20l-18 20h-41v-12h36v-15h-36v-13h40zM241 116v56l-25 -27zM279 148q10 0 10 9q0 8 -10 8h-21v-17h21zM247 284h-39v-12h38v-14h-38v-14h39v-14h-55v69h55v-15zM576 193zM381 161q0 -14 -11 -19q10 -4 10 -18v-14h-16v12q0 5 -1.5 8
t-4.5 4t-9 1h-17l-1 -25h-16v69h39q27 0 27 -18zM352 150q11 0 11 8q0 7 -11 7h-20v-15h20zM179 230h-16v54l-24 -54h-15l-24 54v-54h-34l-6 15h-35l-6 -15h-18l30 69h24l28 -66v66h27l22 -47l20 47h27v-69zM31 259h23l-12 28zM509 100h18h17t12.5 0.5t11.5 2t8 3.5v-90
q0 -20 -14 -34t-34 -14h-480q-20 0 -34 14t-14 34v204h27q2 6 6 15h19q4 -9 7 -15h53v11q1 -2 5 -11h29q1 2 2 3.5t1.5 3.5t1.5 4v-11h136v25h9q0 -11 1 -25h66v9q11 -9 30 -9h27q2 6 6 15h19q3 -7 3 -8q1 0 1.5 -2t2.5 -5h52v22q7 -12 9.5 -15.5t4.5 -6.5h41v92h-40v-19
q-5 9 -11 19h-43v-21q-3 8 -9 21h-32h-3h-27q-19 0 -31 -9v9h-40v-5q-2 1 -3.5 1.5t-4 1t-4 1t-5 1t-6 0.5h-8h-9h-11.5h-13h-12h-103q-5 -12 -12 -30q-2 3 -7.5 15t-6.5 15h-46v-21q-5 10 -6.5 13.5t-2.5 7.5h-40q-2 -4 -10 -23t-13 -31v110q0 20 14 34t34 14h480
q20 0 34 -14t14 -34v-175h-10q-35 0 -44 -5v5h-20h-15t-10 -0.5t-8.5 -1t-6 -1.5t-5.5 -3v6h-79v-5q-2 1 -4 1.5t-4.5 1.5t-6 1t-6.5 0.5t-9.5 0.5h-11.5h-15h-18v-6q-10 6 -25 6h-58q-1 -2 -3 -4.5t-4.5 -4.5t-4.5 -5t-3 -4q-4 5 -7 8l-4 4t-2 2.5t-3 3.5h-83v-93h82
q6 7 16 18q7 -8 10 -11.5t6 -6.5h48q0 8 0.5 12t0.5 11q23 0 34 7v-16v-14h39v13.5v12.5h10v-4v-22q147 0 153 3q1 0 4 2v-5zM545 165q-9 0 -9 -7q0 -5 7.5 -5.5t17.5 -1t14 -6.5v-26q-6 -9 -23 -9h-32l1 15h32q8 0 8 6q0 5 -6.5 6t-14.5 1t-15 5t-7 16q0 20 24 20h33v-14
h-30zM488 125q9 0 9 6q0 5 -7 6.5t-15 1t-14.5 4.5t-6.5 16q0 21 24 21h33v-15h-31q-9 0 -9 -7q0 -4 7 -5t15 -0.5t14.5 -4.5t6.5 -16q0 -22 -26 -22h-32v15h32zM446 165h-39v-12h38v-15h-38v-13l39 -1v-14h-56v69h56v-14zM389 273q1 1 8 1h1h2l-8 -17q-2 0 -3 1t-1 7.5
t1 7.5zM410 284zM394 299h16v-15h-6.5h-6.5h-5.5t-5 -1t-4 -2.5t-3.5 -3.5t-1.5 -5.5t-0.5 -7.5q0 -20 16 -20h7l24 55h24l28 -66v66h26l29 -49v49h17v-69h-24l-31 52v-52h-34l-7 15h-34l-6 -15h-19q-33 0 -33 34q0 35 34 35zM436 287l-12 -28h23zM335 299h17v-69h-17v69z
" />
    <glyph glyph-name="cc-paypal" unicode="CC&#x2d;PAYPAL" horiz-adv-x="576" 
d="M186 190q0 -9 -6 -15.5t-16 -6.5q-16 0 -16 15q0 9 6.5 15.5t15.5 6.5q16 0 16 -15zM80 238q11 0 15.5 -2.5t2.5 -12.5q-2 -14 -22 -14h-8l5 27q0 2 3 2h4zM364 238q18 0 19 -11q0 -18 -22 -18h-8l4 27q0 2 3 2h4zM576 368v-352q0 -20 -14 -34t-34 -14h-480q-20 0 -34 14
t-14 34v352q0 20 14 34t34 14h480q20 0 34 -14t14 -34zM128 233q0 28 -34 28h-40q-5 0 -6 -5l-16 -102q-1 -4 3 -4h19q5 0 6 6l4 26q0 2 1.5 3.5t4 1.5h4.5h4.5h3.5q22 0 34 12t12 34zM212 224h-18q-4 0 -5 -8q-7 10 -23 10q-18 0 -31 -13.5t-13 -32.5q0 -14 9 -23t23 -9
q16 0 27 12q-1 -3 -1 -6q0 -4 3 -4h17q4 0 6 6l10 64q0 4 -4 4zM253 126l64 92v2q0 4 -3 4h-19q-3 0 -5 -3l-26 -39l-11 38q-2 4 -6 4h-18q-4 0 -4 -4l5 -14.5t10.5 -30t6.5 -17.5q-21 -29 -21 -32t3 -3h19q3 0 5 3zM412 233q0 28 -34 28h-40q-5 0 -6 -5l-16 -102q0 -4 3 -4
h21q3 0 4 3l4 29q1 2 2.5 3.5t3.5 1.5h4h5h3q22 0 34 12t12 34zM496 224h-18q-4 0 -5 -8q-6 10 -23 10q-19 0 -31.5 -13.5t-12.5 -32.5q0 -14 8.5 -23t23.5 -9q16 0 26 12v-6q0 -4 3 -4h17q4 0 6 6l10 64q0 4 -4 4zM544 257q0 4 -3 4h-19q-3 0 -3 -3l-16 -104v-1q0 -3 3 -3
h17q4 0 5 6zM454 205q16 0 16 -15q0 -9 -6 -15.5t-16 -6.5q-16 0 -16 15q0 10 6.5 16t15.5 6z" />
    <glyph glyph-name="cc-stripe" unicode="Cc&#x2d;stripe" horiz-adv-x="576" 
d="M492 227q8 0 13 -5.5t5 -17.5h-36q0 8 2.5 13.5t7 7.5t8.5 2zM375 225q6 0 11 -4.5t8 -12t3 -16.5q0 -15 -6 -24.5t-16 -9.5t-17 7v53q6 7 17 7zM528 416q20 0 34 -14t14 -34v-352q0 -20 -14 -34t-34 -14h-480q-20 0 -34 14t-14 34v352q0 20 14 34t34 14h480zM122 167
q0 18 -13.5 27.5t-27 13.5t-13.5 10q0 7 12 7q18 0 35 -9v34q-16 6 -35 6q-14 0 -25 -4.5t-17 -14t-6 -21.5q0 -17 13.5 -26t27 -13.5t13.5 -10.5q0 -9 -14 -9q-17 0 -38 12v-34q18 -8 38 -8q23 0 36.5 10.5t13.5 29.5zM191 224v30h-27v31l-35 -8v-114q0 -15 10.5 -25.5
t26.5 -10.5q17 0 25 5v28q-3 -3 -15 -1.5t-12 14.5v51h27zM265 221v33q-20 7 -30 -11l-2 11h-31v-125h36v85q10 13 27 7zM309 129v125h-36v-125h36zM309 272v29l-36 -7v-29zM383 127q21 0 35 16.5t14 48.5q0 30 -14.5 47t-34.5 17q-15 0 -27 -11l-2 9h-32v-166l36 8v40
q13 -9 25 -9zM544 178v13q0 29 -13.5 47t-37.5 18q-13 0 -23 -5t-17 -13.5t-11 -20.5t-4 -26q0 -21 8 -35.5t21 -21.5t30 -7q23 0 40 9v29q-16 -8 -35 -8q-26 0 -28 21h70z" />
    <glyph glyph-name="lastfm" unicode="LASTFM" horiz-adv-x="512" 
d="M226 81q-1 -1 -4 -3.5t-12 -7.5t-19 -9t-27.5 -7.5t-35.5 -3.5q-62 0 -95 35t-33 102q0 70 34 108.5t98 38.5q23 0 41.5 -3.5t31.5 -9t24.5 -17t18.5 -20t15 -27t11.5 -29.5t11.5 -35q5 -14 7 -22q8 -23 18.5 -38.5t31 -25.5t48.5 -10q61 0 61 31q0 6 -1.5 11.5t-6.5 9.5
t-9 6.5t-13 5.5t-14 4.5t-18 4t-18 4.5q-68 16 -68 76q0 45 30 64.5t75 19.5q94 0 101 -74l-59 -7q-3 35 -46 35q-13 0 -22 -3.5t-14 -10.5t-5 -17q0 -14 7 -22t26 -12q2 -1 16 -4t16.5 -3.5t15 -4t16 -5.5t13.5 -6.5t13 -8.5t9.5 -10.5t9 -13.5t4.5 -16.5t2 -19.5
q0 -81 -122 -81q-70 0 -104.5 27t-50.5 75q-3 9 -9.5 29t-8.5 27t-8 22.5t-10 20.5t-11 14.5t-14.5 12.5t-17.5 6t-22 3q-31 0 -51.5 -23.5t-20.5 -74.5q0 -27 8.5 -48t24.5 -32t36 -11t39 8.5t28 16.5l9 9z" />
    <glyph glyph-name="lastfm-square" unicode="LASTFM&#x2d;SQUARE" 
d="M400 416q20 0 34 -14t14 -34v-352q0 -20 -14 -34t-34 -14h-352q-20 0 -34 14t-14 34v352q0 20 14 34t34 14h352zM308 103q76 0 76 51q0 6 -1.5 12t-2.5 10.5t-5.5 8.5t-6.5 6.5t-8 5.5l-8 4t-10 3t-9.5 2.5t-11 2.5l-9.5 2q-21 5 -21 21q0 20 26 20q27 0 29 -22l36 4
q-4 47 -62 47q-29 0 -47.5 -12.5t-18.5 -40.5q0 -37 43 -48q3 0 8 -1t8 -2t7 -2t6.5 -2t5.5 -2t5 -2.5l4 -3t3 -3.5t2 -4.5t1 -5.5q0 -19 -38 -19q-46 0 -62 46q-1 3 -5.5 17t-5.5 17t-5.5 14.5t-6.5 14t-7 11t-9 10.5t-11 7t-14 6.5t-16 3t-20 1.5q-40 0 -61.5 -24
t-21.5 -68q0 -28 9.5 -47t27 -29t43.5 -10q18 0 33.5 5t21.5 10l6 4l-11 32q-20 -21 -48 -21q-19 0 -31 15.5t-12 41.5q0 32 13 47t32 15q7 0 13.5 -2t11 -4t9 -8t7 -9.5t6 -13t5 -13.5t5.5 -17t6 -18q3 -11 8 -20t12.5 -17.5t18 -14t25 -9t33.5 -3.5z" />
    <glyph glyph-name="ioxhost" unicode="IOXHOST" horiz-adv-x="640" 
d="M616 288q10 0 17 -7t7 -17t-7 -17t-17 -7h-53q5 -23 5 -48q0 -103 -72.5 -175.5t-175.5 -72.5q-76 0 -138 42t-91 110h-67q-10 0 -17 7t-7 17t7 17t17 7h53q-5 23 -5 48q0 103 72.5 175.5t175.5 72.5q76 0 138 -42t91 -110h67zM520 192q0 24 -6 48h-298q-10 0 -17 7
t-7 17t7 17t17 7h280q-26 47 -73 75.5t-103 28.5q-83 0 -141.5 -58.5t-58.5 -141.5q0 -24 6 -48h298q10 0 17 -7t7 -17t-7 -17t-17 -7h-280q26 -47 73 -75.5t103 -28.5q83 0 141.5 58.5t58.5 141.5zM216 216h208q10 0 17 -7t7 -17t-7 -17t-17 -7h-208q-10 0 -17 7t-7 17
t7 17t17 7z" />
    <glyph glyph-name="angellist" unicode="ANGELLIST" 
d="M347 233q33 -8 44 -32t11 -62q0 -88 -52.5 -145.5t-138.5 -57.5q-70 0 -117.5 46t-47.5 103t51 71q-8 22 -8 30q0 18 15.5 35.5t33.5 17.5q8 0 20 -5q-47 133 -47 162q0 11 3 20.5t8.5 16.5t14 11t20.5 4q37 0 92 -166q2 -5 3 -6q1 2 10 27.5t17 44t19.5 42t24.5 36.5
t26 13q20 0 31.5 -14t11.5 -35q0 -31 -45 -157zM312 340l-33 -94l34 -6q47 130 47 148q0 16 -11 16q-16 0 -37 -64zM142 400q0 -29 46 -149q6 4 35 1l-34 101q-23 67 -39 62q-8 -2 -8 -15zM140 204q-4 0 -8.5 -3.5t-8 -8.5t-3.5 -9q0 -17 30.5 -57.5t45.5 -40.5q5 0 8 4t3 8
q0 15 -24 61t-43 46zM324 18q26 28 36.5 68t7.5 69t-13 37q-16 14 -60.5 22t-77.5 8q-8 0 -12 -2.5t-4.5 -4.5t-0.5 -7q0 -40 114 -39h6q15 0 17 -21q-8 -8 -27 -16q-19 -7 -27 -13q-19 -13 -31.5 -32.5t-12.5 -39.5q0 -8 5.5 -24.5t5.5 -25.5l-1 -3.5l-1 -3.5q-40 2 -42 61
h-12q4 -14 -7.5 -28t-30.5 -14q-30 0 -54.5 32.5t-3.5 54.5q6 -9 14 -19.5t11.5 -15t8.5 -9.5t8.5 -6.5t8.5 -1.5q3 0 7.5 2.5t4.5 6.5q0 10 -23 41.5t-32 31.5q-15 0 -23 -18t3 -51q17 -41 50.5 -64.5t78.5 -23.5q65 0 109 49zM226 144q7 -20 9 -25q11 12 20 19z" />
    <glyph glyph-name="buysellads" unicode="BUYSELLADS" 
d="M224 297l43 -160h-86zM448 368v-352q0 -20 -14 -34t-34 -14h-352q-20 0 -34 14t-14 34v352q0 20 14 34t34 14h352q20 0 34 -14t14 -34zM383 43l-95 298h-128l-95 -298h91l112 91l24 -91h91z" />
    <glyph glyph-name="connectdevelop" unicode="CONNECTDEVELOP" horiz-adv-x="576" 
d="M550 207q12 -2 12 -15q0 -12 -12 -15l-55 -95q1 -3 1 -5q0 -12 -12 -15l-52 -90q1 -2 1 -4q0 -4 -2 -7.5t-5.5 -5.5t-7.5 -2q-7 0 -11 4h-107q-5 -5 -12 -5t-12 5h-106q-5 -5 -12 -5q-6 0 -10.5 4.5t-4.5 10.5q0 2 1 6l-52 89q-12 3 -12 15q0 2 1 5l-55 95q-12 3 -12 15
q0 13 12 15l54 92q0 1 -0.5 1.5l-0.5 0.5q0 10 9 14l56 97q-1 3 -1 5q0 4 2.5 7.5t6 5.5t7.5 2q7 0 11 -6h106q5 6 12 6t12 -6h106q5 6 12 6q4 0 7.5 -2t5.5 -5.5t2 -7.5q0 -2 -1 -5l56 -96q6 0 10 -4.5t4 -10.5q0 -3 -2 -7zM154 -3v76h-44zM154 81v51l-45 -48q1 -2 1 -3h44
zM154 144v92l-51 52q-3 -2 -7 -2l-52 -90v-4q0 -2 -1 -4l56 -96l4 -2zM154 246v72l-44 -16v-1q0 -4 -2 -8zM154 326v60l-44 -75zM480 287v1l-98 -102l64 -67l35 167zM292 93l-12 -12h23zM291 104l80 82l-83 88l-80 -84zM297 98l17 -17h124l6 28l-68 71zM410 404l-117 -124
l83 -88l98 101q-2 4 -2 8v1l-58 100q-1 1 -4 2zM401 406h-4l-166 -60l57 -61zM278 406h-104l51 -54l148 54h-75q-4 -5 -10 -5t-10 5zM162 400v-71l54 20l-51 54q-1 0 -2 -1zM162 321v-83l41 -43l79 85l-60 63zM162 228v-76l36 38zM162 140v-59h107l17 18l-82 86zM169 -22h1
l91 95h-99v-90l1 -1q3 -1 6 -4zM298 -22h105l-92 95h-38l-92 -95h97q4 5 10 5t10 -5zM418 -10l18 83h-115l90 -92q2 1 3 2zM431 12l35 61h-22zM466 81q0 2 1 3l-17 18l-4 -21h20zM532 189v3t1 5l-46 79l-35 -164l21 -22q1 1 4 2z" />
    <glyph glyph-name="dashcube" unicode="DASHCUBE" 
d="M327 344l102 104v-427q0 -37 -26.5 -61t-64.5 -24h-228q-38 0 -64.5 24t-26.5 61v229q0 39 26.5 66.5t64.5 27.5h217zM154 32v-1h224l-51 53v123q0 9 -4.5 16.5t-12 12t-15.5 4.5h-141q-13 0 -22.5 -10t-9.5 -23v-143q0 -13 9.5 -22.5t22.5 -9.5z" />
    <glyph glyph-name="forumbee" unicode="FORUMBEE" 
d="M6 138q-6 26 -6 52q0 92 65.5 157.5t157.5 65.5q24 0 49 -5q-92 -36 -162 -106.5t-104 -163.5zM399 328q-113 -33 -196.5 -117.5t-116.5 -198.5q-24 19 -45 49q33 112 115.5 195.5t194.5 116.5q27 -19 48 -45zM414 75q18 -48 34 -110q-55 14 -107 34q-40 -25 -85 -32
q67 125 188 191q-6 -45 -30 -83zM444 220q-85 -35 -150 -101t-100 -152q-31 4 -57 15q34 104 111 182.5t180 112.5q12 -27 16 -57z" />
    <glyph glyph-name="leanpub" unicode="LEANPUB" horiz-adv-x="576" 
d="M387 337l15 -249h-11q-56 1 -103 -28q-45 28 -103 28q-56 0 -123 -28l31 258q44 19 92 19q61 0 103 -43q41 41 99 43zM569 0q-36 0 -70 16q-55 25 -108 25q-62 0 -103 -41q-41 41 -103 41q-53 0 -108 -25q-35 -16 -69 -16h-1l42 349q62 35 133 35q64 0 106 -29
q42 29 106 29q71 0 133 -35zM526 45l-34 280q-47 21 -101 21q-62 0 -103 -38q-41 38 -103 38q-54 0 -101 -21l-34 -280q29 12 45.5 18t41 10.5t48.5 4.5q56 0 103 -29q47 29 103 29q35 0 63.5 -8t71.5 -25z" />
    <glyph glyph-name="sellsy" unicode="SELLSY" horiz-adv-x="640" 
d="M540 211q41 -10 67.5 -43.5t26.5 -76.5q0 -51 -36.5 -87t-86.5 -36h-382q-50 0 -86.5 36t-36.5 87q0 36 19.5 66t51.5 45q-3 11 -3 23q0 23 11 42t30.5 30.5t42.5 11.5q31 0 55 -21q14 56 59.5 92t103.5 36q69 0 118.5 -49.5t49.5 -118.5q0 -20 -4 -37zM200 46v111
q0 7 -4.5 11.5t-10.5 4.5h-31q-7 0 -11.5 -4.5t-4.5 -11.5v-111q0 -6 4.5 -10.5t11.5 -4.5h31q6 0 10.5 4.5t4.5 10.5zM289 46v132q0 6 -4.5 10.5t-10.5 4.5h-31q-6 0 -10.5 -4.5t-4.5 -10.5v-132q0 -6 4.5 -10.5t10.5 -4.5h31q6 0 10.5 4.5t4.5 10.5zM379 46v163
q0 4 -2 7.5t-5.5 5.5t-7.5 2h-31q-7 0 -11.5 -4.5t-4.5 -10.5v-163q0 -6 4.5 -10.5t11.5 -4.5h31q6 0 10.5 4.5t4.5 10.5zM466 46v225q0 6 -4.5 11t-10.5 5h-29q-6 0 -10.5 -5t-4.5 -11v-225q0 -6 4.5 -10.5t10.5 -4.5h29q6 0 10.5 4.5t4.5 10.5z" />
    <glyph glyph-name="shirtsinbulk" unicode="SHIRTSINBULK" 
d="M100 38l4 10l31 -14l-4 -10zM139 20l5 10l30 -13l-4 -10zM312 34l30 14l4 -10l-30 -14zM179 3l5 10l30 -14l-5 -10zM60 55l5 10l30 -14l-4 -9zM272 17l30 13l5 -10l-31 -13zM232 -1l31 14l5 -10l-31 -14zM351 51l31 14l4 -10l-31 -13zM170 401v-10h-34v10h34zM123 401
v-10h-34v10h34zM76 401v-10h-34v10h34zM217 401v-10h-33v10h33zM312 401v-10h-34v10h34zM359 401v-10h-34v10h34zM264 401v-10h-33v10h33zM406 401v-10h-34v10h34zM53 97v-34h-11v34h11zM123 313v-11h-34v11h34zM53 302v-23h-11v34h34v-11h-23zM222 74q-38 0 -65 26.5
t-27 64.5t27 64.5t65 26.5t64.5 -26.5t26.5 -64.5t-26.5 -64.5t-64.5 -26.5zM174 185q0 -15 12 -21t26.5 -5t26.5 -1.5t12 -10.5q0 -15 -33 -15q-28 0 -36 15l-9 -18q19 -12 47 -12q19 0 35 7t16 24q0 16 -12.5 23t-27 6t-27 0.5t-12.5 8.5q0 15 30 15q27 0 36 -13h1l8 16
q-29 12 -44 12q-12 0 -22 -2t-18.5 -9.5t-8.5 -19.5zM53 270v-34h-11v34h11zM395 63v34h11v-34h-11zM53 140v-33h-11v33h11zM0 444h448v-406l-226 -98l-222 98v406zM419 57v270h-390v-270l193 -85zM419 356v59h-390v-59h390zM53 226v-33h-11v33h11zM53 183v-33h-11v33h11z
M170 313v-11h-34v11h34zM395 150v33h11v-33h-11zM395 193v33h11v-33h-11zM217 313v-11h-33v11h33zM395 236v34h11v-34h-11zM395 106v34h11v-34h-11zM264 313v-11h-33v11h33zM312 313v-11h-34v11h34zM395 279v23h-23v11h34v-34h-11zM359 313v-11h-34v11h34z" />
    <glyph glyph-name="simplybuilt" unicode="Simplybuilt" horiz-adv-x="512" 
d="M481 384q11 0 19 -7.5t8 -18.5v-332q0 -11 -8 -18.5t-19 -7.5h-450q-11 0 -19 7.5t-8 18.5v332q0 11 8 18.5t19 7.5h106q7 0 13 -3.5t9.5 -9.5t3.5 -13v-40h186v40q0 11 7.5 18.5t18.5 7.5h106zM149.5 92q27.5 0 47 19.5t19.5 47t-19.5 47t-47 19.5t-47 -19.5t-19.5 -47
t19.5 -47t47 -19.5zM362.5 92q27.5 0 47 19.5t19.5 47t-19.5 47t-47 19.5t-47 -19.5t-19.5 -47t19.5 -47t47 -19.5z" />
    <glyph glyph-name="skyatlas" unicode="SKYATLAS" horiz-adv-x="640" 
d="M640 119q0 -49 -34 -82t-84 -33q-29 0 -56 11t-47 28.5t-40.5 40t-37 46t-37 45.5t-40 40t-46 28.5t-55.5 10.5q-42 0 -70.5 -22t-35 -53t0.5 -62t37 -53t73 -22q67 0 126 42l4.5 4.5t6.5 6t6 4.5t5 2q5 0 8 -3.5t3 -7.5q0 -8 -18 -24q-32 -28 -73.5 -45t-81.5 -17
q-64 0 -109 41t-45 104q0 42 20.5 76.5t55.5 53.5t77 19q33 0 63 -10.5t52 -27.5t44 -39t39 -45.5t36.5 -45.5t38 -39t41.5 -28t48 -11q28 0 47 14.5t23.5 35t0 41t-23 35t-44.5 14.5q-9 0 -25.5 -5.5t-21.5 -5.5q-6 0 -11 4.5t-5 10.5t3 18t3 18q0 50 -33.5 82.5
t-83.5 32.5q-24 0 -44 -9t-31.5 -18.5t-13.5 -9.5q-5 0 -8 3.5t-3 8.5t8 14q38 44 102 44q30 0 55.5 -10.5t44 -29t29 -44t10.5 -54.5q0 -12 -1 -21q18 5 36 5q46 0 79 -31t33 -76z" />
    <glyph glyph-name="pinterest-p" unicode="PINTEREST&#x2d;P" horiz-adv-x="384" 
d="M204 442q73 0 126.5 -46t53.5 -119q0 -36 -9.5 -70t-27.5 -63t-48.5 -46t-68.5 -17q-20 0 -40 9.5t-29 26.5l-8.5 -34t-7 -28.5t-6 -21.5t-8 -21.5t-10 -18.5t-14 -23t-18.5 -26q-3 -2 -3.5 -2t-3.5 3q-4 48 -4 57q0 27 6.5 61.5t20 86.5t15.5 61q-10 19 -10 51
q0 48 37 64q30 13 48 -9q9 -12 9 -30q0 -19 -13 -56.5t-13 -56.5t13.5 -31.5t32.5 -12.5q24 0 43 16t28.5 41t14 49.5t4.5 46.5q0 52 -32.5 81t-85.5 29q-60 0 -100 -39t-40 -99q0 -23 11.5 -45t11.5 -23q0 -8 -4.5 -21.5t-10.5 -13.5q-21 0 -42.5 31t-21.5 79
q0 80 61.5 130t142.5 50z" />
    <glyph glyph-name="whatsapp" unicode="Whatsapp" 
d="M381 351q67 -67 67 -157q0 -92 -66 -157t-158 -65q-57 0 -106 27l-118 -31l32 115q-30 51 -30 111q0 92 65 157t157 65t157 -65zM224 9q76 0 131 54.5t55 130.5q1 74 -56 130q-54 54 -130 54t-130.5 -54t-54.5 -130q0 -53 29 -98l4 -7l-19 -68l70 18l7 -4q43 -26 94 -26z
M325 148q10 -5 11 -7q3 -6 -4 -27q-3 -8 -15.5 -16.5t-21.5 -9.5q-26 -4 -67 14q-49 21 -94 84q-23 31 -23 57q0 25 19 47q7 6 15 6h11q9 0 12 -9l17 -41q3 -6 1 -10q-4 -9 -10 -15.5t-7 -7.5t1 -7q14 -26 30.5 -39t44.5 -27q8 -4 12 1q13 15 18 22q4 6 12 3t38 -18z" />
    <glyph glyph-name="viacoin" unicode="VIACOIN" horiz-adv-x="384" 
d="M384 416l-48 -112h48v-48h-68l-14 -32h82v-48h-103l-89 -208l-89 208h-103v48h82l-14 32h-68v48h48l-48 112h64l81 -192h94l81 192h64zM192 112l27 64h-54z" />
    <glyph glyph-name="medium" unicode="Medium" 
d="M0 416h448v-448h-448v448zM372 310v5h-83l-59 -148l-68 148h-87v-5l28 -34q5 -4 4 -10v-133q1 -7 -4 -13l-32 -38v-5h90v5l-32 38q-5 6 -4 13v115l79 -171h9l67 171v-137q0 -4 -2 -6l-24 -24v-5h118v5l-24 23q-3 3 -2 7v169q-1 4 2 7z" />
    <glyph glyph-name="y-combinator" unicode="Y&#x2d;COMBINATOR" 
d="M448 416v-448h-448v448h448zM236 160l78 146h-33l-46 -91q-7 -14 -13 -27l-12 27l-45 91h-35l76 -144v-94h30v92z" />
    <glyph glyph-name="optin-monster" unicode="OPTIN&#x2d;MONSTER" horiz-adv-x="576" 
d="M573 27q2 -7 1 -11q1 -23 -24.5 -43.5t-48.5 -21.5q-30 -2 -43 23q-185 -6 -340 0q-14 -24 -43 -23q-23 1 -48.5 21.5t-25.5 43.5q1 6 2 11q-4 7 -3 10.5t9 0.5q4 7 11 14q-4 17 11 9q7 5 16 9q0 11 6.5 11.5t10.5 -5.5q16 3 27 -6v20q-7 0 -16.5 4t-18.5 12.5t-11 19.5
q-8 34 25 48q1 4 5.5 9t9.5 7q10 3 14 -10q17 0 21 -8q3 0 8.5 0.5t8.5 0.5q-4 3 -8 5q-7 11 -25 12v2q-40 1 -55 18q-16 18 -12 53.5t25 50.5q6 4 13.5 1t8.5 -11q0 -2 0.5 -6.5t1 -5t1 -4.5t1 -3.5t2 -2.5t3 -2t4.5 -1.5t6 -0.5t7 0q13 12 27 20q-11 1 -44 -4q28 28 57 43
q39 19 76 23q-13 5 -60 16q161 34 245 -37q26 -23 42 -60q8 -1 13.5 -1h9.5t6.5 1.5t4 2t2.5 4.5t1.5 5t1 6t0.5 7q1 7 8.5 10.5t14.5 -1.5q19 -14 24 -48q5 -36 -12 -55q-15 -17 -54 -18v-3q-19 0 -26 -11q-4 -2 -8 -5q3 0 8.5 -1t8.5 -1q3 9 21 9q4 12 14 10q5 -1 9.5 -6
t5.5 -10q21 -9 25 -26q2 -11 0 -22q-4 -17 -19 -26.5t-27 -9.5v-20q11 8 27 6q4 6 10.5 5.5t6.5 -11.5q9 -4 16 -9q8 4 10.5 1t0.5 -10q8 -8 11 -14q8 3 9 -0.5t-3 -10.5zM499 281q22 -9 30 -36q1 10 -2.5 26.5t-11.5 24.5q-3 3 -6.5 4t-5.5 -0.5t-2 -4.5q0 -8 -2 -14z
M494 274q-4 -4 -14 -6q21 -24 13 -63q18 4 26 12q3 4 5 8q-2 40 -30 49zM470 267h-12q12 -31 15 -64q5 0 11 1q5 18 0.5 36t-14.5 27zM48 245q8 27 30 36q-3 7 -3 14q0 5 -4 5.5t-10 -4.5q-7 -8 -11 -24.5t-2 -26.5zM57 217q8 -8 26 -12q-7 39 13 63q-10 2 -14 6
q-27 -9 -30 -49q3 -5 5 -8zM105 203q4 34 20 63q-5 -1 -15 -5l-12 -5v1q-13 -25 -6 -53q8 -1 13 -1zM289 366q-21 0 -38.5 -10.5t-27.5 -28t-10 -37.5q0 -32 22.5 -54.5t54 -22.5t53.5 22.5t22 54.5q0 31 -22 53.5t-54 22.5zM405 191q-6 1 -40 1q4 -18 6 -42q2 -17 6 -17
q2 0 5 1q11 6 16.5 23.5t6.5 33.5zM351 193h-57q-1 -7 0 -23t4 -18q8 -4 25.5 -4t25.5 3q3 5 3 19.5t-1 22.5zM278 139q3 6 3 25t-1 29h-18.5t-21.5 -0.5t-18 -0.5q-2 -10 -2.5 -28t4.5 -23q9 -4 27 -4.5t27 2.5zM172 190q-5 -16 1 -32t21 -23q8 -4 10 5q1 4 2 24t3 28
q-17 -1 -37 -2zM136 159q5 -8 -8 -13q75 -79 156 -106q47 13 84.5 39t79.5 68q-10 4 -8 11q-4 1 -8.5 1.5t-9.5 1t-8 0.5q-10 -33 -30 -39q-11 -4 -17 8q-2 3 -5 16q-3 -7 -24 -9q-29 -2 -44 3q-2 -6 -6 -9t-7.5 -3.5t-13.5 -1.5q-49 -5 -55 11q-1 -24 -25 -11q-14 7 -20 18
q-5 8 -7 18zM115 -14q1 4 1 8q-3 13 -8 24t-12 19.5t-14 10.5q-18 6 -43 -13t-23 -41q5 -7 12 -14t15 -11.5t16.5 -7.5t15.5 -4q14 0 25.5 8t14.5 21zM106 52q15 -27 17 -52q53 31 106 47q-43 23 -98 77q-1 -1 -7 -3q-1 -2 3 -5.5t2 -7.5q-3 -6 -15 -9q-3 -3 -8 -6
q-1 -23 0 -41zM444 -12q-13 7 -23 12.5t-22 11.5t-23 11t-23.5 9.5t-24.5 8.5q-20 -9 -42 -16q-2 -1 -4 0q-17 5 -35 13q-57 -16 -113 -50v-1v1q143 -6 310 0zM454 0q2 27 17 52h-1q1 21 1 41q-4 2 -8 7q-11 2 -15 8q-2 6 6 11q-1 1 -1 2q-4 1 -7 3q-55 -51 -104 -76
q55 -17 112 -48zM560 -6q2 22 -23 41t-43 13q-10 -3 -19.5 -19t-14.5 -35q0 -17 12.5 -27t28.5 -10q14 1 32 11.5t27 25.5zM373 373q-27 29 -60 35.5t-66 -12.5q12 28 42 35.5t56 -8.5t28 -50zM75 41q11 1 17 -10.5t1 -20.5q-2 -5 -8 -10.5t-14 -10.5t-13 -6q-13 -4 -23 1
t-10 14q0 12 18.5 27t31.5 16zM291 217q-24 0 -40 17.5t-11 42.5q10 -16 28.5 -11t18.5 22t-17 22q25 10 49 -4t24 -40q0 -21 -15.5 -35t-36.5 -14zM68 -26q0 4 5.5 9.5t12.5 10t11 5.5q6 1 9 -6t1 -12q-6 -12 -17 -17q-7 -2 -14.5 1.5t-7.5 8.5zM501 41q13 -1 31.5 -16
t18.5 -27q0 -9 -10 -14t-23 -1q-9 2 -20.5 11t-15.5 16q-4 9 2 20.5t17 10.5zM479 -1q7 -1 18.5 -10t10.5 -15q0 -5 -7.5 -8.5t-13.5 -1.5q-13 5 -18 17q-2 5 1 12t9 6z" />
    <glyph glyph-name="opencart" unicode="Opencart" horiz-adv-x="640" 
d="M423 7q0 -19 -13 -32t-32 -13t-32.5 13t-13.5 32t13.5 32.5t32.5 13.5t32 -13.5t13 -32.5zM169 53q19 0 32.5 -13.5t13.5 -32.5t-13.5 -32t-32.5 -13t-32 13t-13 32t13 32.5t32 13.5zM461 323q39 0 68.5 -1t49.5 -5l35 -7t19 -11.5t7 -14t-6 -18.5t-15 -21t-25.5 -25.5
t-31.5 -28t-39 -33.5q-51 -44 -79 -69q12 22 37.5 50t44.5 46.5t29 38t-1.5 31t-55.5 18t-125 5.5q-58 -1 -106.5 3t-81.5 10t-61.5 17.5t-44 20.5t-30.5 24t-21 23.5t-15.5 24.5t-12.5 21q42 -44 92.5 -64.5t129.5 -27.5t239 -7z" />
    <glyph glyph-name="expeditedssl" unicode="EXPEDITEDSSL" horiz-adv-x="496" 
d="M248 405q88 0 150.5 -62.5t62.5 -150.5t-62.5 -150.5t-150.5 -62.5t-150.5 62.5t-62.5 150.5t62.5 150.5t150.5 62.5zM151 272h-1v-27q0 -9 9 -9h18q9 0 9 9v27q0 23 12.5 39t31 20t36.5 0t31 -20t13 -39v-27q0 -9 9 -9h17q9 0 9 9v27q0 40 -28.5 68.5t-68.5 28.5
q-26 0 -48.5 -13t-35.5 -35.5t-13 -48.5zM390 68v142q0 7 -5.5 12t-12.5 5h-248q-7 0 -12.5 -5t-5.5 -12v-142q0 -7 5.5 -12.5t12.5 -5.5h248q7 0 12.5 5.5t5.5 12.5zM142 205v-133q0 -4 -5 -4h-9q-4 0 -4 4v133q0 5 4 5h9q5 0 5 -5zM283 157q0 -21 -17 -31v-31q0 -9 -9 -9
h-18q-9 0 -9 9v31q-18 10 -18 31q0 14 10.5 24.5t25.5 10.5t25 -10.5t10 -24.5zM248 440q103 0 175.5 -72.5t72.5 -175.5t-72.5 -175.5t-175.5 -72.5t-175.5 72.5t-72.5 175.5t72.5 175.5t175.5 72.5zM248 -38q95 0 162.5 67.5t67.5 162.5t-67.5 162.5t-162.5 67.5
t-162.5 -67.5t-67.5 -162.5t67.5 -162.5t162.5 -67.5z" />
    <glyph glyph-name="cc-jcb" unicode="Cc&#x2d;jcb" horiz-adv-x="576" 
d="M432 204v32h38v0q13 -3 13 -16q0 -14 -13 -16h-38zM474 184q14 -3 14 -17.5t-14 -16.5q-2 -1 -42 -1v35h42zM576 368v-352q0 -20 -14 -34t-34 -14h-480q-20 0 -34 14t-14 34v352q0 20 14 34t34 14h480q20 0 34 -14t14 -34zM182 256h-57q0 -11 0.5 -27t0.5 -24.5t-0.5 -20
t-2.5 -17t-6 -11t-11 -8t-17 -2.5q-27 0 -57 15v-28q8 -3 18.5 -4.5t18.5 -2.5t15.5 -1h11.5l4 -1q18 0 31.5 3t22.5 6t15 11t9 14t4 19.5t1 22t-0.5 27t-0.5 29.5zM360 251q-25 7 -52.5 8t-53 -3.5t-42 -21t-16.5 -42.5q0 -27 17 -43.5t44 -20.5t53.5 -2.5t49.5 7.5v28
q-24 -13 -48.5 -15t-41.5 9.5t-17 36.5t17 36.5t41.5 9.5t48.5 -15v28zM544 162q0 4 -1.5 8t-3.5 7.5t-5.5 6.5t-8 5t-9.5 3l-10 2q14 2 22 10.5t8 19.5q0 10 -4.5 17t-13 10.5t-19.5 4.5h-117h-3v-128h123q18 0 30 9t12 25z" />
    <glyph glyph-name="cc-diners-club" unicode="Cc&#x2d;Diners&#x2d;Club" horiz-adv-x="576" 
d="M240 368q73 0 124.5 -51.5t51.5 -124t-51.5 -124.5t-124.5 -52t-124.5 52t-51.5 124.5t51.5 124t124.5 51.5zM200 88v208q-32 -12 -52 -40.5t-20 -63.5t20 -63t52 -41zM280 88q31 13 51 41t20 63q0 14 -3.5 27.5t-9.5 25t-15 21.5t-20 18t-23 12v-208zM528 416
q20 0 34 -14t14 -34v-352q0 -20 -14 -34t-34 -14h-480q-20 0 -34 14t-14 34v352q0 20 14 34t34 14h480zM330 0q79 0 139.5 56.5t60.5 133.5q0 84 -59.5 139t-140.5 55h-91q-53 0 -97 -24t-70 -69t-26 -101q0 -78 57 -134t136 -56h91z" />
    <glyph glyph-name="creative-commons" unicode="CREATIVE&#x2d;COMMONS" horiz-adv-x="496" 
d="M246 233l-33 -17q-10 20 -28 20q-33 0 -33 -44t33 -44q22 0 31 21l30 -15q-21 -39 -65 -39q-10 0 -21 3t-24 10t-21 24t-8 40q0 40 22.5 58.5t50.5 18.5q46 0 66 -36zM389 233l-33 -17q-9 20 -28 20q-33 0 -33 -44t33 -44q22 0 31 21l31 -15q-22 -39 -65 -39q-11 0 -22 3
t-23.5 10t-20.5 23.5t-8 40.5q0 40 22.5 58.5t49.5 18.5q46 0 66 -36zM248 440q105 0 176.5 -72t71.5 -176q0 -54 -20.5 -101t-55 -78.5t-79.5 -50t-93 -18.5q-102 0 -175 72.5t-73 175.5q0 66 31.5 123t89 91t127.5 34zM248 -11q81 0 142 57.5t61 145.5q0 85 -59 144
t-144 59q-86 0 -144.5 -61t-58.5 -142q0 -83 59.5 -143t143.5 -60z" />
    <glyph glyph-name="gg" unicode="Gg" horiz-adv-x="512" 
d="M179 218l103 -103l-103 -102l-179 179l179 179l45 -45l-26 -25l-19 19l-128 -128l128 -128l52 52l-77 76zM333 371l179 -179l-179 -179l-45 45l26 25l19 -19l128 128l-128 128l-52 -52l77 -76l-25 -26l-103 103z" />
    <glyph glyph-name="gg-circle" unicode="GG&#x2d;CIRCLE" horiz-adv-x="512" 
d="M257 440q103 0 175.5 -72.5t72.5 -175.5t-72.5 -175.5t-175.5 -72.5t-175.5 72.5t-72.5 175.5t72.5 175.5t175.5 72.5zM208 65l74 75l-77 78l-24 -25l53 -53l-27 -26l-77 77l77 77l11 -11l25 24l-35 36l-126 -126zM306 67l126 126l-126 126l-74 -75l77 -78l24 25l-53 53
l26 26l78 -77l-78 -77l-11 11l-24 -24z" />
    <glyph glyph-name="tripadvisor" unicode="TRIPADVISOR" horiz-adv-x="576" 
d="M166 167q0 -6 -3 -11.5t-8.5 -8.5t-12.5 -3q-9 0 -16.5 7t-7.5 16.5t7.5 16.5t17 7t16.5 -7t7 -17zM431 191q7 0 12.5 -3t8.5 -8.5t3 -12.5q0 -9 -7 -16t-17 -7t-17 7t-7 16.5t7 16.5t17 7zM521 52q-47 -37 -106.5 -29.5t-96.5 54.5l-31 -47l-30 46q-36 -45 -93.5 -52.5
t-104.5 26.5q-48 35 -57 94t26 107q-9 31 -28 58h90q36 22 91.5 38t98.5 16h7h7q41 0 95.5 -16t90.5 -38h96q-19 -26 -29 -57q35 -47 27.5 -105.5t-53.5 -94.5zM259 166.5q0 47.5 -33.5 81t-81 33.5t-81.5 -33.5t-34 -81t34 -81.5t81.5 -34t81 34t33.5 81.5zM288 177
q4 55 44 93t95 40q-27 11 -66 19.5t-69 8.5h-5h-3q-30 0 -70 -8t-67 -20q28 0 53 -11t43.5 -28.5t30.5 -42t14 -51.5zM539.5 205.5q-16.5 44.5 -59.5 64.5t-88 3.5t-65 -59.5t-3.5 -88t60 -65t88 -3.5t64.5 60t3.5 88zM214 167.5q0 -29.5 -21 -50.5t-50.5 -21t-50.5 21
t-21 50.5t21 50.5t50.5 21t50.5 -21t21 -50.5zM189 167v1q0 19 -13.5 32.5t-33.5 13.5q-12 0 -23 -6t-17 -17t-6 -24q0 -19 13.5 -32.5t33 -13.5t33 13.5t13.5 32.5zM503 167q0 -19 -10 -35.5t-26 -26t-36 -9.5q-29 0 -50 21t-21 50.5t21 50.5t50.5 21t50 -21t21.5 -51z
M478 167.5q0 19.5 -13.5 33t-33 13.5t-33 -13.5t-13.5 -33t13.5 -33t33 -13.5t33 13.5t13.5 33z" />
    <glyph glyph-name="odnoklassniki" unicode="Odnoklassniki" horiz-adv-x="320" 
d="M275 114q-33 -21 -90 -27l21 -21l76 -76q13 -13 7 -30.5t-21.5 -22t-30.5 6.5l-77 77l-76 -76q-13 -13 -30.5 -7t-22 21.5t7.5 30.5l76 77l21 20q-59 6 -91 27q-27 18 -35 29.5t1 29.5q6 13 19.5 16.5t34.5 -10.5q4 -3 12 -8t32.5 -13t50.5 -8t50 7t34 15l11 7
q21 14 34.5 10.5t20.5 -16.5q3 -11 4 -17t-5 -14t-13 -13.5t-21 -14.5zM30 318q0 54 38 92t92 38q35 0 65 -17.5t47.5 -47t17.5 -65.5q0 -53 -38 -91t-92 -38t-92 38t-38 91zM96 318q0 -26 19 -44.5t45 -18.5t45 18.5t19 44.5q0 27 -19 45.5t-45 18.5q-17 0 -32 -8.5
t-23.5 -23t-8.5 -32.5z" />
    <glyph glyph-name="odnoklassniki-square" unicode="ODNOKLASSNIKI&#x2d;SQUARE" 
d="M184 270.5q0 16.5 12 28.5t28 12t28 -12t12 -28.5t-12 -28t-28 -11.5t-28 11.5t-12 28zM448 368v-352q0 -20 -14 -34t-34 -14h-352q-20 0 -34 14t-14 34v352q0 20 14 34t34 14h352q20 0 34 -14t14 -34zM143 271q0 -34 23.5 -57.5t57.5 -23.5t57.5 23.5t23.5 57
t-23.5 57.5t-57.5 24t-57.5 -23.5t-23.5 -57.5zM317 180q-4 8 -12 10t-22 -6q-22 -18 -59 -18q-16 0 -31 4.5t-22 8.5l-6 5q-14 8 -22 6t-12 -10q-6 -7 -3 -14t7.5 -11t16.5 -12q20 -13 57 -17l-13 -12q0 -1 -48 -48q-13 -13 1 -27.5t27 -1.5l48 48l48 -48q13 -13 27 1t1 28
l-47 48l-13 12q35 4 56 17q17 11 22 18.5t-1 18.5z" />
    <glyph glyph-name="get-pocket" unicode="GET&#x2d;POCKET" 
d="M408 384q17 0 28.5 -12t11.5 -29v-135q0 -93 -65.5 -158.5t-158.5 -65.5t-158.5 65.5t-65.5 158.5v135q0 17 12 29t29 12h367zM246 116q24 23 58 55q41 39 48.5 48t7.5 20q0 12 -9 21t-21 9q-10 0 -18 -6t-42 -39q-27 -26 -46 -44q-19 19 -47 46q-32 31 -40 37t-18 6
q-13 0 -22 -9t-9 -21q0 -11 7.5 -19.5t49.5 -48.5q34 -32 58 -55q9 -9 21 -9t22 9z" />
    <glyph glyph-name="wikipedia-w" unicode="WIKIPEDIA&#x2d;W" horiz-adv-x="640" 
d="M640 397v-12q-39 -1 -56 -41q-6 -13 -27.5 -62.5t-40.5 -94.5t-44 -102.5t-43 -98.5h-14l-82 193q-7 -14 -44 -85t-55 -108q0 -1 -7.5 -0.5l-7.5 0.5q-23 55 -71.5 164t-71.5 165q-10 22 -34 46t-42 23v7v7h162v-13q-18 -1 -34 -11t-10 -24q7 -14 60 -137t66 -151
q7 13 21.5 41t31 58.5t22.5 43.5q-5 10 -34.5 77.5t-37.5 82.5q-11 19 -56 19v14h142v-13q-16 -1 -25.5 -7.5t-3.5 -18.5q9 -20 24 -53t24 -52q29 55 48 101q5 10 2 16.5t-13 9.5t-27 3v7v7h47h50.5h25.5v-13q-38 -2 -58 -32l-59 -123q3 -9 35 -80.5t34 -75.5l122 282
q-5 15 -20 21.5t-27 6.5v14z" />
    <glyph glyph-name="safari" unicode="Safari" horiz-adv-x="512" 
d="M275 173l-109 -71l71 109zM256 440q103 0 175.5 -72.5t72.5 -175.5t-72.5 -175.5t-175.5 -72.5t-175.5 72.5t-72.5 175.5t72.5 175.5t175.5 72.5zM412 265q-5 -2 -5 -7q0 -2 1 -3q2 -5 7 -5h3l15 7q5 2 5 7q0 2 -1 3q-2 5 -7 5q-2 0 -3 -1zM314 354v-3q0 -5 5 -7
q1 -1 3 -1q5 0 7 5l6 15q1 1 1 3q0 5 -5 7q-1 1 -3 1q-5 0 -7 -5zM256 388q-8 0 -8 -8v-16q0 -8 8 -8t8 8v16q0 8 -8 8zM181 373q-5 -2 -5 -7q0 -2 1 -3l6 -15q2 -5 7 -5q8 0 8 8v3l-7 15q-2 5 -7 5q-2 0 -3 -1zM117.5 330.5q-2.5 -2.5 -2.5 -5.5t2 -6l12 -11q2 -2 5.5 -2
t5.5 2t2 5.5t-2 5.5l-11 12q-3 2 -6 2t-5.5 -2.5zM60 192q0 -8 8 -8h16q8 0 8 8t-8 8h-16q-8 0 -8 -8zM100 119q5 2 5 7q0 2 -1 3q-2 5 -7 5h-3l-15 -7q-5 -2 -5 -7q0 -2 1 -3q2 -5 7 -5q2 0 3 1zM104 255q1 1 1 3q0 5 -5 7l-15 6q-1 1 -3 1q-5 0 -7 -5q-1 -1 -1 -3
q0 -5 5 -7l15 -7h3q5 0 7 5zM198 30v3q0 8 -8 8q-5 0 -7 -5l-6 -15q-1 -1 -1 -3q0 -8 8 -8q5 0 7 5zM264 4v16q0 8 -8 8t-8 -8v-16q0 -8 8 -8t8 8zM331 11q5 2 5 7q0 2 -1 3l-6 15q-2 5 -7 5q-2 0 -3 -1q-5 -2 -5 -7v-3l7 -15q2 -5 7 -5q2 0 3 1zM394.5 53.5
q2.5 2.5 2.5 5.5t-2 6l-12 11q-2 2 -5.5 2t-5.5 -2t-2 -5.5t2 -5.5l11 -12q3 -2 6 -2t5.5 2.5zM286 162l116 176l-176 -116l-116 -176zM437 117q1 1 1 3q0 5 -5 7l-15 7h-3q-5 0 -7 -5q-1 -1 -1 -3q0 -5 5 -7l15 -6q1 -1 3 -1q5 0 7 5zM444 184q8 0 8 8t-8 8h-16q-8 0 -8 -8
t8 -8h16z" />
    <glyph glyph-name="chrome" unicode="CHROME" horiz-adv-x="496" 
d="M132 230l-77 118q35 44 86 68t106 24q67 0 125 -33q64 -37 97 -103l-205 11q-22 1 -42.5 -4.5t-38 -16t-31 -27t-20.5 -37.5zM164 192q0 23 11.5 42t30.5 30.5t42 11.5q35 0 59.5 -24.5t24.5 -59.5t-24.5 -59.5t-59.5 -24.5t-59.5 24.5t-24.5 59.5zM479 281
q33 -83 3 -170.5t-110 -133.5q-64 -37 -138 -33l112 173q25 36 23.5 80t-29.5 77zM134 144q20 -39 58.5 -59.5t80.5 -12.5l-63 -125q-90 14 -150 83.5t-60 161.5q0 74 40 136z" />
    <glyph glyph-name="firefox" unicode="FIREFOX" horiz-adv-x="512" 
d="M504 207v-14q0 -67 -33 -124.5t-90.5 -90.5t-124.5 -33q-92 0 -161 58.5t-84 147.5q0 2 -0.5 5t-0.5 5q-8 67 16 124q8 20 22.5 38.5t27.5 24.5q-23 -44 -26 -84q17 57 62 91q37 27 83 30.5t65 -15.5q-42 -14 -72.5 -63t-21.5 -107q3 -21 12 -40q-8 18 -7 42.5t12 41.5
q12 17 27.5 23.5t27.5 4.5q-4 0 -10 -9.5t-9 -15.5q-6 -14 -6 -30v-1q0 -14 7.5 -31.5t18.5 -27.5q36 -33 84 -24.5t75 49.5q18 26 18 69t-22 79q-12 18 -27 32q-35 34 -83.5 48t-96.5 5h-1q-2 0 -5 -1h-1l-6 -2q-29 -6 -50 -19v0v0v0v0l1.5 1.5t1.5 0.5q31 29 83 39
q22 5 45 5h11q19 0 38 -4h1h2l2 -0.5t3 -0.5q29 -7 56 -20q5 -2 7 -4q13 -6 25 -15q6 -5 12 -9q10 -8 18 -17q13 -13 24 -27l1 -1.5t2 -2.5l1 -1l1 -2q1 -1 1 -1.5t0.5 -0.5t1 -1l0.5 -1q1 -1 1 -2l2 -2q0 -1 1 -2l1 -2l1 -1q0 -1 0.5 -1t0.5 -1t0.5 -1t1 -1l0.5 -1
q0 -1 0.5 -2t1.5 -2l1 -1v-1q1 -1 1 -2q1 -1 1 -1.5t0.5 -1t0.5 -1t1 -1.5v-1q1 -1 2 -3q3 -6 5 -12q0 -1 0.5 -2t1.5 -2v-1l0.5 -1t0.5 -1.5t0.5 -1t1 -2l0.5 -1.5v-1q1 -2 1 -4l0.5 -0.5l0.5 -0.5q0 -1 1 -3v-1t0.5 -2t0.5 -1.5v-0.5l1 -4l1 -1q5 -20 7 -41v-5q0 -1 1 -4z
" />
    <glyph glyph-name="opera" unicode="Opera" horiz-adv-x="496" 
d="M314 415q-61 0 -109 -37t-69 -90.5t-14.5 -116.5t44.5 -111q61 -75 148 -75q53 0 99 30q-70 -63 -165 -63h-12q-99 5 -167.5 76.5t-68.5 171.5q0 103 72.5 175.5t175.5 72.5h1q94 0 164 -63q-45 30 -99 30zM416 18q-31 -19 -66.5 -17.5t-65.5 22.5q42 16 69.5 65
t27.5 112t-27 112t-70 65q31 21 66.5 22.5t66.5 -17.5q79 -74 79 -182.5t-80 -181.5z" />
    <glyph glyph-name="internet-explorer" unicode="INTERNET&#x2d;EXPLORER" horiz-adv-x="512" 
d="M483 288q38 -68 27 -141h-329q0 -36 23.5 -61.5t55 -33.5t65.5 4t53 44h121q-24 -68 -83.5 -107t-133.5 -39q-70 0 -102 15q-34 -17 -65 -25.5t-57.5 -7t-42 20.5t-15.5 54q0 32 13 72.5t31 72.5q57 103 136 173q-53 -22 -122 -101q19 85 87.5 138.5t149.5 48.5
q97 43 153 30.5t56 -69.5q0 -39 -21 -88zM65 101q-18 -37 -24.5 -65.5t-2 -45t16 -26t29 -10.5t38 5t43.5 19q-73 42 -100 123zM181 210h207q0 27 -15 49t-38.5 34t-49.5 12q-42 0 -72.5 -27t-31.5 -68zM365 398q67 -26 112 -100q15 38 15 68q0 16 -7 28t-19.5 19t-27.5 7
q-27 0 -73 -22z" />
    <glyph glyph-name="contao" unicode="CONTAO" horiz-adv-x="512" 
d="M45 143q11 -47 16 -68t19 -53.5t34 -53.5h-80q-14 0 -24 10t-10 24v380q0 14 10 24t24 10h58q-21 -19 -37 -44q-13 -20 -20 -44t-8.5 -41.5t2 -48.5t6.5 -44.5t10 -50.5zM478 416q14 0 24 -10t10 -24v-380q0 -14 -10 -24t-24 -10h-52q62 61 57 164l-137 -30
q-3 -62 -58 -73q-35 -8 -58 11q-14 12 -24.5 37.5t-24.5 94.5q-10 47 -13.5 76.5t-2 41t6.5 22.5q13 27 49 34q54 12 82 -43l137 29q-20 51 -52 84h90z" />
    <glyph glyph-name="500px" unicode="&#x35;&#x30;&#x30;px" 
d="M103 104q-5 10 -4 14.5t12 8.5q11 3 13.5 0t9 -18t20.5 -31v94q1 37 29.5 64.5t68.5 27.5t69 -28.5t29 -68.5q0 -49 -39.5 -78.5t-89.5 -14.5q-8 3 -3.5 17t12.5 11q29 0 47 4.5t30 19.5t12 41q0 29 -21 48t-49 18.5t-47 -22.5q-5 -6 -8 -10.5t-5.5 -12t-3.5 -13.5
t-1 -19.5v-24.5v-34.5v-42.5q39 -24 84 -18t77 38q38 38 38 92.5t-38 93.5q-39 38 -94 38t-93 -38q-15 -15 -21 -24h-1q-6 -10 -20 -7q-14 4 -14 12v187q0 10 10 10h242q8 0 8 -15t-8 -15h-224v-133h1q37 40 87.5 49.5t93 -7.5t72 -57.5t29.5 -93.5q0 -42 -18.5 -76.5
t-47 -54t-64.5 -26t-70 0.5t-64 31.5t-46 62.5zM167 364q0 5 9 9t23.5 7.5t33 5t40.5 -1t44.5 -8.5t45.5 -18.5t42 -31.5q4 -4 1 -9t-8 -9t-7 -4q-1 0 -12 8.5t-29.5 19t-42.5 19t-57.5 7.5t-68.5 -14q-6 -3 -10.5 6t-3.5 14zM393 33q6 6 16 -4t5 -16q-49 -49 -113.5 -62
t-120 6t-97.5 66.5t-51 110.5q-1 5 6.5 8.5t15 2t7.5 -6.5q10 -48 36.5 -85t63 -55.5t77.5 -22.5t82 11t73 47zM214 141q0 3 20 23l-18 18q-3 3 -1 7t6.5 7.5t6.5 3.5t22 -20l18 18q4 5 12 -3t4 -13l-18 -18l17 -17q5 -6 -0.5 -12.5t-10.5 -6.5q-2 0 -22 20l-10 -10
q-9 -10 -12 -10q-4 0 -9 5t-5 8z" />
    <glyph glyph-name="amazon" unicode="AMAZON" 
d="M257 285v11.5v11v10t-0.5 9.5t-1.5 7.5t-3 7t-4.5 5.5t-6.5 4t-8.5 2t-10.5 1h-4.5t-10 -3t-14 -7.5t-14 -14.5t-11.5 -24l-74 7q0 40 36.5 72t98.5 32q31 0 54 -9t35 -23t17.5 -26.5t5.5 -23.5v-147q0 -13 8 -26t16 -20l8 -7l-57 -56q-38 36 -45 47q-13 -21 -36 -33.5
t-48 -13.5t-47.5 7t-37 29.5t-14.5 53.5q0 29 13 51t31.5 34t44 19.5t44 10t36.5 2.5zM257 198v41q-84 -3 -84 -58q0 -29 28 -38q29 -10 46 16q10 15 10 39zM393 35q-7 -9 -25 -22.5t-60 -29t-89 -15.5q-48 0 -95 20.5t-72.5 41t-41.5 39.5q-3 4 -2.5 6.5t3 2.5t4.5 -1
q24 -14 35 -20.5t38.5 -19.5t46.5 -18t51 -10.5t60.5 -2t65.5 13t76 27.5q3 1 6 0.5t3 -4t-4 -8.5zM433 33q-9 -21 -21 -31q-4 -4 -6.5 -2.5t-0.5 6.5q6 11 11.5 30t1.5 25q-6 7 -48 3q-13 -1 -14 0.5t1.5 3.5t6.5 4t9 4t10.5 3.5t10.5 2.5q38 4 46 -6q2 -4 0 -17.5
t-7 -25.5z" />
    <glyph glyph-name="houzz" unicode="HOUZZ" 
d="M276 117h-105v-149h-154v448h109v-104l306 -86v-258h-156v149z" />
    <glyph glyph-name="vimeo-v" unicode="VIMEO&#x2d;V" 
d="M448 294q-3 -65 -92 -179q-91 -119 -154 -119q-39 0 -66 73q-6 19 -15 54q-12 45 -18 65.5t-14.5 44.5t-16 32.5t-16.5 8.5q-5 0 -35 -21l-21 27q10 8 30 26.5t30.5 27.5t25.5 21t26 17t20 6q52 5 64 -71q24 -151 42 -167q16 -15 50 38l2 2q28 45 30 68q2 21 -8.5 30.5
t-25 8t-29.5 -7.5q33 108 126 105q69 -2 65 -90z" />
    <glyph glyph-name="black-tie" unicode="BLACK&#x2d;TIE" 
d="M0 416h448v-448h-448v448zM316 91l-64 184l64 86h-184l64 -86l-64 -184l92 -89z" />
    <glyph glyph-name="fonticons" unicode="FONTICONS" 
d="M0 416h448v-448h-448v448zM187 275q6 0 9.5 -2t5 -7t1.5 -14l51 6q0 31 -17.5 42t-47.5 11q-26 0 -42.5 -7t-25.5 -22.5t-9 -40.5v-21h-28v-37h22q6 0 6 -3v-111q0 -7 -7 -8l-21 -2v-26h131v25l-44 4q-4 1 -3 4v4v113h56l11 37h-68q0 2 1 4v24q0 10 1 15t5 8.5t13 3.5z
M261 33h103v25l-16 3q-3 0 -3 1v2v4v152h-80l-7 -30l25 -6q6 -2 6 -8v-108q0 -6 -7 -7l-21 -3v-25zM342 289l22 24l-4 10h-27l-16 28h-9l-16 -28h-27l-4 -10l22 -24l-9 -33l7 -8l32 17l31 -17l7 8z" />
    <glyph glyph-name="reddit-alien" unicode="REDDIT&#x2d;ALIEN" horiz-adv-x="512" 
d="M440 244q27 0 42 -19t10.5 -43.5t-28.5 -36.5q3 -11 3 -25q0 -63 -61.5 -107.5t-149.5 -44.5q-57 0 -105.5 20.5t-76.5 55t-28 76.5q0 13 3 24q-25 13 -29.5 37t10.5 43.5t42 19.5q22 0 38 -16q57 40 136 43l31 138q2 9 11 7l97 -22q12 22 35 22q17 0 28.5 -11.5
t11.5 -28t-11.5 -28t-28.5 -11.5q-16 0 -27.5 11.5t-11.5 27.5l-88 20l-28 -125q80 -3 137 -42q16 15 38 15zM129 139q0 -16 12 -27.5t28 -11.5q8 0 15.5 3t12.5 8.5t8 12.5t3 15q0 17 -11.5 28.5t-27.5 11.5q-11 0 -20 -5.5t-14.5 -14.5t-5.5 -20zM344 46q7 6 0 13t-14 0
q-21 -21 -74.5 -21t-74.5 21q-6 7 -13 0t0 -13q27 -28 87.5 -28t88.5 28zM343 100q11 0 20 5t14.5 14t5.5 20q0 17 -12 28.5t-28 11.5t-27.5 -12t-11.5 -28t11.5 -27.5t27.5 -11.5z" />
    <glyph glyph-name="edge" unicode="EDGE" horiz-adv-x="512" 
d="M482 314q22 -45 22 -86q0 -28 -17.5 -58t-41.5 -44q-27 -16 -59 -16q-56 0 -80 17q-9 6 -9 14q0 2 6 11q15 19 15 38q0 48 -33 83q-46 50 -122 50q-47 0 -88.5 -22t-61.5 -57q19 85 86.5 140.5t156.5 55.5q73 0 134.5 -33.5t91.5 -92.5zM213 -28l2 -1t5 -3t7.5 -4.5
t10.5 -5l12 -5t14 -5t16 -3.5q-12 -1 -24 -1q-43 0 -88 19t-81.5 52t-54.5 72q-28 60 -23 118q5 43 46 75q47 35 108 35q42 0 78 -18q36 -19 56 -54q3 -5 5 -10q-3 4 -6.5 7t-13.5 8t-20 6t-26 -4t-33 -18q-17 -12 -34 -35t-23 -44q-25 -71 20 -136q19 -27 47 -45zM463 71
q4 -3 4 -7q0 -2 -1 -4q-32 -51 -81.5 -80t-81.5 -29q-35 0 -72 20q-35 18 -56 47q-53 73 -13 152q14 29 39 50q-7 -13 -7 -27q0 -60 51 -102t121 -42q36 0 69 13q11 4 21 9q1 1 3 1q3 0 4 -1z" />
    <glyph glyph-name="codiepie" unicode="CODIEPIE" horiz-adv-x="472" 
d="M422 245q15 0 21.5 -13t0.5 -26.5t-22 -13.5h-11v-44h-26v97h37zM472 95q-21 -46 -53.5 -79.5t-76.5 -52.5t-94 -19q-103 0 -175.5 72.5t-72.5 175.5t72.5 175.5t175.5 72.5q71 0 127 -36.5t91 -101.5l-186 -109zM434 83l-61 31q-43 -72 -122 -72q-62 0 -105.5 43.5
t-43.5 105.5t43.5 105.5t105.5 43.5q72 0 117 -63l59 35q-31 47 -77.5 73.5t-101.5 26.5q-91 0 -155.5 -64.5t-64.5 -155.5t64.5 -155.5t155.5 -64.5q58 0 107 29.5t79 81.5z" />
    <glyph glyph-name="modx" unicode="MODX" 
d="M356 206l37 -24v-214l-133 84zM440 373l-83 -134l-154 96l23 38h214zM351 230l-250 -58l-46 30v214zM97 154l250 58l-125 -201h-214z" />
    <glyph glyph-name="fort-awesome" unicode="FORT&#x2d;AWESOME" horiz-adv-x="512" 
d="M489 160q5 0 5 -4v-220h-183v96q0 26 -17 40.5t-38 14.5t-38 -14.5t-17 -40.5v-96h-183v220q0 4 5 4h27q5 0 5 -4v-32h36v178q0 4 5 4h27q5 0 5 -4v-32h36v32q0 4 5 4h27q5 0 5 -4v-32h37v32q0 4 11 4v112q-9 4 -9 14t8 14t16 0t8 -14t-10 -14v-5q13 3 24 3q6 0 17 -2
t16 -2t13.5 2t10.5 2q4 0 4 -4v-60q0 -8 -27 -8q-6 0 -16 2t-16 2q-11 0 -26 -4v-38q12 0 12 -4v-32h37v32q0 4 4 4h28q4 0 4 -4v-32h37v32q0 4 5 4h27q5 0 5 -4v-178h36v32q0 4 5 4h27zM201 165v64q0 4 -5 4h-27q-5 0 -5 -4v-64q0 -5 5 -5h27q5 0 5 5zM348 165v64q0 4 -5 4
h-27q-5 0 -5 -4v-64q0 -5 5 -5h27q5 0 5 5z" />
    <glyph glyph-name="usb" unicode="USB" horiz-adv-x="640" 
d="M642 192q0 -5 -5 -8l-89 -53q-3 -1 -5 -1t-4 1q-5 2 -5 7v36h-238q8 -13 21 -43t24 -47t24 -17h27v27q0 9 9 9h89q9 0 9 -9v-89q0 -9 -9 -9h-89q-9 0 -9 9v27h-27q-25 0 -44.5 22t-29.5 49t-23 49t-27 22h-101q-6 -23 -25 -38t-44 -15q-29 0 -50 21t-21 50t21 50t50 21
q25 0 44 -15t25 -38q5 0 13.5 -0.5t11 0t8.5 1t8 3t6.5 6.5t8.5 11t8.5 16.5t10.5 22.5q14 31 24.5 48t23 24.5t21.5 9t29 0.5h11q6 16 19.5 26t30.5 10q11 0 21 -4.5t17 -11.5t11.5 -17t4.5 -21q0 -14 -7.5 -26.5t-19.5 -19.5t-27 -7q-17 0 -30.5 10t-19.5 25h-30
q-13 0 -24 -16.5t-24 -46.5t-22 -43h310v35q0 5 4.5 8t9.5 0l89 -54q5 -2 5 -7z" />
    <glyph glyph-name="product-hunt" unicode="PRODUCT&#x2d;HUNT" horiz-adv-x="512" 
d="M326 229.5q0 -15.5 -11 -26.5t-26 -11h-70v74h70q15 0 26 -10.5t11 -26zM504 192q0 -103 -72.5 -175.5t-175.5 -72.5t-175.5 72.5t-72.5 175.5t72.5 175.5t175.5 72.5t175.5 -72.5t72.5 -175.5zM376 229q0 36 -25.5 61.5t-61.5 25.5h-120v-248h50v74h70q36 0 61.5 25.5
t25.5 61.5z" />
    <glyph glyph-name="mixcloud" unicode="MIXCLOUD" horiz-adv-x="640" 
d="M424 228q21 -4 38 -17.5t27 -33t10 -41.5q0 -39 -28 -67t-67 -28h-290q-47 0 -80 33.5t-33 79.5q0 43 27.5 74.5t69.5 37.5q17 51 61 82.5t98 31.5q65 0 113 -44t54 -108zM404 84q11 0 20.5 4t16.5 11t11.5 16.5t4.5 20.5q0 16 -9.5 29.5t-24.5 19.5q-2 -13 -6 -26
q-4 -12 -16 -14t-20.5 6t-3.5 21q6 20 6 40q0 52 -37 89t-89 37q-37 0 -68.5 -20.5t-46.5 -53.5q30 -8 52 -30q10 -9 6 -20.5t-14.5 -14.5t-21.5 5q-21 21 -50 21t-50 -20.5t-21 -50t21 -50t50 -20.5h290zM639 136.5q0 -67.5 -37 -123.5q-7 -9 -18 -9q-12 0 -18 11t1 22
q30 45 30 99t-30 99q-8 11 -2 21.5t17 11.5t20 -10q37 -54 37 -121.5zM568 136.5q0 -48.5 -27 -88.5q-6 -9 -17 -9q-13 0 -19 11t1 22q20 28 20 64t-20 65q-7 10 -1 21t16.5 11.5t19.5 -9.5q27 -39 27 -87.5z" />
    <glyph glyph-name="scribd" unicode="SCRIBD" horiz-adv-x="384" 
d="M42 195q-24 29 -24 80q0 73 47 113t120 40q34 1 64 -5.5t56.5 -22t35 -21.5t28.5 -21l-51 -72l-37 24l27 39q-56 37 -123 36q-41 0 -76.5 -21t-35.5 -56q0 -24 29 -15q33 7 56 -14q19 -19 18.5 -46t-19.5 -46q-22 -23 -57.5 -20.5t-57.5 28.5zM360 189q10 -12 16.5 -30
t7.5 -39t-2.5 -42.5t-14.5 -42t-27 -35.5q-52 -44 -134 -44q-109 -1 -191 72l-15 14l61 72l35 -28l-33 -39q64 -48 144 -48q95 0 121 65q2 6 2 12q0 24 -29 16q-34 -8 -56 14q-20 18 -19 45q0 29 21 49t50 18q38 1 63 -29z" />
    <glyph glyph-name="bluetooth" unicode="BLUETOOTH" 
d="M293 277l-43 -43l-1 86zM249 57l1 86l42 -43zM416 189q0 -51 -5.5 -90.5t-17.5 -67t-27 -46.5t-37 -29.5t-45 -15t-53 -4.5q-46 0 -79.5 11t-62 38t-43 78t-14.5 125.5t14.5 127t42 80.5t61.5 40t79 12q44 0 77 -12t58.5 -40.5t38.5 -80t13 -126.5zM258 189l79 88
l-125 135v-177l-74 73l-27 -26l93 -94l-93 -92l27 -27l74 73l2 -170l127 128z" />
    <glyph glyph-name="bluetooth-b" unicode="Bluetooth&#x2d;B" horiz-adv-x="320" 
d="M196 188l98 -103l-148 -149l-3 198l-86 -86l-31 32l108 108l-108 108l31 32l86 -86v206l146 -157zM237 291l-50 50v-100zM187 135v-100l50 50z" />
    <glyph glyph-name="gitlab" unicode="Gitlab" horiz-adv-x="512" 
d="M105 423l57 -175h-132l56 175q3 7 10 7t9 -7zM1 160l29 88l226 -294l-248 184q-11 9 -7 22zM162 248h188l-94 -294zM511 160q4 -13 -7 -22l-248 -184l226 294zM426 423l56 -175h-132l57 175q2 7 9 7t10 -7z" />
    <glyph glyph-name="wpbeginner" unicode="WPBEGINNER" horiz-adv-x="512" 
d="M463 126q20 -24 22 -52t-11 -51.5t-40.5 -39t-62.5 -15.5q-30 0 -57.5 13t-42.5 37h-15h-15q-15 -24 -42.5 -37t-57.5 -13q-35 0 -62.5 15.5t-40.5 39t-11 51.5t22 52q-23 38 -25.5 80t14 79t47 66.5t75.5 47t96 17.5t96 -17.5t75.5 -47t47 -66.5t14 -79t-25.5 -80z
M123 209h42v58h-42v-58zM340 123v23q-45 -16 -95.5 -7t-91.5 41v-25q38 -34 92 -43t95 11zM190 209h166v58h-166v-58z" />
    <glyph glyph-name="wpforms" unicode="WPFORMS" 
d="M448 373v-362q0 -18 -12.5 -30.5t-30.5 -12.5h-362q-18 0 -30.5 12.5t-12.5 30.5v362q0 18 12.5 30.5t30.5 12.5h362q18 0 30.5 -12.5t12.5 -30.5zM411 11v362q0 6 -6 6h-9l-111 -75l-61 50l-61 -50l-111 75h-9q-6 0 -6 -6v-362q0 -6 6 -6h362q6 0 6 6zM150 262v-37h-73
v37h73zM150 188v-38h-73v38h73zM161 335l54 44h-118zM371 262v-37h-196v37h196zM371 188v-38h-196v38h196zM287 335l64 44h-118zM371 113v-37h-99v37h99z" />
    <glyph glyph-name="envira" unicode="ENVIRA" 
d="M0 416q86 0 152.5 -14t106.5 -36t66.5 -53t37 -61.5t14 -65t0.5 -59t-6.5 -48.5t-3.5 -29l81 -82h-26l-70 71q-6 0 -19.5 -2.5t-25 -4t-28 -3t-32.5 0.5t-34.5 6.5t-37.5 14.5t-38 25q-26 21 -43.5 44t-29.5 55.5t-19 61t-20 82.5t-25 97zM80 370q-23 10 -24 8t9 -10
l9 -7q22 -15 40 -37t25.5 -36t25.5 -47q71 -137 144 -168q38 -16 38 -15q1 1 -12 10q-13 8 -20 14q-37 27 -91 130q-14 26 -20 36.5t-20.5 32.5t-27 34.5t-32.5 28t-44 26.5z" />
    <glyph glyph-name="glide" unicode="GLIDE" 
d="M253 299q0 -10 -4 -26q-9 -44 -17 -84q-1 -5 -14 -5q-16 0 -23 14t-7 32q0 25 9.5 49t28.5 34q8 4 14 4q13 0 13 -18zM448 368v-352q0 -20 -14 -34t-34 -14h-352q-20 0 -34 14t-14 34v352q0 20 14 34t34 14h352q20 0 34 -14t14 -34zM384 181q0 4 -11 21t-15 18q-5 3 -9 3
q-5 0 -9.5 -0.5t-9 -2l-7.5 -2.5t-8.5 -4t-7.5 -3.5t-8.5 -4.5t-7.5 -5l-1 1q1 7 8 38.5t7 48.5q0 63 -68 63q-25 0 -46.5 -12t-34.5 -30.5t-20 -39.5t-7 -41.5t6 -36.5t17 -26.5t27 -16.5t37 -6h3q4 0 4 -1l-1 -1q-7 -60 -36 -71q-16 -6 -19 8l-1 4q0 7 3 13.5t7 10.5t8 7
t7 5l3 2q0 5 -14.5 11t-21.5 6q-8 0 -14.5 -5t-10.5 -13t-6 -16.5t-2 -15.5q0 -16 6.5 -28.5t18.5 -19.5t28 -7q34 0 59.5 28t34.5 64q2 6 3.5 12t2 10t1.5 7t1.5 5t0.5 3.5t0.5 2t1.5 1t2 1.5q33 17 58 17q5 0 37 -5q4 -1 4 3z" />
    <glyph glyph-name="glide-g" unicode="GLIDE&#x2d;G" 
d="M407 237q6 -2 23.5 -29.5t17.5 -34.5q0 -5 -7 -5q-50 8 -59 8q-40 0 -93 -27l-3 -1.5t-1.5 -2t-1 -2.5t-1.5 -4t-1.5 -6t-1.5 -8t-2.5 -11t-3.5 -14.5t-4 -18.5q-15 -56 -56 -100.5t-95 -44.5q-40 0 -63 24.5t-23 63.5q0 25 14.5 52t37.5 27q12 0 35.5 -9.5t23.5 -17.5
q0 -1 -3.5 -3t-8.5 -5.5t-11 -9t-11 -11.5t-8 -14.5t-3 -17.5q0 -20 19 -22q28 -1 50 41q16 30 22 75q0 4 -1 4h-10q-66 0 -102.5 35.5t-36.5 101.5q0 45 18.5 89t59.5 76.5t95 32.5q36 0 60 -10t36.5 -32.5t12.5 -58.5q0 -28 -11 -79t-13 -61l1 -1q3 2 11.5 6.5t11.5 6.5
t10.5 6t11.5 5.5t11 4t12 3.5t12 2t14 1q6 0 15 -4zM232 321q5 26 5 43q0 6 -0.5 10.5t-2 9t-6 6.5t-11.5 2q-11 0 -22 -6q-31 -17 -46.5 -55.5t-15.5 -78.5q0 -18 4 -33t15.5 -27.5t29.5 -12.5h4h5t4.5 0.5t4 1t2.5 2t2 4.5q13 63 28 134z" />
    <glyph glyph-name="viadeo" unicode="VIADEO" 
d="M276 298v-1q-25 74 -71 151q31 -20 49.5 -64t21.5 -86zM309 176q22 4 42 17q13 -31 14.5 -64.5t-11 -70.5t-39.5 -66q-51 -56 -130 -56t-130 56q-40 42 -48 98t11 103t63.5 80t103.5 33q33 0 62 -11q-11 -21 -13 -43q-23 9 -49 9q-58 0 -97 -42t-39 -100q0 -34 14 -63.5
t39.5 -49t58.5 -25.5q35 14 59.5 46.5t36 75t16 81t4.5 77.5q0 24 -1 36q19 -55 19 -112q0 -137 -109 -205l-4 -1q59 -1 98.5 40t39.5 100q0 30 -11 57zM418 436q25 -36 26 -85.5t-22.5 -86t-61.5 -36.5q-28 0 -55 26q75 41 100 84q6 13 7 20q-15 -33 -48 -58t-70 -33
q-12 19 -12 39q0 30 20 50q13 12 37 19t45 19.5t34 41.5z" />
    <glyph glyph-name="viadeo-square" unicode="VIADEO&#x2d;SQUARE" 
d="M400 416q20 0 34 -14t14 -34v-352q0 -20 -14 -34t-34 -14h-352q-20 0 -34 14t-14 34v352q0 20 14 34t34 14h352zM281 67q25 27 30 63t-7 62q-13 -7 -27 -10q7 -16 7 -36q0 -37 -24.5 -62.5t-61.5 -24.5h2q68 43 68 128q0 36 -11 70v1q-2 17 -7 34.5t-15 34t-23 25.5
q29 -49 45 -95v-22q0 -25 -3 -48.5t-10 -50.5t-22.5 -47t-37.5 -29q-30 6 -49.5 30t-19.5 56q0 36 24.5 62.5t60.5 26.5q16 0 30 -6q2 14 9 27q-19 7 -39 7q-37 0 -65 -20.5t-40 -50t-6.5 -64.5t29.5 -61q32 -35 81.5 -35t81.5 35zM309 214q24 0 38.5 23t14 54t-16.5 54
q-8 -19 -21 -26.5t-28 -12t-23 -11.5q-13 -13 -13 -32q0 -13 8 -24q23 5 43.5 20.5t29.5 35.5q0 -4 -4 -12q-16 -27 -62 -53q16 -16 34 -16z" />
    <glyph glyph-name="snapchat" unicode="SNAPCHAT" horiz-adv-x="496" 
d="M248 440q103 0 175.5 -72.5t72.5 -175.5t-72.5 -175.5t-175.5 -72.5t-175.5 72.5t-72.5 175.5t72.5 175.5t175.5 72.5zM418 101q3 9 -5 11q-13 2 -25 9t-19 13.5t-13.5 15.5t-8 12.5t-2.5 6.5h-1q-3 8 -1 13q2 6 19 11q4 2 5 2q17 7 17 17q0 8 -10 12q-8 2 -14 0
q-8 -4 -15 -5q-3 0 -5 2q3 60 -4 77q-8 18 -21.5 30t-29.5 18t-34 6h-3h-3q-8 0 -16.5 -1.5t-22 -6.5t-26 -17t-19.5 -29q-8 -17 -4 -77q-3 -2 -7 -2q-7 0 -16 4q-4 2 -8.5 1t-8.5 -4t-4 -7q-3 -11 17 -18q1 -1 5.5 -2.5l7.5 -2.5t6 -3.5t5 -4.5q2 -5 -2 -13q-1 -3 -3 -6.5
t-8 -12.5t-13.5 -16t-19 -13.5t-24.5 -8.5q-6 -1 -6 -8q1 -14 45 -21q1 -1 1.5 -2.5t1 -4l1 -5t1.5 -4.5q1 -6 8 -6q2 0 10.5 1.5t15.5 1.5q18 0 37 -14q28 -19 49 -18q22 -1 49 18q19 14 37 14q8 0 16 -1.5t10 -1.5q7 0 8 6q1 2 2 6t1.5 6.5t1.5 3.5q39 6 45 18z" />
    <glyph glyph-name="snapchat-ghost" unicode="SNAPCHAT&#x2d;GHOST" horiz-adv-x="512" 
d="M511 55q-8 -18 -68 -27q0 -1 -1 -5t-2.5 -9.5t-2.5 -9.5q-3 -9 -12 -9q-4 0 -16 2.5t-23 2.5q-19 0 -29 -4.5t-28 -16.5q-40 -29 -74 -27q-30 -3 -72 27q-18 12 -28 16.5t-29 4.5q-10 0 -23 -2.5t-16 -2.5q-9 0 -12 9q-1 3 -2.5 9l-2.5 10t-1 5q-16 2 -28 5t-26 10.5
t-15 16.5v1q0 9 9 10q14 3 27.5 8.5t23 13t18.5 16.5t14.5 16.5t10 15.5t6 11l2.5 5v1q6 11 3 18q-2 5 -7 8.5t-9.5 5t-11.5 3.5t-8 3q-29 12 -26 28q2 9 13.5 14t19.5 1q14 -6 24 -6q6 0 10 2q-3 24 -3 60.5t8 55.5q12 26 30.5 44t38.5 25.5t33 10t25 2.5h4.5h5.5
q27 0 50.5 -9t44 -27.5t32.5 -45.5q8 -19 8 -55.5t-3 -60.5q4 -2 9 -2q10 0 22 6q10 5 21 0q15 -5 15 -18q0 -14 -26 -25q-2 -1 -7 -2q-25 -8 -29 -18q-3 -7 3 -18v-1q1 -4 4 -9.5t12.5 -18.5t20 -23.5t28.5 -21t37 -13.5q5 -1 7.5 -5.5t0.5 -10.5z" />
    <glyph glyph-name="snapchat-square" unicode="SNAPCHAT&#x2d;SQUARE" 
d="M400 416q20 0 34 -14t14 -34v-352q0 -20 -14 -34t-34 -14h-352q-20 0 -34 14t-14 34v352q0 20 14 34t34 14h352zM394 101q3 9 -5 11q-10 1 -19 5t-15 9t-12 11t-9.5 11t-7 10.5t-4.5 7t-1 3.5h-1q-3 8 -1 13q2 6 19 11q4 2 5 2q17 7 17 17q0 8 -10 12q-8 2 -14 0
q-8 -4 -15 -5q-3 0 -5 2q3 60 -4 77q-12 26 -35 40t-50 14h-3h-3q-8 0 -16.5 -1.5t-22 -6.5t-26 -17t-19.5 -29q-8 -17 -4 -77q-3 -2 -7 -2q-7 0 -16 4q-5 3 -12.5 -0.5t-8.5 -9.5q-3 -11 17 -18l7 -2.5t11 -5t6 -5.5q2 -5 -2 -13q-1 -3 -3 -6.5t-8 -12.5t-13.5 -16
t-19 -13.5t-24.5 -8.5q-6 -1 -6 -8q1 -14 45 -21q1 -1 1.5 -3.5t1.5 -6.5t2 -6q1 -6 8 -6q2 0 10.5 1.5t15.5 1.5q18 0 37 -14q28 -19 49 -18q22 -1 49 18q19 14 37 14q8 0 16 -1.5t10 -1.5q7 0 8 6q1 2 2 6t1.5 6.5t1.5 3.5q39 6 45 18z" />
    <glyph glyph-name="pied-piper" unicode="Pied&#x2d;Piper" horiz-adv-x="480" 
d="M456 425q7 2 10 -5t-3 -11q-111 -74 -126 -160q-10 -54 -24 -85.5t-32 -46t-37 -23t-44.5 -26t-47.5 -46.5q17 -9 43 -16t45 -7q73 0 125 52t52 125q0 28 -13 62.5t-32 54.5q7 15 17 28q16 -17 29.5 -42t21.5 -52.5t8 -50.5q0 -86 -61 -147t-147 -61t-147 61t-61 147
t61 147t147 61q15 0 33.5 -3.5t37 -9.5t30.5 -14q66 55 115 68zM125 42q92 199 192 293q-37 18 -77 18q-73 0 -125 -52t-52 -125q0 -34 18 -73.5t44 -60.5z" />
    <glyph glyph-name="first-order" unicode="FIRST&#x2d;ORDER" 
d="M13 219zM224 351q12 0 22 -1l-4 -68l22 64q21 -5 40 -17l-29 -61l45 51q17 -13 30 -31l-50 -45l61 30q10 -18 16 -41l-64 -22l68 4q1 -9 1 -22t-1 -22l-67 4l64 -22q-6 -21 -17 -40l-61 29l50 -45q-12 -17 -30 -31l-45 51l29 -61q-17 -11 -40 -17l-22 65l4 -69
q-11 -1 -22 -1t-22 1l4 68l-22 -64q-21 5 -40 17l30 61l-45 -51q-17 12 -31 31l51 45l-61 -30q-12 20 -17 41l64 22l-68 -4q-1 13 -1 22q0 11 1 22l68 -4l-64 23q5 20 17 40l61 -30l-51 45q13 17 31 31l45 -51l-30 62q19 11 40 16l22 -64l-3 68q10 1 21 1zM443 320v-256
l-219 -128l-219 128v256l219 128zM426 310l-202 117l-202 -117v-235l202 -118l202 118v235zM224 411l188 -109v-219l-188 -110l-188 110v218zM224 360q-69 0 -118 -49t-49 -119q0 -69 49 -118.5t118 -49.5t118 49.5t49 118.5q0 70 -49 119t-118 49z" />
    <glyph glyph-name="yoast" unicode="YOAST" 
d="M91 372h186l-7 -19h-179q-29 0 -50.5 -20.5t-21.5 -49.5v-206q0 -29 21.5 -49.5t62.5 -20.5v-19h-12q-37 0 -64 26.5t-27 63.5v205q0 24 12 44.5t33 32.5t46 12zM320 428h67q-19 -50 -39 -102.5t-32 -84.5t-25 -66.5t-20.5 -53.5t-15.5 -39t-13 -30.5l-10 -21t-9.5 -17
t-9 -12.5t-11.5 -12q-30 -31 -78 -33v51q33 5 48.5 28t15.5 47l1 1q0 11 -5 24.5t-33 84.5q-26 65 -45 114h62l50 -157zM448 286v-298h-214q10 14 12 19h183v279q0 46 -49 63l7 18q61 -20 61 -81z" />
    <glyph glyph-name="themeisle" unicode="THEMEISLE" horiz-adv-x="512" 
d="M208 359.5q0 8.5 5 15t13 6.5t12.5 -6.5t4.5 -14.5q0 -6 -2 -10.5t-6 -8t-9 -3.5q-8 0 -13 6.5t-5 15zM512 200q0 -32 -9.5 -71.5t-26.5 -58.5q-17 -18 -56 -40.5t-65 -30.5h-1v-32q0 -9 -4 -16t-10.5 -11t-14.5 -4q-16 0 -25 14q-9 -14 -25 -14t-25 14q-8 -14 -24 -14
t-25 14q-9 -14 -25 -14q-9 0 -15.5 4.5t-10 12t-3.5 16.5q-26 -20 -57 -20q-34 0 -60 23q15 1 30 6q-32 9 -52 36q36 -8 67 11q-54 55 -68 88q-7 16 -7 46q0 21 4.5 46t13.5 51.5t27 44.5t41 18q17 0 23 -15q6 8 12 15l4 4l4 4l21 34q25 32 60.5 51t74.5 19q10 0 18 -1
q17 18 42 18q23 0 40 -16q1 -2 1 -4t-13 -16q16 -5 16 -12q0 -2 -5 -7q45 -40 57 -108q7 8 17 8q13 0 28 -14q26 -22 26 -79zM188 358.5q0 -14.5 9 -26t23 -11.5t23.5 11.5t9.5 26.5q0 9 -4 17t-11.5 13.5t-17.5 5.5q-14 0 -23 -11t-9 -25.5zM238 254q0 25 8 58
q-19 -29 -22.5 -62t6.5 -60t32.5 -44.5t52.5 -17.5q32 0 60 20q4 14 4 22q0 22 -21 22q-5 0 -13 -2q-52 -10 -79.5 3t-27.5 61zM197 -1q0 9 -6 15t-14.5 6t-14.5 -6t-6 -15v-32q0 -5 1.5 -8.5t4.5 -6.5t6.5 -5t7.5 -2q9 0 15 6.5t6 15.5v32zM246 -1q0 6 -2.5 10.5t-7.5 7.5
t-10 3q-9 0 -15 -6t-6 -15v-32q0 -9 6 -15.5t14.5 -6.5t14.5 6.5t6 15.5v32zM295 -1q0 9 -5.5 15t-14 6t-14.5 -6t-6 -15v-32q0 -9 6 -15.5t14.5 -6.5t14 6.5t5.5 15.5v32zM345 -1q0 9 -6 15t-14.5 6t-14 -6t-5.5 -15v-32q0 -9 5.5 -15.5t14 -6.5t14.5 6.5t6 15.5v32z
M422 162q-16 -30 -39.5 -53t-55 -36.5t-64.5 -13.5q-70 0 -115 52.5t-45 124.5q0 25 6 50q-30 -50 -30 -112q0 -46 18.5 -89t52.5 -72q9 17 26 17q16 0 25 -15q9 15 25 15t24 -15q9 15 25 15t25 -15q9 15 25 15q17 0 25 -16q32 27 51 66t21 82zM432 262q0 42 -25.5 73.5
t-66.5 31.5q-45 0 -79 -36q-41 -137 41 -137q6 0 21 2.5t25.5 3.5t22 -1.5t15.5 -12.5t1 -29q45 41 45 105z" />
    <glyph glyph-name="google-plus" unicode="GOOGLE&#x2d;PLUS" horiz-adv-x="496" 
d="M248 440q103 0 175.5 -72.5t72.5 -175.5t-72.5 -175.5t-175.5 -72.5t-175.5 72.5t-72.5 175.5t72.5 175.5t175.5 72.5zM177 68q35 0 62.5 15.5t42 43t14.5 62.5q0 11 -2 21h-117v-43h70q-3 -24 -23.5 -38.5t-46.5 -14.5q-16 0 -30 6.5t-24.5 17t-16.5 24.5t-6 30
q0 32 22.5 55t54.5 23q30 0 50 -19l33 33q-34 32 -83 32q-51 0 -87.5 -36.5t-36.5 -87.5t36.5 -87.5t87.5 -36.5zM408 174h35v36h-35v35h-36v-35h-36v-36h36v-35h36v35z" />
    <glyph glyph-name="font-awesome" unicode="FONT&#x2d;AWESOME" 
d="M398 416q20 0 35 -15t15 -35v-348q0 -20 -15 -35t-35 -15h-348q-20 0 -35 15t-15 35v348q0 20 15 35t35 15h348zM352 132v140q0 8 -8 8q-1 0 -21 -8t-33 -8q-8 0 -13 2q-37 14 -61 14q-28 0 -62 -14q-2 -2 -5 -3v19q13 9 13 26q0 14 -10 23.5t-24 9.5t-23.5 -9.5
t-9.5 -23.5q0 -16 13 -26v-219q0 -8 6 -14t14 -6q15 0 19 14v1q1 1 1 5v45q1 1 2 1t2 1q38 17 67 17q17 0 38 -8.5t34 -8.5q22 0 54 14q7 3 7 8z" />
    <glyph glyph-name="linode" unicode="LINODE" 
d="M437 222q1 -1 -9 -73q0 -2 -1 -2l-55 -44q-2 -1 -4 0l-20 14l-2 -33q0 -2 -1 -2l-67 -54q-2 -2 -4 0l-28 24l2 -46q0 -2 -1 -2l-84 -67q-1 -1 -2 -1l-2 1l-65 69q-2 1 -17 79q-1 2 1 3l18 11q-27 25 -27 26l-21 100q-1 2 2 4l27 13q-38 29 -39 31l-27 133q-1 2 2 3
l123 39h3l90 -44q2 -1 2 -3l6 -132q0 -2 -2 -3l-34 -17l36 -25q2 0 2 -2l1 -35l35 21q1 1 3 0l24 -16l1 32q0 1 1 2l59 36q2 1 3 0l70 -38zM233 217l-101 -57l14 -97l91 61zM225 397l-121 -47l20 -134l106 55zM44 275l73 -57l-19 133l-80 49zM75 127l64 -61l-13 94l-70 58z
M99 9l58 -61l-10 68l-62 60zM163 -55l79 62l-4 70l-85 -61zM245 60l27 -23v68l-30 23q0 -7 -1 -8l-22 -15l24 -20q2 -1 2 -25zM340 85l4 67l-66 -47l1 -68zM367 111l6 67l-64 40l-1 -30l41 -27q2 -1 1 -3l-2 -34zM422 151l8 63l-51 -36l-5 -65z" />
    <glyph glyph-name="quora" unicode="QUORA" 
d="M440 61q1 -9 -1.5 -22.5t-10.5 -30.5t-28 -28.5t-48 -11.5q-59 0 -96 62q-58 -16 -116 4t-95.5 70t-37.5 115q0 85 60 141t138 56q79 0 138.5 -55.5t59.5 -141.5q0 -95 -74 -153q23 -36 49 -36q8 0 14.5 3t10 8t6 10t2.5 10h29zM297 119q17 37 17 100q0 80 -26.5 119
t-82.5 39t-81.5 -39t-25.5 -119q0 -79 25.5 -118t81.5 -39q19 0 33 5q-7 13 -13 22t-14.5 19t-19 15t-23.5 5q-11 0 -19 -4l-13 24q27 23 70 23q33 0 53.5 -13.5t37.5 -38.5z" />
    <glyph glyph-name="free-code-camp" unicode="FREE&#x2d;CODE&#x2d;CAMP" horiz-adv-x="576" 
d="M97 352q-65 -63 -65 -154q1 -101 68 -165q13 -12 13 -21q0 -3 -4 -8q-3 -4 -8 -4q-15 0 -44 36q-52 65 -54 162q0 49 15 86t47 74q23 26 36 26q5 0 8 -3q4 -4 4 -7q0 -6 -16 -22zM239 28l1 -1zM333 27v1v-1zM336 186q8 -2 13.5 4t10.5 15t6 11q24 -31 29.5 -62t-1.5 -51
t-22.5 -39.5t-23.5 -25.5t-15 -10q10 7 23 33t-1 43l-4 -0.5t-9.5 -1t-12.5 0t-13 3.5t-10.5 9t-6 16.5t0.5 26.5q2 13 2.5 25.5t-1 20.5t-3.5 14t-4 8l-1 3q-8 -17 -16.5 -30t-16.5 -25t-11 -17q-16 -27 -23 -49t-7 -35.5t4.5 -24t8.5 -14.5t8 -6q-7 4 -15.5 10.5t-22.5 24
t-20.5 36t-1.5 47t26 57.5q16 23 28 44t18.5 36.5t10.5 29t5 22.5t1.5 15.5t-0.5 9.5l-1 3q24 -19 40.5 -39.5t22.5 -36.5t9 -32t0.5 -27.5t-4 -21.5t-3 -14t2.5 -6zM511 358q32 -37 47 -74t15 -86q-2 -98 -54 -162q-29 -36 -44 -36q-5 0 -8 4q-4 5 -4 8q0 9 13 21
q67 64 68 165q0 91 -65 154q-16 16 -16 22q0 3 4 7q3 3 8 3q13 0 36 -26z" />
    <glyph glyph-name="telegram" unicode="Telegram" horiz-adv-x="496" 
d="M248 440q103 0 175.5 -72.5t72.5 -175.5t-72.5 -175.5t-175.5 -72.5t-175.5 72.5t-72.5 175.5t72.5 175.5t175.5 72.5zM370 270q2 12 -3.5 17.5t-13.5 2.5l-239 -93q-13 -4 -13.5 -10t10.5 -9l61 -19l142 89q6 4 9 1q1 -1 -1 -3l-115 -104l-5 -63q7 0 13 6l30 29l62 -46
q18 -10 22 10z" />
    <glyph glyph-name="bandcamp" unicode="BANDCAMP" horiz-adv-x="496" 
d="M248 440q103 0 175.5 -72.5t72.5 -175.5t-72.5 -175.5t-175.5 -72.5t-175.5 72.5t-72.5 175.5t72.5 175.5t175.5 72.5zM296 114l85 156h-181l-85 -156h181z" />
    <glyph glyph-name="grav" unicode="GRAV" horiz-adv-x="512" 
d="M301 236q8 -8 0 -16l-10 -10q-8 -9 -16 0l-11 10q-7 9 0 17l10 10q8 8 17 0zM271 256q-5 -5 -11 0q-5 5 0 10q6 6 11 0q5 -5 0 -10zM245 250q5 6 10 0q6 -5 0 -10q-5 -5 -10 0q-6 5 0 10zM317 264q-16 12 -21 30t10 38q26 30 59 -1q1 0 4 -3l4 -4t3.5 -4t3.5 -4t3 -4.5
t2.5 -5t1 -5t0 -6t-1.5 -6t-3 -6.5q-9 -18 -29.5 -24t-35.5 5zM365 308q-4 5 -9.5 2.5t-7.5 -8t2 -10.5q6 -8 16 -2q8 7 -1 18zM504 192q0 -103 -72.5 -175.5t-175.5 -72.5t-175.5 72.5t-72.5 175.5t72.5 175.5t175.5 72.5t175.5 -72.5t72.5 -175.5zM438 149q1 10 -11.5 17
t-13.5 9q-11 20 -23.5 27.5t-31.5 3.5q5 3 11 4.5t9 1.5h4q0 12 -10 24q1 4 1.5 7.5t0.5 6t-0.5 5t-0.5 3.5l-1 1q26 14 30 43q2 23 -12.5 41.5t-37.5 21.5q-11 1 -21.5 -1.5t-19 -9t-13.5 -15.5q-9 -14 -10 -28t4 -24t12 -17.5t16 -11.5q-13 1 -24.5 10t-15.5 24
q-8 30 9 62l-8 8q-14 0 -25 -5q5 7 11.5 10.5t10.5 3.5l3 1q0 13 -3 21q-4 9 -15 9t-17 -12v1q-4 -7 0.5 -36.5t16.5 -50.5q-7 -4 -13 -10q-6 -3 -14 -10.5t-15 -15.5t-13.5 -16t-9.5 -13l-4 -6q-25 -9 -50 -34.5t-20 -44.5q0 -5 2 -8l-8 -8q-10 -11 -4 -21.5t22 -3.5
q23 11 36 31l-1.5 1t-5.5 2t-9 1q39 9 46 9q4 -1 6 7.5t2 17.5v10q0 28 -11 41q29 -28 28 -61q0 -5 -2 -9t-4 -6.5t-4 -4t-4 -2.5h-1q-1 -2 -5 -9t-7.5 -13t-7.5 -14.5t-7 -17t-5 -17.5t-1.5 -18t2.5 -17q-9 14 -10 22q-47 -53 -24 -65q19 -10 65.5 45t60.5 97q46 28 64 65
q18 -35 58 -60q39 -23 43 1z" />
    <glyph glyph-name="etsy" unicode="ETSY" horiz-adv-x="384" 
d="M384 100q-10 -60 -16 -132q-171 6 -368 0v26q5 1 13.5 2.5t12.5 2t10 2t8.5 2.5t6 3t5 3.5t3 4.5t2 6.5t0.5 8.5q5 208 0 322q0 4 -0.5 7.5t-1.5 6t-2.5 4.5l-3 4t-5 3t-6 2t-8 2t-9.5 2t-12 2.5t-13 2.5v25q259 -8 363 4l-8 -126h-23l-3.5 14t-4 14.5t-4 13.5t-4.5 13.5
t-5 11t-6 10t-7.5 7t-9.5 5t-11 1.5h-137q-7 0 -8.5 -2t-1.5 -8v-164l88 3q5 0 8 0.5l6 1t5.5 2.5t4 3t3 5t2.5 6t2.5 8.5t2.5 10.5t3 13t4 15h25q-3 -75 -3 -81t2 -79h-26q-1 5 -3.5 15.5t-3.5 14.5t-3 11t-4 9t-6 5.5t-8.5 4.5t-11.5 2q-21 2 -88 2v-139q0 -39 45 -39h89
q12 0 21.5 2t16 3t13.5 7.5t10 9t9 14.5t8.5 16.5t10 22.5t10.5 25h22z" />
    <glyph glyph-name="imdb" unicode="IMDB" 
d="M400 416q20 0 34 -14t14 -34v-352q0 -20 -14 -34t-34 -14h-352q-20 0 -34 14t-14 34v352q0 20 14 34t34 14h352zM21 219zM97 128v128h-33v-128h33zM210 128v128h-43l-7 -60q-6 41 -9 60h-43v-128h29v85l12 -85h21l12 87v-87h28zM222 128h15q46 0 53.5 7t6.5 49v27
q0 18 -2 24q-2 10 -10.5 15t-15.5 5.5t-19 0.5h-4h-24v-128zM382 157v36q0 11 -0.5 16.5t-6 10t-15.5 4.5q-12 0 -21 -10v42h-31v-128h30l1 8q9 -10 21 -10q22 0 22 31zM265 218v-49v-4v-7.5t-2.5 -5t-7.5 -2.5v84q5 0 7 -2t2.5 -4t0.5 -7v-3zM350 192v-33q0 -14 -6 -14
q-2 0 -3.5 2.5t-1.5 44.5q0 13 5 13q6 0 6 -13z" />
    <glyph glyph-name="ravelry" unicode="Ravelry" horiz-adv-x="512" 
d="M407 386q54 -28 82 -82.5t22 -116.5q-4 -33 -10 -52q-17 -52 -44.5 -86t-78.5 -62q-12 -8 -20 -11q-18 -6 -40 -4h-18q-70 0 -124.5 42.5t-72.5 108.5h-1.5h-1.5q-2 -19 4.5 -45t14.5 -43l9 -16q2 -3 13 -20q-28 15 -44 47.5t-19 58.5l-2 25q-68 26 -76 38q41 -22 76 -27
l1 8q2 37 23 71q10 50 43 90q7 29 20 53q7 13 20 19q123 57 224 4zM139 285q-11 -16 -19 -37q10 11 18 17zM108 163q1 -15 4 -28l41 -7q-6 19 -10 41.5t-5 35.5l-1 13q-20 -20 -29 -55zM116 120q16 -52 57.5 -89t96.5 -45q-2 0 -3 1q-3 2 -9 5.5t-21.5 16t-28.5 26t-27.5 34
t-21.5 42.5q-5 1 -43 9zM386 4q48 24 77.5 71t29.5 103q0 80 -56.5 137t-136.5 57q-74 0 -128 -49q-8 -14 -12 -39q24 19 60.5 27.5t61.5 7.5l24 -2q22 -1 21 -28q-59 5 -96 -8.5t-73 -44.5q9 -78 27 -110q48 -2 95.5 11t71.5 28l23 14q19 14 21 -4q4 -24 -9 -30
q-51 -24 -115 -33q-33 -5 -78 -4q10 -24 27 -43.5t33.5 -31t32 -19.5t25.5 -11l9 -3q36 -6 65 4z" />
    <glyph glyph-name="sellcast" unicode="SELLCAST" 
d="M353 416q26 0 48 -12.5t34.5 -34.5t12.5 -48v-258q0 -39 -28 -67t-67 -28h-258q-39 0 -67 28t-28 67v258q0 39 28 67t67 28h258zM303 99.5q21 36.5 10 77t-47 61.5q-4 3 -6.5 4l-2.5 1q0 1 -0.5 1t-2.5 1t-6 4q-19 11 -29.5 -8t7.5 -30q9 -5 19 -10q20 -12 26.5 -35.5
t-5.5 -44t-35.5 -27t-43.5 5.5q-5 3 -7 4t-2.5 1h-0.5v0.5t-2.5 1.5t-6.5 4q-8 4 -16.5 2t-12.5 -10l-16 -27q-9 -17 5 -28q18 -15 35 11q1 2 2 3q36 -20 76.5 -9.5t61.5 47zM325 308q7 12 0 22.5t-18 10.5t-19 -11l-5 -8q-37 20 -77.5 9t-61 -47t-10 -76.5t47.5 -61.5
q4 -3 6 -4t3 -1v-1l2.5 -1t6.5 -4q19 -11 29.5 8t-7.5 30l-19 10q-21 12 -27 35.5t6 44t35.5 27t43.5 -5.5q5 -3 7 -4l2 -1q1 0 1 -0.5t2 -1.5t7 -4q15 -7 26 4q2 2 19 31z" />
    <glyph glyph-name="superpowers" unicode="SUPERPOWERS" 
d="M448 416l-87 -87q63 -62 57 -148q-4 -70 -51.5 -120.5t-116.5 -59.5q-35 -5 -80 -11t-90 -11.5t-80 -10.5l87 87q-63 61 -58 148q4 70 52 120.5t117 59.5q48 6 135 17.5t115 15.5zM368 184q4 59 -36 103t-100 48q-39 2 -73 -15t-56 -49t-24 -71q-3 -60 37 -103.5
t100 -47.5q59 -3 104 36t48 99z" />
    <glyph glyph-name="wpexplorer" unicode="WPEXPLORER" horiz-adv-x="512" 
d="M512 192q0 -106 -75 -181t-181 -75t-181 75t-75 181t75 181t181 75t181 -75t75 -181zM480 192q0 92 -65.5 158t-158.5 66t-158.5 -65.5t-65.5 -158.5t65.5 -158.5t158.5 -65.5t158.5 65.5t65.5 158.5zM161 323l87 -37l-37 -87l-87 37zM271 154l47 -94h-15l-50 100
l-49 -100h-14l51 107l-22 10l6 14l68 -29l-6 -15zM259 271l69 -30l-30 -68l-68 29zM339 228l55 -23l-23 -55l-55 23z" />
    <glyph glyph-name="meetup" unicode="MEETUP" horiz-adv-x="512" 
d="M99 33.5q2 -10.5 -8 -12.5t-12 8.5t8 12.5t12 -8.5zM242 -38q12 9 20 -3t-4 -20q-11 -9 -20 3q-7 12 4 20zM156.5 424.5q-11.5 -2.5 -14.5 9.5q-2 11 9 14q5 1 9 -1.5t5 -7.5q3 -12 -8.5 -14.5zM34.5 221.5q7.5 -5.5 9 -14.5t-3.5 -16.5t-14 -9.5t-16.5 3.5t-9 14.5
t3.5 17q5 7 14 9t16.5 -3.5zM306.5 392.5q-7.5 -4.5 -16.5 -2.5t-13 10q-5 8 -3 17t10 13.5t16.5 2.5t13.5 -10t2.5 -17t-10 -13.5zM115.5 335q-5.5 -4 -12.5 -3t-11 7t-2.5 13t6.5 11q6 3 13 2t10.5 -6.5t2.5 -12.5t-6.5 -11zM488 179q5 1 10 -2.5t6 -8.5q1 -6 -2 -11
t-9 -6q-5 -1 -10 2t-6 9q-1 4 0 7.5t4 6t7 3.5zM527 235q3 -9 -7 -12q-11 -2 -13 8t8 12t12 -8zM447 309.5q6 4.5 13.5 3t12 -8t3 -14.5t-7.5 -12t-14 -3t-12 7.5t-2.5 14.5t7.5 12.5zM441 170q20 -33 12 -70.5t-39 -58.5q-25 -18 -56 -17q-9 -36 -44 -46.5t-62 13.5
l-1.5 -1t-1.5 -2q-30 -20 -64.5 -13.5t-55.5 35.5q-14 21 -15 47q-31 5 -50 30t-17 56.5t26 53.5q-21 35 -3.5 72t56.5 43q20 50 71 68t93 -14q51 17 93 -15.5t38 -85.5q31 -10 37.5 -42t-17.5 -53zM371 95q-2 10 -22 13t-21 14q-2 17 19.5 66t20.5 62q-4 29 -34 30
q-13 0 -21 -5q-7 -4 -12 1q-12 12 -19 12q-13 3 -27 -9t-20 -9q-15 7 -24 11q-8 3 -17.5 1.5t-18 -7.5t-13.5 -14q-3 -6 -8 -20t-10.5 -31t-10 -31t-8.5 -27.5t-4 -15.5q-7 -20 5 -34t32 -13q16 1 25 17q2 4 22.5 57.5t22.5 55.5q5 10 14 5q8 -4 6 -15q0 -5 -14 -40t-15 -38
q-1 -11 6 -16t17 -2t16 14q1 2 8.5 17.5t16 32.5l16 32l8.5 17q6 8 12 8q9 0 7 -11q0 -5 -18.5 -42.5t-20.5 -45.5q-2 -10 0.5 -20t9 -18t15.5 -13q5 -2 15 -4t20.5 -2.5t17.5 4t6 13.5zM376 3q8 6 17.5 4t15.5 -10q5 -8 3.5 -17.5t-9.5 -15t-17.5 -3.5t-15 9.5t-3.5 17.5
t9 15z" />
    <glyph glyph-name="font-awesome-alt" unicode="FONT&#x2d;AWESOME&#x2d;ALT" 
d="M339 277q4 0 6.5 -2t1.5 -5v-135q0 -4 -7 -7q-30 -14 -52 -14q-13 0 -33 8t-37 8q-26 0 -65 -17q-1 -1 -3 -1v-44q0 -3 -1 -5v-1q-4 -14 -18 -14q-8 0 -14 6t-6 14v212q-13 10 -13 26q0 13 9.5 22.5t23 9.5t23 -9.5t9.5 -22.5q0 -17 -12 -26v-18q1 0 4 2q35 13 60 13
t59 -13q6 -3 13 -3q13 0 32 8t20 8zM398 416q20 0 35 -15t15 -35v-348q0 -20 -15 -35t-35 -15h-348q-20 0 -35 15t-15 35v348q0 20 15 35t35 15h348zM412 18v348q0 6 -4 10t-10 4h-348q-6 0 -10 -4t-4 -10v-348q0 -5 4 -9.5t10 -4.5h348q6 0 10 4t4 10z" />
    <glyph glyph-name="accessible-icon" unicode="ACCESSIBLE&#x2d;ICON" 
d="M424 192l-13 -157q-2 -19 -17.5 -25.5t-30 2.5t-13.5 28l10 122l-41 -2q16 -32 16 -68q0 -62 -42 -107l-39 39q20 23 24 53t-7 55t-35.5 42.5t-55.5 17.5q-39 0 -68 -26l-39 39q35 32 81 40l76 86l-43 25l-51 -46q-15 -13 -31 -6.5t-19.5 22t9.5 29.5l68 61q16 14 35 3
l140 -81q12 -8 14.5 -24t-8.5 -28l-58 -67l106 6q14 1 23.5 -9t8.5 -24zM359 346q-21 0 -36 15t-15 36t15 36t36 15q14 0 25.5 -7t18.5 -18.5t7 -25.5q0 -21 -15 -36t-36 -15zM180 -8q30 0 56 17l39 -40q-29 -23 -64 -30t-67.5 2t-59.5 28.5t-43.5 52t-16.5 70.5q0 53 33 95
l40 -39q-16 -24 -17 -52t11 -51t35.5 -38t53.5 -15z" />
    <glyph glyph-name="accusoft" unicode="Accusoft" horiz-adv-x="640" 
d="M322 196l-23 -21t-45 -41.5l-22 -20.5l-93 -34q-7 -3 -7 -9q0 -1 0.5 -13t0.5 -15q-114 -37 -115 -37q-18 -6 -18 -3q0 1 2 5q1 1 60 59t119.5 118t64.5 63.5t7.5 6.5t6.5 4.5t5.5 2.5t4.5 2h1l51 -66v-1zM482 76q-3 3 -119.5 152.5t-120.5 153.5q-5 7 -5.5 10.5t3.5 5
t8 1.5h14q58 1 116 1q19 0 25 -2t13 -11q17 -21 208 -248q15 -19 7 -23q-2 -1 -58.5 -24.5t-59.5 -24.5q-7 -5 -14.5 -3.5t-16.5 12.5zM635 74q10 -2 2 -8q-2 -1 -63 -39t-63 -39q-5 -2 -9.5 -3t-12 -0.5t-10.5 1t-12 2.5t-10 2q-3 1 -79.5 18t-152 34t-76.5 17q-4 2 -4 4
q-1 3 11 7l73.5 27t76.5 28q5 2 14 3q7 0 66 -10l57 -74q19 -22 36 -14l118 52q5 -1 14.5 -3t16 -3.5t7.5 -1.5z" />
    <glyph glyph-name="adversal" unicode="ADVERSAL" horiz-adv-x="512" 
d="M482 416q18 0 24 -6t6 -24v-388q0 -19 -6 -24.5t-24 -5.5h-453q-18 0 -23.5 5.5t-5.5 23.5v390q0 17 6 23t23 6h453zM178 228q14 -10 12 -28q-1 -8 -20.5 -11.5t-49 -7.5t-44.5 -11q-21 -11 -31.5 -30.5t-8.5 -41.5q3 -31 27.5 -47.5t58 -15t61.5 19.5q8 6 12 1
q1 -1 2 -3t2 -3q5 -7 22.5 -9.5t24.5 2.5q5 4 2 10q-6 14 -7.5 31t-1 30t-0.5 28v24.5v22.5t-0.5 19.5t-1.5 18t-3.5 14t-6.5 13t-9.5 9t-13.5 8.5q-64 26 -125 -5q-9 -5 -20 -18t-15 -26.5t10 -19.5q7 -4 23 -6q6 -2 10 -0.5t7 8.5q9 24 36.5 31.5t47.5 -7.5zM465 6
q0 5 -2 7.5t-3.5 2.5h-6h-5.5h-396q-1 0 -5.5 0.5t-6 0t-3.5 -3t-2 -7.5q-1 -5 1 -7.5t4 -3t6.5 0t5.5 0.5h395q1 0 5.5 -0.5t6.5 -0.5t4 2.5t2 8.5zM469 346v1q0 15 -14 14h-2.5h-3.5h-3q-20 0 -23 -3.5t-3 -22.5v-71q-23 13 -44 16.5t-35.5 -0.5t-27 -12.5t-19 -17
t-10.5 -17.5q-25 -50 -16 -100q6 -33 22 -56t36.5 -32.5t43 -8.5t42.5 12q1 1 3 2q2 2 4.5 2t5.5 -5q4 -6 9.5 -7t14.5 0t12 1q8 0 8 14v291zM417 114q-9 -23 -27.5 -31t-36 -0.5t-26.5 26.5q-23 51 1 101q12 26 38.5 27t42.5 -22q14 -19 14.5 -55t-6.5 -46zM123 79l-3 0.5
t-4.5 0.5t-5 1t-5 2t-4.5 2.5t-5 3.5t-3.5 4.5t-2.5 5.5t-1 7q-1 21 20 26q4 1 73 15q5 1 6.5 -1t1.5 -6v-3q1 -25 -18 -42t-49 -16z" />
    <glyph glyph-name="affiliatetheme" unicode="AFFILIATETHEME" horiz-adv-x="512" 
d="M159.5 210.5q-38.5 -53.5 -81 -79.5t-64.5 -9.5t-10 65.5t50.5 102t81 79t64.5 10t10 -65t-50.5 -102.5zM511 268q1 -13 1 -25q0 -75 -36.5 -138t-99 -100t-136.5 -37q-61 0 -115 26t-92 71q53 14 96 49t68 84q13 -51 49 -74q55 -33 132.5 9t132.5 135z" />
    <glyph glyph-name="algolia" unicode="Algolia" 
d="M229 265q37 0 63 -26t26 -63t-26 -63t-63 -26t-63 26t-26 63t26 63t63 26zM292 209q2 1 1 3q-20 36 -61 38q-3 0 -3 -3v-67q0 -4 4 -2zM389 416q16 0 29.5 -8t21.5 -21.5t8 -29.5v-330q0 -24 -17.5 -41.5t-41.5 -17.5h-330q-24 0 -41.5 17.5t-17.5 41.5v330
q0 24 17.5 41.5t41.5 17.5h330zM186 331h1v-15q0 -4 3 -3q19 5 39 5t39 -5q3 -1 3 3v15q0 8 -6 14t-14 6h-45q-8 0 -14 -6t-6 -14zM102 294q-6 -5 -6 -13t6 -14l8 -8q2 -2 4 1q7 9 15 17q7 8 17 15q3 2 0 4l-7 8q-6 5 -14 5t-14 -5zM229.5 50q52.5 0 89.5 37t37 89.5
t-37 89.5t-89.5 37t-89.5 -37t-37 -89.5t37 -89.5t89.5 -37z" />
    <glyph glyph-name="amilia" unicode="AMILIA" 
d="M240 416q97 0 144.5 -36.5t47.5 -99.5v-297q0 -7 -5 -9h-67q-53 0 -59 2q-7 1 -7 9v25q-31 -17 -75 -29.5t-78 -12.5q-31 0 -55 9t-36.5 22t-20.5 28.5t-10.5 26.5t-2.5 18v9v14t0.5 16t1.5 17.5t3.5 17t5.5 16.5t8 13t12 9q22 9 98.5 24t144.5 24v38q0 21 -1 31
t-6.5 21.5t-17.5 16t-33 4.5q-40 0 -83 -14.5t-70 -32.5q-4 -4 -10.5 -2.5t-9.5 8.5q-4 8 -10 39q-3 14 7 20q76 55 184 55zM290 68v107q-31 -3 -65.5 -13t-54.5 -21q-3 -1 -5.5 -3.5t-4 -4.5t-3 -5.5t-2.5 -6t-1.5 -6t-1 -6t-0.5 -6v-6v-5v-4.5q0 -5 2 -11.5t7.5 -14.5
t18.5 -13t31 -5q40 0 79 24z" />
    <glyph glyph-name="angrycreative" unicode="ANGRYCREATIVE" horiz-adv-x="640" 
d="M640 210l-3 -28l-35 -3l-2 -18l35 3l-3 -29l-35 -2l-2 -20l34 2l-3 -26l-64 -4l12 113l-47 -115l-32 -2l-24 118l31 2l13 -80l32 83zM427 76l13 120l28 2l-13 -120zM162 60l-19 36l-4 -38l-28 -1l3 29q-21 -34 -57 -36q-26 -1 -42.5 15t-14.5 43q2 24 20.5 44t47.5 22
q8 0 14.5 -1t11.5 -3t8.5 -4.5t6.5 -6t4.5 -6t3.5 -5.5l2 -3l3 31l39 2q37 3 42 -24l3 27l65 4l-3 -28l-36 -2l-2 -18l36 2l-2 -27l-37 -3l-2 -20l37 3l-2 -21l54 117l24 2l32 -111l9 86l-22 -2l3 28l75 5l-3 -28l-24 -2l-10 -92l-58 -3l-4 15l-40 -2l-8 -16zM118 130
l-27 -2q-9 17 -26 16q-7 0 -13 -3t-10.5 -8t-7.5 -10.5t-4 -11.5q-1 -13 6.5 -22.5t22.5 -8.5q16 1 29 19l27 1zM174 138q1 9 -5 11t-21 1l-3 -28q7 0 10.5 0.5t8.5 2t7 5t3 8.5zM195 67l6 60q-7 -18 -28 -27zM330 112l-8 38l-15 -40zM160 187l-4 17l-40 -2l-8 -19l-32 -2
l57 122l24 2l31 -102l10 104l27 2l38 -63l6 66l29 2l-4 -41q6 12 10.5 18.5t19.5 17t33 11.5q7 1 13 0t10.5 -2.5t8.5 -3.5t7 -4.5t5.5 -5t4 -5t2.5 -4.5t2 -3.5l1 -1.5l3 32l39 3q26 2 37 -10l-5 12l32 2l13 -43l23 46l31 2l-43 -78l-5 -45l-29 -2l5 45l-16 43
q2 -36 -32 -50l26 -39l-37 -2l-19 37l-4 -39l-28 -2l3 32q-1 -1 -3.5 -5t-4.5 -6.5t-6 -6.5t-8 -7t-9.5 -6t-12.5 -5t-16 -2q-41 -3 -55 39l-4 -40l-25 -2l-38 63l-6 -66zM437 269q15 1 21 4q7 4 8 12t-3 11q-6 3 -23 2zM328 234q8 -9 21 -8q7 1 13 4q8 5 15 14l-34 -2l3 24
l63 4l1 12l-31 -2q-7 6 -11 8q-7 3 -13 3q-11 -1 -22 -9q-11 -10 -13 -25q-1 -14 8 -23zM126 226l24 1l-8 38z" />
    <glyph glyph-name="app-store" unicode="App&#x2d;Store" horiz-adv-x="512" 
d="M256 327l9 16q4 7 12.5 9.5t15.5 -2t9.5 -12.5t-2.5 -16l-87 -151h63q15 0 22.5 -14t0.5 -27h-185q-9 0 -15 6t-6 14.5t6 14.5t15 6h52l66 115l-20 36q-5 8 -2.5 16t9.5 12.5t15.5 2t12.5 -9.5zM177 109l-19 -34q-5 -7 -13 -9.5t-15.5 2t-9.5 12.5t2 16l15 25
q24 7 40 -12zM346 171h53q9 0 15 -6t6 -14.5t-6 -14.5t-15 -6h-29l20 -34q4 -8 1.5 -16t-9.5 -12.5t-15.5 -2t-12.5 9.5q-17 31 -42 74t-33 57q-11 23 -7.5 41.5t14.5 27.5q12 -21 60 -104zM256 440q103 0 175.5 -72.5t72.5 -175.5t-72.5 -175.5t-175.5 -72.5t-175.5 72.5
t-72.5 175.5t72.5 175.5t175.5 72.5zM472 192q0 90 -63.5 153t-152.5 63q-90 0 -153 -63.5t-63 -152.5q0 -90 63.5 -153t152.5 -63q90 0 153 63.5t63 152.5z" />
    <glyph glyph-name="app-store-ios" unicode="APP&#x2d;STORE&#x2d;IOS" 
d="M400 416q20 0 34 -14t14 -34v-352q0 -20 -14 -34t-34 -14h-352q-20 0 -34 14t-14 34v352q0 20 14 34t34 14h352zM127 64l19 33q-15 19 -39 11l-15 -24q-4 -8 -1.5 -16t9.5 -12t15 -2t12 10zM266 117q7 13 -0.5 26.5t-22.5 13.5h-62l86 149q4 7 2 15t-9.5 12t-15.5 2
t-12 -9l-9 -15l-9 15q-4 7 -12 9t-15 -2t-9 -12t2 -15l20 -35l-65 -114h-51q-8 0 -14 -5.5t-6 -14t6 -14.5t14 -6h182zM364 117q8 0 14 6t6 14.5t-6 14t-14 5.5h-52q-16 28 -59 102q-11 -8 -14.5 -26t7.5 -41q9 -16 34.5 -60t39.5 -68q4 -8 12 -10t15 2t9.5 12t-1.5 16
l-20 33h29z" />
    <glyph glyph-name="apper" unicode="APPER" horiz-adv-x="640" 
d="M42 209q17 0 23.5 -3t10.5 -12v23q0 16 -18 16q-4 0 -6.5 -0.5t-4.5 -2t-2.5 -4t-1.5 -6.5h-38q0 18 6 24q9 12 46 12q44 0 54 -19q4 -9 4 -24v-76h-39l2 19h-1q-3 -8 -7 -12t-11 -6t-18 -2q-23 0 -32 8.5t-9 28.5q0 19 10 27.5t32 8.5zM59 161q10 0 13.5 2.5t3.5 10.5
q0 7 -4 9.5t-16 2.5q-17 0 -17 -12q0 -8 4 -10.5t16 -2.5zM137 256h38l-1 -21h1q6 13 13.5 17t23.5 4q21 0 32 -9q12 -11 12 -48q0 -40 -12 -53q-9 -10 -33 -10q-15 0 -22.5 4.5t-11.5 16.5h-1v-70h-39v169zM218 195q0 21 -4 27t-17 6t-17 -5.5t-4 -23.5q0 -21 4 -27.5
t18 -6.5q12 0 16 6t4 24zM276 256h38l-1 -21q7 13 14.5 17t23.5 4q21 0 31 -9q13 -11 13 -48q0 -40 -12 -53q-9 -10 -33 -10q-16 0 -23.5 4.5t-10.5 16.5h-1v-70h-39v169zM357 195q0 21 -4 27t-17 6t-17 -5.5t-4 -23.5q0 -15 2 -21.5t6 -9.5t13 -3q13 0 17 6t4 24zM410 199
q0 35 13 46q12 11 45 11q32 0 44 -12t12 -44v-11h-76v-5q0 -8 2 -13t6 -7t12 -2q11 0 14.5 3t3.5 11h38v-2q0 -16 -7 -25q-10 -13 -45 -13q-38 0 -50 12q-12 11 -12 51zM487 210v4q0 9 -4 12t-16 3q-11 0 -14 -3t-4 -12v-4h38zM542 256h39l-2 -20h1q9 20 29 20q17 0 24 -9.5
t7 -33.5v-10h-35v4q0 12 -2 16t-8 4q-10 0 -13 -9q-1 -4 -1 -13v-68h-39v119z" />
    <glyph glyph-name="asymmetrik" unicode="ASYMMETRIK" horiz-adv-x="576" 
d="M518 139q-21 -22 -49 -40l73 -110h-102l-46 71q-25 -10 -54 -18l33 -53h-136l23 37q-36 -4 -69 -3l-22 -34h-101l34 51q-69 28 -68 83q0 41 42 83q59 61 161 93q-29 -10 -62 -31q-49 -25 -79 -58q-43 -46 -37 -87.5t56 -63.5l190 286l151 -227q19 15 35 31q73 78 44 146
t-143 85q-107 17 -221 -14q-84 -14 -171 -58q90 50 200.5 73t206.5 9q54 -8 92.5 -27.5t57.5 -47t19 -60.5q-1 -57 -58 -116zM330 58q27 8 54 20l-79 122l-102 -159q33 -1 69 5l33 53z" />
    <glyph glyph-name="audible" unicode="AUDIBLE" horiz-adv-x="640" 
d="M640 248v-54l-320 -200l-320 200v54l320 -200zM446 176q-54 71 -138.5 81.5t-152.5 -45.5q-5 -4 -7 -6h-1q29 42 74.5 67t98.5 25q35 0 68 -11.5t59.5 -32t45.5 -48.5zM225 157q35 49 95 49t95 -49l-46 -29q-34 48 -86 48q-31 0 -58 -19zM104 287q-14 -11 -35 -33
q41 63 107.5 99.5t143.5 36.5t143.5 -36.5t107.5 -99.5l-49 -30l-1 1q-49 68 -122 100.5t-152 22.5t-143 -61zM571 254z" />
    <glyph glyph-name="avianex" unicode="AVIANEX" horiz-adv-x="512" 
d="M453 416q29 0 46 -20.5t12 -49.5l-57 -308q-5 -29 -29.5 -49.5t-53.5 -20.5h-312q-29 0 -46 20.5t-12 49.5l57 308q5 29 29.5 49.5t53.5 20.5h312zM395 69l6 8l-95 119l-4 7q7 5 13.5 10t10.5 8t7.5 5.5l3.5 2.5q6 5 5 14t-8 17t-16 10.5t-14 -2.5q-15 -14 -34 -32l-5 4
l-103 113l-9 -5l-19 -29l69 -100l21 -29q-21 -22 -33 -35l-58 31l-16 -16l52 -48l41 -61l18 13l-22 64q17 11 42 27l115 -110z" />
    <glyph glyph-name="aws" unicode="AWS" horiz-adv-x="640" 
d="M180 245q0 -10 2.5 -18t5.5 -13.5t3 -7.5q0 -4 -4 -6l-13 -9q-2 -2 -5 -2h-3t-6.5 6.5t-11.5 18.5q-6 -8 -16.5 -14.5t-22.5 -10.5t-22 -4h-1q-19 -1 -39.5 12t-18.5 44q-2 28 20 45t50 15q21 0 47 -6v16q3 20 -9.5 33t-34.5 10q-21 0 -46 -10q-6 -2 -11 -2q-5 1 -5 10.5
t2 13.5q5 5 25 11.5t41 6.5h7q27 0 49 -17q18 -20 18 -47q0 -3 -1 -6v-69zM94 213q22 0 34 9.5t15 20.5q2 8 2 27q-20 5 -39 5q-15 1 -29 -6.5t-13 -25.5q-1 -13 7.5 -22t22.5 -8zM265 190q-10 -1 -13 10l-50 165q-1 4 -1 8q-1 0 -1 1q0 4 4 4h23q10 1 12 -10l36 -141
l33 141q2 11 13 10h17q11 1 13 -10l33 -143l37 143q2 11 13 10h19h2t2.5 -2t1.5 -6q-1 -2 -53 -170q-2 -12 -13 -11h-18q-11 -1 -13 11l-33 137l-33 -137q-2 -12 -13 -10h-18zM538 184q-33 0 -57 12q-8 4 -8 12v11q0 9 9 6q19 -8 29 -10q35 -7 57 5q9 5 10.5 16.5t-5.5 18.5
q-2 2 -4 3l-5 2.5t-4.5 2.5t-6.5 2.5t-8 2.5t-11 3.5t-14 4.5q-7 1 -14.5 5t-18.5 17t-11 30q-1 22 18.5 39t50.5 17q8 0 18.5 -1.5t22 -5t15.5 -9.5q2 -3 2 -7v-10q0 -7 -5 -7q-2 1 -9 3.5t-17.5 5t-22.5 2.5q-4 0 -9.5 -0.5t-13 -2.5t-12 -7.5t-4.5 -14.5q0 -19 30 -27
q4 -1 14 -4t12.5 -3.5t9 -3t8.5 -3.5t6.5 -3.5t7 -5.5t5.5 -6q20 -25 5 -56q-18 -35 -70 -34zM579 79q-51 -38 -121.5 -58.5t-137.5 -20.5h-3q-75 0 -167 35.5t-147 85.5q-5 4 -2 8t9 1q61 -35 153.5 -59.5t162.5 -24.5h1q52 0 123 14.5t118 34.5q10 4 14.5 -3t-3.5 -13z
M608 112.5q-9 11.5 -82 2.5q-5 -1 -5.5 2.5t3.5 7.5q19 12 45 16.5t45 1.5t24 -8q7 -9 -4 -47.5t-36 -59.5q-4 -3 -7.5 -1.5t-1.5 5.5q28 69 19 80.5z" />
    <glyph glyph-name="bimobject" unicode="BIMOBJECT" 
d="M416 416q13 0 22.5 -9.5t9.5 -22.5v-384q0 -13 -9.5 -22.5t-22.5 -9.5h-384q-13 0 -22.5 9.5t-9.5 22.5v384q0 13 9.5 22.5t22.5 9.5h384zM352 159v35q0 42 -20 62t-84 20h-17q-64 0 -70 -39h-1v75h-64v-232h64v35h1q13 -39 70 -39h17q64 0 84 20t20 63zM288 188v-23
q0 -19 -7 -26.5t-31 -7.5h-46q-15 0 -24 2.5t-14.5 10.5t-5.5 22v20q0 20 10.5 27.5t33.5 7.5h46q24 0 31 -7.5t7 -25.5z" />
    <glyph glyph-name="bitcoin" unicode="BITCOIN" horiz-adv-x="512" 
d="M504 192q0 -103 -72.5 -175.5t-175.5 -72.5t-175.5 72.5t-72.5 175.5t72.5 175.5t175.5 72.5t175.5 -72.5t72.5 -175.5zM362 227q7 42 -54 63l11 45l-27 6l-11 -43q-8 2 -22 5l11 44l-27 7l-11 -45q-12 2 -18 4l-37 9l-7 -29h1t3.5 -0.5l5 -1t5 -1.5t3.5 -1h1
q14 -4 13 -16l-13 -51q2 -1 3 -1h-1t-2 1l-18 -72q-3 -8 -12 -6l-20 5l-13 -31l35 -9q2 -1 5 -1.5t5 -1t4.5 -1.5t4.5 -1l-11 -45l27 -7l12 44q10 -2 21 -5l-11 -45l27 -6l12 45q34 -9 59.5 -1t36.5 37q15 45 -25 66q29 7 34 40zM300 140q-1 -5 -4 -9t-7.5 -6t-9.5 -3.5
t-11.5 -1.5t-11.5 0.5t-12 2t-10.5 2.5t-10 2.5t-7.5 1.5l15 60q1 0 10 -2t14 -3.5t14 -4.5t14 -6.5t10.5 -8t7 -11t-0.5 -13.5zM309 228q-2 -5 -4 -8t-5 -5.5t-7 -3.5t-8 -1.5t-9 0t-8.5 0.5t-8.5 1.5t-8 2t-7.5 1.5t-5.5 2l14 54q1 0 7 -1.5t9.5 -2.5t10 -3t10 -4
t9.5 -5.5t7.5 -7t4 -9t-0.5 -10.5z" />
    <glyph glyph-name="bity" unicode="BITY" horiz-adv-x="496" 
d="M78 381q71 67 171 67t173 -71q6 -7 3.5 -15.5t-10.5 -10.5t-16 5q-63 61 -150 61t-149 -58q-7 -7 -15.5 -4t-10.5 10.5t4 15.5zM177 -38q-96 29 -145 115.5t-24 182.5q2 10 10.5 12t15 -4t4.5 -15q-22 -84 20.5 -159.5t126.5 -101.5q10 -3 12 -11.5t-4.5 -15t-15.5 -3.5z
M325 -36q-9 -3 -15 3t-4.5 15t11.5 12q79 26 120 99t23 154q-3 10 4 16t15.5 4t10.5 -12q21 -93 -26 -177t-139 -114zM262 43q0 -6 -4 -10.5t-10 -4.5t-10.5 4.5t-4.5 10.5v72q0 6 4.5 10.5t10.5 4.5t10.5 -4.5t4.5 -10.5zM334 312q0 10 8 14t16 0t8 -14v-71
q0 -48 -34.5 -69.5t-83.5 -21.5t-83.5 21.5t-34.5 69.5v71q0 10 8 14t16 0t8 -14q-1 -33 0 -57.5t8 -41t25.5 -25t52.5 -8.5q33 0 51.5 8t26 24t8.5 41t0 59z" />
    <glyph glyph-name="blackberry" unicode="BLACKBERRY" horiz-adv-x="512" 
d="M166 331q0 -20 -17 -34.5t-55 -14.5h-71l21 89h68q29 0 41.5 -12.5t12.5 -27.5zM292 371q29 0 41.5 -12.5t12.5 -27.5q0 -20 -16.5 -34.5t-53.5 -14.5h-70l18 89h68zM89 240q28 0 41 -12.5t13 -27.5q0 -49 -73 -49h-70l21 89h68zM269 240q28 0 41 -12.5t13 -27.5
q0 -49 -71 -49h-70l19 89h68zM458 294q29 0 41.5 -12.5t12.5 -27.5q0 -49 -70 -49h-70l18 89h68zM430 156q20 0 32.5 -7t17 -15.5t4.5 -17.5q0 -49 -70 -49h-70l18 89h68zM241 102q28 0 41 -12t12 -28q0 -49 -70 -49h-70l19 89h68z" />
    <glyph glyph-name="blogger" unicode="Blogger" 
d="M162 252q2 2 3.5 3t6 1.5t9.5 0.5h18q28 0 32 -2q8 -4 8 -14q0 -8 -7 -13q-3 -2 -31.5 -2t-31.5 1q-8 2 -10 10.5t3 14.5zM224 158q41 0 48.5 -1t11.5 -4q6 -5 5 -13t-8 -12l-9 -1l-48 -1q-52 0 -56 2q-8 3 -9.5 11.5t5.5 13.5q4 5 60 5zM447 27q-2 -14 -8.5 -25.5
t-17.5 -20t-25 -11.5q-8 -2 -173 -2t-172 2q-12 3 -22 10q-11 7 -17 16q-7 10 -10 22q-2 7 -2 174q0 166 2 173q5 19 18.5 32t32.5 18q5 1 169.5 1t170.5 -1q33 -7 48 -37q5 -11 6 -27t1 -153q0 -162 -1 -171zM362 213q-2 8 -8 11q-2 1 -15.5 1.5t-17.5 3.5q-8 4 -8 18
q0 31 -25 57q-19 18 -41 25q-5 1 -39 2q-50 0 -67 -7q-43 -16 -54 -62q-1 -6 -2 -64q0 -71 4 -85q7 -22 25.5 -38t39.5 -20q7 -1 66 -1.5t68 0.5q29 4 50 26q16 16 22 39q2 7 2.5 48.5t-0.5 45.5z" />
    <glyph glyph-name="blogger-b" unicode="Blogger&#x2d;B" 
d="M447 225q1 -5 0.5 -72t-3.5 -79q-10 -37 -35 -62q-12 -13 -24.5 -21.5t-27 -13.5t-30.5 -7q-14 -2 -109.5 -2t-106.5 2q-34 7 -63.5 32.5t-40.5 62.5q-5 15 -6 37.5t-1 98.5q1 94 3 104q9 35 31.5 61.5t54.5 39.5q18 7 37.5 8.5t71.5 1.5q56 -1 63 -3q37 -11 66 -41
q40 -41 41 -91q0 -22 12 -29q7 -5 29 -5.5t25 -2.5q10 -5 13 -19zM124 289q-9 -9 -5 -23t16 -18q6 -1 51 -1t50 3q12 8 12 22q0 15 -13 22q-6 3 -52 3q-36 0 -44.5 -1t-14.5 -7zM316 89q11 6 12.5 18.5t-7.5 20.5q-6 6 -18 7t-79 1q-66 0 -79 -1t-19 -5q-10 -10 -8 -23
q2 -14 15 -19q7 -3 91 -2l77 1z" />
    <glyph glyph-name="buromobelexperte" unicode="BUROMOBELEXPERTE" 
d="M0 416h128v-128h-128v128zM120 296v112h-112v-112h112zM160 416h128v-128h-128v128zM280 296v112h-112v-112h112zM320 416h128v-128h-128v128zM440 296v112h-112v-112h112zM0 256h128v-128h-128v128zM120 136v112h-112v-112h112zM160 256h128v-128h-128v128zM280 136v112
h-112v-112h112zM320 256h128v-128h-128v128zM440 136v112h-112v-112h112zM0 96h128v-128h-128v128zM120 -24v112h-112v-112h112zM160 96h128v-128h-128v128zM280 -24v112h-112v-112h112zM320 96h128v-128h-128v128z" />
    <glyph glyph-name="centercode" unicode="CENTERCODE" horiz-adv-x="512" 
d="M329 179.5q-3 -26.5 -23.5 -43t-47 -14t-43 23.5t-13.5 47.5t23.5 43t47 13.5t43 -23.5t13.5 -47zM243 -56q-71 4 -128.5 44t-85.5 103t-19 133q8 64 45.5 114.5t93.5 77.5q47 22 98 24t95.5 -16t80.5 -49t57.5 -77.5t23.5 -98.5q3 -109 -75 -184.5t-186 -70.5zM423 124
q8 34 -7 67.5t-41.5 58.5t-64 48t-67 36.5t-57.5 23.5q-43 -41 -51.5 -134t17.5 -210q51 -12 122.5 17.5t148.5 92.5z" />
    <glyph glyph-name="cloudscale" unicode="CLOUDSCALE" 
d="M318 294q3 3 6.5 2t4.5 -4.5t-1 -7.5l-76 -88q2 -14 -8 -24q-8 -8 -19.5 -8t-20 8.5t-8.5 20t8 19.5q10 10 23 9l26 20q-27 25 -63 25q-39 0 -66.5 -28t-26.5 -70q-1 9 -1 20q0 54 38 93t91 39q45 0 84 -34zM234 183q10 10 0 20t-20 0t0 -20t20 0zM224 416
q93 0 158.5 -65.5t65.5 -158.5t-65.5 -158.5t-158.5 -65.5t-158.5 65.5t-65.5 158.5t65.5 158.5t158.5 65.5zM224 32q66 0 113 47t47 113t-47 113t-113 47t-113 -47t-47 -113t47 -113t113 -47z" />
    <glyph glyph-name="cloudsmith" unicode="CLOUDSMITH" horiz-adv-x="332" 
d="M332 28q0 -23 -11 -42t-30.5 -30.5t-42.5 -11.5q-34 0 -59 24.5t-25 59.5t25 59.5t59.5 24.5t59 -24.5t24.5 -59.5zM248 272q-34 0 -57 -22.5t-23 -57.5q0 -34 -24 -57t-59.5 -23t-60 23t-24.5 57q0 35 25 61.5t59 26.5q35 0 55.5 20.5t20.5 55.5q0 34 26.5 59t61.5 25
t57.5 -24.5t22.5 -59.5t-22.5 -59.5t-57.5 -24.5z" />
    <glyph glyph-name="cloudversify" unicode="CLOUDVERSIFY" horiz-adv-x="616" 
d="M149 144h-49q-5 0 -8.5 3.5t-3.5 8.5v40q0 5 3.5 8.5t7.5 3.5h47v-7q0 -16 19 -16h20q6 0 10.5 2.5t7 7t2.5 9.5v21q0 19 -15 19q18 15 45 24q11 44 34 70.5t65 39.5q20 8 47.5 6t54 -9.5t50 -29t34.5 -52.5q54 -17 79 -61.5t13 -93.5q-10 -43 -45.5 -71.5t-85.5 -28.5
q-36 -37 -92.5 -38t-93.5 33q-59 -3 -99.5 28t-46.5 83zM376 136q6 -37 34.5 -51t57.5 -8t51 26.5t29 49.5q8 38 -10 72l-10 20q1 -20 -11.5 -43t-36.5 -34q31 35 27 67t-31.5 55.5t-63.5 27.5q-62 9 -114 -43q82 -8 102 -75q-14 23 -41 36t-51 12t-42 -7q-27 -14 -43 -39.5
t-14 -54.5q1 -8 2.5 -15t4.5 -13l5.5 -11t7.5 -10t7.5 -8t8 -7t8 -6t8 -5.5t6.5 -4.5q-5 22 1 50.5t28 42.5q-13 -22 -9 -47.5t23 -43.5t50 -25.5t71 5.5q-68 30 -55 87zM128 240h-40q-6 0 -11 5t-5 11v40q0 6 5 11t11 5h40q7 0 11.5 -5t4.5 -11v-40q0 -6 -4.5 -11t-11.5 -5
zM10 280q-10 0 -10 10v28q0 10 10 10h28q4 0 7 -3t3 -7v-28q0 -10 -10 -10h-28zM168 305v22q0 9 9 9h22q9 0 9 -9v-22q0 -9 -9 -9h-22q-9 0 -9 9zM56 212v-24q0 -5 -3.5 -8.5t-7.5 -3.5h-26q-4 0 -7.5 3.5t-3.5 8.5v24q0 5 3.5 8.5t7.5 3.5h25q12 0 12 -12z" />
    <glyph glyph-name="cpanel" unicode="CPANEL" horiz-adv-x="640" 
d="M210 228q3 -11 0.5 -22.5t-9.5 -21t-18 -16t-24 -6.5h-32l6 24q3 11 14 11h11q9 0 14.5 7t3.5 16q-3 14 -18 14h-20l-26 -95q-3 -11 -14 -11h-25l35 130q3 11 14 11h37q9 0 17.5 -3t15 -8.5t11.5 -13t7 -16.5zM54 200q-12 0 -17 -9.5t0 -19t17 -9.5h11q2 0 4 -1t2.5 -3
t0.5 -4l-8 -26h-12q-25 0 -41 20t-9 45q5 20 19 30.5t32 10.5h40l-6 -23q-3 -11 -15 -11h-18zM301 235q15 0 23.5 -11.5t5.5 -25.5l-14 -52q-5 -18 -24 -18h-57q-12 0 -20 7t-9.5 16t0.5 18.5t10 16t20 6.5h48l-4 -13q-3 -11 -14 -11h-21q-4 0 -4 -4t4 -4h35q4 0 5 6l9 31
q1 6 -2 6h-58q-7 0 -11.5 5.5t-2.5 12.5l3 14h78zM633 269q3 0 5 -2.5t2 -5.5l-27 -99q-4 -15 -16.5 -24.5t-28.5 -9.5l36 133q2 8 10 8h19zM397 234q17 0 30 -9t19 -24.5t1 -31.5l-9 -33q-2 -8 -10 -8h-19q-3 0 -5 2.5t-2 5.5l11 40q3 9 -3 16.5t-15 7.5h-20l-17 -64
q-2 -8 -10 -8h-19q-4 0 -6 2.5t-1 5.5l26 98h49zM495 160h73l-5 -21q-4 -11 -15 -11h-66q-15 0 -23.5 11.5t-4.5 25.5l10 40q3 8 8.5 15t13.5 10.5t17 3.5h47q15 0 23.5 -11t4.5 -25l-3 -12q-4 -18 -23 -18h-53l3 13q3 11 14 11h22q3 0 4 3l1 2q1 5 -4 5h-33q-7 0 -8 -6
l-8 -30q-2 -6 5 -6z" />
    <glyph glyph-name="css3-alt" unicode="Css&#x33;&#x2d;alt" horiz-adv-x="384" 
d="M0 416h384l-35 -396l-157 -52l-157 52zM313 336h-242l6 -47h123l-7 -3l-112 -47l4 -46v0l166 -1l-4 -61l-54 -15l-53 13l-3 38h-49l6 -74l99 -29l98 29l13 146h-111l115 50z" />
    <glyph glyph-name="cuttlefish" unicode="CUTTLEFISH" horiz-adv-x="440" 
d="M344 142q22 -82 87 -117q-35 -38 -82.5 -59.5t-100.5 -21.5q-103 0 -175.5 72.5t-72.5 175.5t72.5 175.5t175.5 72.5q53 0 100.5 -21.5t82.5 -59.5q-65 -35 -87 -117q-13 23 -40 38.5t-56 15.5q-42 0 -73 -31t-31 -73t31 -73t73 -31q19 0 38 7t34 19.5t24 27.5z" />
    <glyph glyph-name="d-and-d" unicode="D&#x2d;And&#x2d;D" horiz-adv-x="576" 
d="M82 349q-1 30 13 48q1 -13 4 -21q9 41 43 65q-4 -11 -3 -17q21 18 44 22q21 4 42 -1q56 -13 70 -72q7 -30 -8 -67q-9 -19 -21 -35l-3 3l-3 3q-28 27 -37 37q-2 2 0 4q12 21 10 44q-2 16 -12 26q-11 12 -26.5 11.5t-26.5 -11.5q-16 -18 -11 -44v-4q-6 -22 -3 -42v-1v-1
q-32 16 -43 52q-13 -28 -7 -54q-20 20 -22 55zM552 226l2 -2q-18 4 -45 -1q-15 -4 -26 -9q-2 -1 -8 -5q-16 6 -18 7q-37 8 -62 -20q-27 -30 -47 -75l-1 -2v-1q-2 1 -15 12t-22 14q1 0 1 0.5v0.5q34 46 75 71q26 15 52 18q3 0 5 1h-13q-28 -3 -59 -20q-22 -13 -36 -30l-1 -2
l-1 1q16 45 57 74l1 -1q-3 -4 -3 -5l-5 -10q-2 -5 2 -5t10 4q3 3 9.5 8.5t10 8t8.5 5.5t10 5t11 3h1h3q-1 0 -2 -1q-13 -9 -15 -12t-0.5 -5.5t4.5 -1.5q5 1 8 2q16 6 29 7q20 1 40 -8q23 -9 40 -26zM317 50q2 -1 1 -4q-44 -86 -116 -99q-43 -7 -78 9q-30 13 -48 36q0 1 -1 2
t-2.5 3t-1.5 3q-1 -10 1 -22v0l-10 10q-17 21 -24 52q-12 49 8 102q-11 -6 -24 -17q15 43 56 85q4 -3 3 -8q-6 -31 -5 -44q27 28 64 44q-10 -16 -11 -38q23 22 46 14q-32 -33 -39 -64q-8 -36 9 -63t49 -27q16 0 34 11q26 18 44 48l2 3q6 -5 43 -36zM489 97q32 -11 43 -39
q7 -17 2.5 -35.5t-19.5 -30.5q-24 -20 -57 -18h-2q24 -17 51 -10q0 -1 -2.5 -3.5l-3.5 -3.5q-17 -15 -43 -20q-30 -5 -54 10t-31 47l-1 7q-9 -7 -10 -22.5t10 -30.5q-1 0 -2 1h-2q-16 7 -25 20.5t-8 31.5q2 16 0 31t-13 25q-6 4 -13 10t-12 10t-12.5 10.5t-12.5 10.5
q-14 11 -17 25q-1 4 -2 14q0 9 -8 15q-2 1 -4 3t-5 4t-4 4q-16 13 -8 30q4 -18 23 -21h4t5 -0.5t4 -0.5q12 -2 14 -14q2 -9 3 -10q2 -8 10 -9h5.5t8.5 -1q11 -1 20 -8q9 -8 18.5 -16t21.5 -17.5t19 -15.5q9 -8 19 -8q13 -1 20.5 9t4.5 23v2q7 -5 7 -6q10 -10 13 -26.5
t-4 -29.5q-1 0 -8 -10q1 -1 2 -1q23 -2 39 9q12 8 13.5 21.5t-7.5 24.5q-6 6 -19 12q12 2 29 -3zM99 269q-6 11 -22 21q23 1 40 -4q-10 18 -5 39q7 -16 24 -27q6 -4 23 -14t23 -16q1 -1 10 -11q0 1 -1 3t-1 3q-7 15 -23 25q-3 2 -3 5q-5 17 -1 37q1 5 4 16q1 4 4 7
q3 -28 20 -46q8 -8 34 -33q19 -18 25 -26q3 -4 4 -5q-6 16 -24 34q-12 11 -29 27q-4 4 -5 11q-2 16 4 30q1 1 2 3l1 -11q3 -15 12 -26t32 -32l6 -6q18 -17 25 -31q8 -15 6 -30q0 -1 1 -2q10 -4 10 -14q9 3 16 14q2 -7 0 -16t-5.5 -17.5t-9.5 -15t-12 -9.5q2 24 -17 27
q-2 1 -23 3q11 20 1 22q-20 2 -36 0t-22 -5q16 0 24 -3q-6 -18 -6 -19q-2 -5 1 -9t8 0q1 0 2 1t2 1q-3 -16 -3 -18q0 -7 5.5 -8t9.5 1q-1 -9 -17 -18t-28 -8q12 8 16 18q-10 -1 -19 -3l-1 1q7 5 11 13q6 16 -1.5 27.5t-23.5 12.5q-15 1 -26 -5q9 22 32 34q-12 4 -24 7
q19 12 46 14q-5 1 -15.5 1.5t-27.5 -5.5t-27 -17q4 -1 23 -4q-32 -9 -62 -36q0 2 0.5 4t1 3.5t1 3.5t0.5 4q1 7 0 13q-2 15 -19 17q-9 1 -24 -2h-3q7 7 16.5 12.5t20 11t16.5 10.5q8 6 3 15zM228 242q1 -8 4.5 -13.5t8.5 -8.5t11 -2q-8 17 -24 24z" />
    <glyph glyph-name="deploydog" unicode="DEPLOYDOG" horiz-adv-x="512" 
d="M382 312h52v-240h-52v21q-14 -17 -36.5 -20t-37.5 5q-20 9 -32 28t-12 44q0 23 11.5 42.5t31.5 28.5q14 8 37 5.5t38 -18.5v104zM318 150q0 -14 9 -23.5t23.5 -9.5t24 10t9.5 23t-9.5 23t-23.5 10q-10 0 -17.5 -5t-11.5 -12.5t-4 -15.5zM188 312h52v-240h-52v21
q-13 -17 -36 -20t-37 5q-13 6 -23 16.5t-16 25t-6 30.5q0 23 11.5 42.5t32.5 28.5q14 8 36.5 5.5t37.5 -18.5v104zM124 150q0 -14 9.5 -23.5t23.5 -9.5t23.5 10t9.5 23q0 8 -4 15.5t-12 12.5t-17 5q-14 0 -23.5 -10t-9.5 -23zM448 352h-384q-13 0 -22.5 -9.5t-9.5 -22.5
v-256q0 -13 9.5 -22.5t22.5 -9.5h384q13 0 22.5 9.5t9.5 22.5v256q0 13 -9.5 22.5t-22.5 9.5zM448 384q26 0 45 -19t19 -45v-256q0 -26 -19 -45t-45 -19h-384q-26 0 -45 19t-19 45v256q0 26 19 45t45 19h384z" />
    <glyph glyph-name="deskpro" unicode="Deskpro" horiz-adv-x="480" 
d="M206 -64l31 38q23 1 37 7q7 4 13.5 9.5t10.5 11t7 12t4 11.5t2 9.5t1 7v3.5q0 4 -14 20q-3 3 -4.5 5t-4.5 5.5t-6 6.5h79q0 -51 -10 -76q-9 -21 -35 -42.5t-60 -26.5q-11 -1 -51 -1zM406 104h-119l17 31h176q-27 -31 -74 -31zM363 328v-169h-74l-33 -55h-6q-15 0 -26 6
t-17 13.5t-9.5 17.5t-4.5 14.5t-1 7.5q-1 10 -11 9t-9 -11q3 -35 26 -57h-91q-12 0 -28.5 6t-35.5 18t-31.5 35.5t-11.5 54.5v213q0 16 15 17h82h1q3 0 9.5 -0.5t16.5 -4t17 -13.5t7 -26q0 -10 10 -10t10 10q0 27 -16 44h84q38 0 65 -12.5t39.5 -33t17.5 -38.5t5 -36z
M230 272l64 -30q7 22 -5 37.5t-30 14t-29 -21.5z" />
    <glyph glyph-name="digital-ocean" unicode="DIGITAL&#x2d;OCEAN" horiz-adv-x="512" 
d="M87 -34v74h74v-74h-74zM25 101h62v-61h-62v61zM492 271q21 -64 8.5 -123t-45.5 -104.5t-86 -72.5t-113 -27v96v0q51 0 91 30t54 76.5t-3 101.5q-11 30 -33.5 52.5t-52.5 33.5q-55 17 -101.5 3t-76.5 -54.5t-30 -90.5h-96q0 60 27 113t72.5 86t104.5 45.5t123 -8.5
q56 -18 97.5 -59.5t59.5 -97.5zM256 40v0h-95v95h95v-95z" />
    <glyph glyph-name="discord" unicode="DISCORD" 
d="M297 205q0 -12 -7.5 -20.5t-18.5 -8.5q-7 0 -13 4t-9.5 10.5t-3.5 14.5q0 6 2 11t5.5 9t8.5 6t10 2q11 0 18.5 -8t7.5 -20zM178 233q11 0 18.5 -8t7.5 -20t-7.5 -20.5t-18.5 -8.5t-18.5 8.5t-7.5 20.5t7.5 20t18.5 8zM448 395v-459q-58 51 -119 108l14 -48h-291
q-21 0 -36.5 15.5t-15.5 37.5v346q0 22 15.5 37.5t36.5 15.5h344q21 0 36.5 -15.5t15.5 -37.5zM375 153q0 36 -9 73.5t-19 56.5l-9 19q-10 8 -21.5 13.5t-20 8t-15.5 4t-11 1.5h-4l-3 -4q19 -6 35 -14.5t22 -13.5l6 -5q-44 25 -96 26t-95 -18l-15 -8q21 20 67 34l-2 3
q-35 0 -72 -27q-4 -8 -10 -21t-16.5 -52.5t-10.5 -75.5q2 -5 7.5 -11t25.5 -17t45 -11q10 11 17 21q-14 4 -25.5 11.5t-15.5 13.5l-4 5q2 -1 4.5 -2.5t4.5 -2.5l2 -1q34 -19 75.5 -22.5t84.5 13.5q15 5 29 15q-13 -21 -46 -31l17 -20q16 0 29.5 4.5t22 10t15 11t8.5 9.5z
" />
    <glyph glyph-name="discourse" unicode="Discourse" 
d="M226 416q92 0 157 -66t65 -157.5t-65 -158t-157 -66.5h-226v228q0 91 67 155.5t159 64.5zM224 64q53 0 90.5 37.5t37.5 90.5t-37.5 90.5t-90.5 37.5t-90.5 -37.5t-37.5 -90.5q0 -33 15 -61l-23 -75l82 20q25 -12 54 -12z" />
    <glyph glyph-name="dochub" unicode="Dochub" horiz-adv-x="416" 
d="M398 288h-142v140zM304 256h96v-126q0 -194 -211 -194h-189v512h189q18 0 35 -3v-84q-15 2 -33 2h-95v-337h95q113 0 113 100v130z" />
    <glyph glyph-name="docker" unicode="DOCKER" horiz-adv-x="640" 
d="M350 212h-66v59h66v-59zM350 416v-61h-66v61h66zM428 271v-59h-66v59h66zM272 343v-60h-66v60h66zM350 343v-60h-66v60h66zM627 243l13 -9q-8 -15 -8 -17q-25 -46 -92 -45q-41 -99 -125.5 -151.5t-202.5 -52.5q-110 0 -166 66q-27 33 -38.5 78t-5.5 84h435q28 0 49 11
q-15 24 -13 53t16 51l9 14l14 -10q37 -27 42 -63q19 3 40.5 1t32.5 -10zM116 271v-59h-66v59h66zM194 271v-59h-66v59h66zM272 271v-59h-66v59h66zM194 343v-60h-66v60h66z" />
    <glyph glyph-name="draft2digital" unicode="DRAFT&#x32;DIGITAL" horiz-adv-x="480" 
d="M480 50l-144 -82v64h-336q89 93 161 175q3 3 9 10q21 24 32.5 38t21.5 37.5t7 41.5q-4 23 -28 34.5t-55 -0.5q-7 -3 -16.5 -11t-10.5 -14q11 -1 20 -6.5t15 -13t9.5 -17t3.5 -20.5q0 -23 -16.5 -40t-40.5 -17q-27 0 -44 21t-13 46t18 48q33 52 105 67q27 4 47.5 5
t40.5 -5t32 -10.5t23.5 -12.5t15.5 -11.5t7 -6.5q15 -16 24 -39t7 -54t-19 -60q-34 -62 -111 -150h91v65zM370 77v-54l47 27zM134 286.5q0 9.5 -6.5 16t-15.5 6.5t-16 -6.5t-7 -16t7 -16t16 -6.5t15.5 6.5t6.5 16zM82 68h115q90 98 128 166q16 33 15 58.5t-11 40.5l-9 15
q-35 36 -83 38q15 -12 25 -36q20 -52 -29 -113q-54 -66 -151 -169z" />
    <glyph glyph-name="dribbble-square" unicode="DRIBBBLE&#x2d;SQUARE" 
d="M90 220q7 31 27 56.5t49 39.5q26 -36 51 -80q-67 -17 -127 -16zM315 294q-22 -31 -72 -49q-23 43 -51 80q33 7 65 -1t58 -30zM140 84q8 15 22 31t37 31t49 24q21 -55 29 -104q-32 -14 -69.5 -9.5t-67.5 27.5zM239 192q-24 -7 -47 -21.5t-40.5 -32.5t-29.5 -38
q-35 40 -35 92v1.5v2.5q68 -2 141 19q7 -14 11 -23zM274 176q45 7 85 -6q-9 -58 -59 -92q-7 46 -26 98zM254 224q52 22 76 54q30 -37 31 -85q-47 11 -95 5q-6 14 -12 26zM448 368v-352q0 -20 -14 -34t-34 -14h-352q-20 0 -34 14t-14 34v352q0 20 14 34t34 14h352
q20 0 34 -14t14 -34zM384 192q0 66 -47 113t-113 47t-113 -47t-47 -113t47 -113t113 -47t113 47t47 113z" />
    <glyph glyph-name="dyalog" unicode="DYALOG" horiz-adv-x="416" 
d="M0 416h171q114 0 183 -70q62 -63 62 -154q0 -42 -16 -82t-46 -72t-77.5 -51t-105.5 -19h-171v64h171q86 0 133.5 48.5t47.5 111.5q0 64 -50 112t-131 48h-107v-55h-64v119z" />
    <glyph glyph-name="earlybirds" unicode="EARLYBIRDS" horiz-adv-x="480" 
d="M313 400q1 10 13 12t24 -3q1 0 4 -1.5l8 -4t7 -5t0 -4.5q-9 2 -17 1t-15 -2.5t-12.5 -2.5t-8.5 1.5t-3 8.5zM112 394q-5 3 5 9t16 7q13 5 26 3t14 -12q1 -8 -2.5 -10.5t-9.5 -1.5t-14 3t-16.5 3t-18.5 -1zM319.5 288q6.5 0 11 -4.5t4.5 -11.5t-4.5 -11.5t-11.5 -4.5
q-4 0 -7.5 2t-6 6t-2.5 8q0 7 5 11.5t11.5 4.5zM159.5 288q6.5 0 11.5 -4.5t5 -11.5t-5 -11.5t-11.5 -4.5t-11 4.5t-4.5 11.5t4.5 11.5t11 4.5zM478 125q-11 -27 -64 1q-20 -104 -126 -124q0 -1 2 -1h22q33 -2 97 8q-8 6 -11 15.5t-1.5 15.5t3.5 7l4 -0.5t9 -3.5t8 -8
q4 6 11 9.5t12.5 4.5t7 0t2 -6.5t-1 -13.5t-8.5 -15q8 2 10 2q5 2 9 -6q3 -6 -6 -7q-2 0 -47 -11q-45 -10 -117 -12l1 -12q2 -14 -11.5 -17t-16.5 11q0 -9 -6.5 -13t-14 -0.5t-7.5 14.5l-1 -5q0 -14 -14 -14t-14 14q-6 -10 -17 -6.5t-10 15.5l2 12q-17 0 -31.5 -1
t-22.5 -1.5l-8 -0.5q-8 0 -12 5t-4 11t4 11t12 5q1 0 8.5 -0.5t23.5 -1.5t31 -1q-98 25 -115 118q-57 -29 -68 -1q-6 15 6 28t46 35q10 7 15 11q1 10 2 19q-5 7 -7.5 15t-3.5 13.5t-2 15.5t-3 17q-23 -4 -23 23q0 12 2 15q1 1 3.5 1.5t5.5 1t4 0.5q2 11 10 18t23.5 10.5
t26 4.5t31.5 1q36 40 81 49q-7 8 -7.5 18t1.5 15.5t3 6.5t6.5 -1t11.5 -8t8 -14q3 4 7.5 6.5t8 3.5t4.5 0.5t2 -4.5t-0.5 -10.5t-6.5 -10.5q54 -5 96 -51q34 -1 54 -8t23 -26q1 0 4.5 -0.5t6 -1t2.5 -1.5q2 -3 2 -15q-1 -26 -23 -23q0 -2 -2.5 -20.5t-6.5 -27.5q4 -17 5 -36
q5 -4 12 -8.5t11.5 -7.5t10.5 -7.5t9.5 -7.5t7.5 -6.5t6 -7t3.5 -7.5t1.5 -7.5t-2 -7.5zM207 288q1 16 -5.5 25.5t-17.5 12t-25.5 3.5t-29.5 -1q-39 -1 -46 -14q-8 -15 1 -54.5t22 -46.5q7 -4 42.5 -3.5t44.5 10.5q4 5 7.5 18t5.5 27t1 23zM259 230q0 2 -3 12t-5.5 14.5
t-6.5 5.5q-1 1 -5 1t-6 -1q-3 0 -5.5 -4.5t-4 -9t-3.5 -11.5t-4 -12q9 0 16 -4.5t8 -4.5t3.5 2.5l6.5 6.5t9 5zM395 314q-6 13 -46 14q-21 1 -38.5 0.5t-28.5 -10t-11 -30.5q0 -15 4 -38t9 -30q9 -10 45 -11t42 4q12 6 22.5 45.5t1.5 55.5z" />
    <glyph glyph-name="erlang" unicode="ERLANG" horiz-adv-x="640" 
d="M87 394q-65 -79 -65 -192q0 -129 78 -212h-100v404h87zM325 385q35 0 57.5 -23t23.5 -60h-170q3 36 28.5 59.5t60.5 23.5zM556 394zM556 394h84v-405h-81q32 34 58 81l-96 48q-65 -105 -152 -106q-71 1 -105 54t-34 142h373v24q3 95 -47 162z" />
    <glyph glyph-name="facebook-f" unicode="Facebook&#x2d;f" horiz-adv-x="320" 
d="M279 160h-75v-224h-100v224h-81v93h81v70q0 40 15 68t42.5 42.5t63.5 14.5q16 0 34 -1.5t28 -3.5l10 -1v-79h-40q-28 0 -40.5 -14.5t-12.5 -35.5v-60h89z" />
    <glyph glyph-name="facebook-messenger" unicode="FACEBOOK&#x2d;MESSENGER" horiz-adv-x="512" 
d="M257 440q105 0 176 -68.5t71 -172.5q0 -84 -48 -145.5t-121.5 -84t-149.5 -1.5q-2 1 -3 1h-2h-3t-3.5 -0.5t-4 -1.5t-5 -2.5t-7.5 -3.5t-9 -4t-11.5 -5t-14.5 -6q-4 -2 -8 -2q-8 0 -14 5.5t-6 13.5v14t-0.5 11.5t-0.5 9v7t-0.5 5t-1 4t-1.5 3t-1.5 2.5t-2.5 2
q-78 70 -78 178q0 51 19.5 96t52.5 76.5t79 50t98 18.5zM406 255q5 8 -2 14.5t-15 0.5l-79 -59q-4 -3 -9 -3t-9 3l-58 44q-10 7 -22 7q-21 0 -32 -17l-73 -116q-3 -5 -0.5 -10.5t7.5 -7t10 1.5l79 60q4 3 9 3t9 -3l58 -44q10 -7 22 -7q21 0 32 17z" />
    <glyph glyph-name="firstdraft" unicode="FIRSTDRAFT" horiz-adv-x="384" 
d="M384 256h-64v-128h-128v-128h-192v26h166v128h128v128h90v-26zM358 218h26v-154h-128v-128h-192v26h166v128h128v128zM384 26v-26h-64v-64h-26v90h90zM0 448h384v-128h-128v-128h-128v-128h-128v384z" />
    <glyph glyph-name="fonticons-fi" unicode="FONTICONS&#x2d;FI" horiz-adv-x="384" 
d="M114 224h93l-15 -51h-77v-158v-5q-1 -4 5 -5l59 -6v-34h-179v35l29 3q9 1 9 11v156q0 3 -8 3h-30v51h38v29q0 50 26.5 73t79.5 23q42 0 65.5 -15.5t23.5 -57.5l-69 -8q0 19 -5 25.5t-18 6.5q-12 0 -18 -5t-7 -12t-1 -21v-32q0 -1 -0.5 -2l-1 -2t-0.5 -1.5t1 -0.5z
M384 -35h-141v34l28 4q11 1 11 10v148q0 8 -10 11l-33 9l9 40h110v-208v-6q-1 -2 0 -2.5t4 -1.5l22 -4v-34zM354 312l12 -45l-10 -10l-42 22l-43 -22l-10 10l12 45l-30 37l5 10h38l21 38h13l21 -38h38l5 -14z" />
    <glyph glyph-name="fort-awesome-alt" unicode="FORT&#x2d;AWESOME&#x2d;ALT" horiz-adv-x="512" 
d="M208 211q4 0 4 -4v-52q0 -3 -4 -3h-22q-4 0 -4 3v52q0 4 4 4h22zM326 211q4 0 4 -4v-52q0 -3 -4 -3h-22q-4 0 -4 3v52q0 4 4 4h22zM458 336q46 -65 46 -144v-6v-2v-4v-1v-1l-1 -1v-1v-1v-4v-2.5t-0.5 -1.5t-0.5 -2v-1v-1q-1 -3 -1 -4v-1v-1l-1 -6v-1q0 -2 -1 -4v-1.5
v-1.5q-1 0 -1 -1.5v-1.5l-0.5 -1t-0.5 -1.5v-1.5t-0.5 -1.5t-0.5 -1.5v-1.5t-0.5 -1.5l-0.5 -1q0 -1 -1 -3v-3q-1 0 -1 -1v-1q-1 -2 -1 -3q-1 -2 -2 -5q0 -2 -1 -3l-0.5 -1t-0.5 -1.5t-0.5 -1.5l-0.5 -1l-1 -3l-1 -1v-1q-1 -2 -1 -3l-1 -3q-1 0 -2 -2v-1.5t-0.5 -1t-1 -1.5
t-0.5 -2l-1 -1q0 -1 -0.5 -2t-1.5 -2v0q-4 -8 -7 -12v-1q-1 -1 -1.5 -2t-0.5 -2l-1 -1q-2 -3 -2 -3.5t-0.5 -1l-0.5 -0.5l-1 -1t-1 -2l-1 -1q0 -1 -1 -2t-1 -2h-1q-59 -86 -160 -103h-1h-1.5h-1.5t-1.5 -0.5t-1.5 -0.5h-1.5h-1.5h-1q-2 -1 -3 -1h-2h-1.5h-1.5h-1h-3t-2 -0.5
t-1.5 -0.5h-1h-1.5h-4h-1h-1h-3h-3h-6h-2h-2h-2h-1h-1.5t-1.5 0.5t-1.5 0.5h-1.5h-1.5h-1.5h-1.5h-1.5h-1q-2 1 -3 1h-3h-2h-1q-1 1 -3 1h-1.5h-1.5q-100 17 -160 100v1l-3 3q0 1 -0.5 1.5t-1 1.5t-1.5 1v0.5t-1 1.5q-1 2 -1.5 2.5t-0.5 1.5q-1 1 -1.5 2l-0.5 1q0 1 -0.5 1
t-0.5 1q-3 4 -7 12v0q0 1 -1 2t-1 2q-1 1 -1 1.5t-0.5 1.5t-0.5 1.5t-0.5 1t-0.5 1t-0.5 1.5t-0.5 2l-1 2q-1 0 -1.5 1t-0.5 1.5v1t-1 1.5l-1 3l-0.5 1l-0.5 1q-1 2 -1 3q0 2 -1 3q0 1 -0.5 2.5t-1.5 2.5v3q-1 0 -1 1v1q-1 2 -1 3t-0.5 1.5t-0.5 1v1.5t-0.5 1.5t-0.5 1.5v1
q-1 1 -1 3v2t-0.5 1.5t-0.5 1.5v1.5t-0.5 1t-0.5 1.5v1.5t-1 2.5v1l-1 6v1v1q-1 3 -1 4v1v1v2v2v2q-1 2 -1 4v1v1v4v1v1v2t-1 2v2v3v3q0 79 46 144q3 4 7 9q8 10 16 18q4 4 8 9q6 5 9 8q7 5 14 11q3 2 5 3q42 30 93 41q24 5 50 5q25 0 50 -5q51 -10 94 -41l2 -1.5l2 -1.5
q8 -6 14 -11q18 -16 33 -35q3 -3 7 -9zM448 76v72q0 4 -4 4h-22q-4 0 -4 -4v-26h-29v144q0 4 -4 4h-22q-4 0 -4 -4v-26h-29v26q0 4 -4 4h-22q-4 0 -4 -4v-26h-29v26q0 4 -10 4v30q12 3 21 3q5 0 13 -1.5t13 -1.5q22 0 22 6v49q0 3 -4 3q-2 0 -8.5 -1.5t-10.5 -1.5t-13 1.5
t-14 1.5q-8 0 -19 -2v4q8 3 8 11q0 13 -13 13t-13 -13q0 -8 8 -11v-90q-10 0 -10 -4v-26h-29v26q0 4 -4 4h-22q-4 0 -4 -4v-26h-29v26q0 4 -4 4h-22q-4 0 -4 -4v-144h-29v26q0 4 -4 4h-22q-4 0 -4 -4v-72q14 -23 34 -42q31 -31 71 -48q21 -9 43 -14v76q0 28 22 39.5t44 0
t22 -39.5v-76q22 5 43 14q40 17 71 48q20 19 34 42z" />
    <glyph glyph-name="freebsd" unicode="FREEBSD" 
d="M304 352q15 15 69.5 41.5t69.5 11.5t-11.5 -69.5t-41.5 -69.5q-9 -9 -27.5 -2t-36 24.5t-24.5 36t2 27.5zM110 380q-48 -30 -76 -79q-49 85 -28 106q20 20 104 -27zM407 274q6 10 11 19q27 -49 27 -106q0 -89 -63 -152.5t-152.5 -63.5t-152.5 63.5t-63 152.5
q0 59 29 108.5t78.5 78.5t108.5 29q52 0 99 -25q-9 -5 -19 -11q-20 3 -24.5 -11t9.5 -38q17 -33 55.5 -59t53.5 -11q8 8 3 26z" />
    <glyph glyph-name="gitkraken" unicode="GITKRAKEN" horiz-adv-x="592" 
d="M566 330q18 -49 18 -102q0 -116 -80.5 -199.5t-195.5 -87.5v146q-12 -1 -24 0v-146q-115 4 -195.5 87.5t-80.5 199.5q0 53 18 102q5 11 16 6q10 -4 6 -14q-17 -45 -17 -94q0 -100 66 -174.5t164 -87.5v124q-11 2 -23 6v-104q-53 13 -95 47t-66.5 83.5t-24.5 105.5
q0 68 34.5 125t91.5 89q11 6 16 -5q5 -10 -5 -15q-52 -29 -83 -80.5t-31 -113.5q0 -69 39 -124.5t101 -80.5v92q-7 3 -12.5 7.5t-9 11.5t-3.5 15q0 20 18 30q-3 27 -10.5 43t-15 20t-13.5 8.5t-6 12.5v15q0 30 50 96.5t79 68.5h8q29 -2 79 -68.5t50 -96.5v-15q0 -6 -4 -10
t-9.5 -7.5t-11.5 -9.5t-11.5 -20.5t-8.5 -36.5q18 -10 18 -30q0 -12 -7 -21t-18 -13v-92q62 25 101 81t39 125q0 61 -31 112.5t-83 80.5q-10 5 -5 15q5 11 16 5q38 -21 66 -53t44 -73.5t16 -86.5q0 -86 -52.5 -152t-133.5 -85v104q-12 -4 -23 -6v-124q64 8 116.5 45t83 94
t30.5 124q0 48 -17 93q-4 10 6 14q11 5 16 -6zM366 172q-10 0 -17 -6.5t-7 -16.5q0 -7 3.5 -12.5t8.5 -8.5t12 -3q10 0 17 7t7 17t-7 16.5t-17 6.5zM226 125q5 0 9.5 2t7.5 5t5 7.5t2 9.5q0 10 -7 17t-17 7t-17 -7t-7 -17t7 -17t17 -7z" />
    <glyph glyph-name="gofore" unicode="Gofore" horiz-adv-x="400" 
d="M324 128q19 0 33 -8t21 -21t10 -24.5t4 -24.5q-68 -82 -171 -82q-93 0 -157 66t-64 158q0 93 64.5 158.5t156.5 65.5q91 0 156 -66l-63 -63q-38 39 -93 39t-94 -39t-39 -95t39 -95t94 -39q52 0 90 36v34h13zM312 241q37 0 62.5 -26.5t25.5 -74.5v-30q-24 42 -76 42h-118
v89h106z" />
    <glyph glyph-name="goodreads" unicode="GOODREADS" 
d="M300 257q3 -20 0 -38.5t-12 -35t-24 -27.5q-16 -11 -37 -12t-34 6q-26 13 -37.5 39.5t-9.5 58.5q3 42 25 64.5t51 22.5q23 0 39.5 -10t26 -27t12.5 -41zM448 360v-336q0 -23 -16.5 -39.5t-39.5 -16.5h-336q-23 0 -39.5 16.5t-16.5 39.5v336q0 23 16.5 39.5t39.5 16.5h336
q23 0 39.5 -16.5t16.5 -39.5zM330 135v217h-29v-40q-1 0 -2 1q-8 18 -28 32t-48 14q-38 0 -64 -21t-36 -57q-6 -21 -6 -45q1 -58 31 -88t82 -28q46 2 69 46l1 2h1v-17v-17q0 -25 -7 -44q-12 -32 -45 -39q-27 -6 -53 1q-35 10 -41 42q0 1 -2 1h-27q1 -17 8 -29
q17 -29 56.5 -38.5t72.5 0.5q67 17 67 107z" />
    <glyph glyph-name="goodreads-g" unicode="GOODREADS&#x2d;G" horiz-adv-x="384" 
d="M43 45h2h39q3 0 3 -3q10 -48 63 -63q39 -11 81 -2q50 11 68 60q11 28 11 67q1 7 1 28t-1 24l-1 1q0 -1 -1 -2.5t-1 -2.5q-17 -32 -44.5 -49.5t-61.5 -19.5q-51 -2 -89 17.5t-59.5 60t-23.5 99.5q0 37 9 69q16 55 55.5 87t98.5 32q28 0 53 -11.5t40 -26.5t23 -32
q1 -3 2 -2v61h44l1 -332q-1 -137 -103 -162q-37 -7 -73.5 -6.5t-71 17.5t-51.5 46q-11 19 -13 45zM189 412q-43 0 -77 -34.5t-38 -99.5q-3 -49 14 -89.5t57 -59.5q20 -11 52.5 -9.5t56.5 18.5q34 23 47.5 65.5t6.5 88.5q-7 56 -37 88t-82 32z" />
    <glyph glyph-name="google-drive" unicode="GOOGLE&#x2d;DRIVE" horiz-adv-x="512" 
d="M339 133l-164 283h162l163 -283h-161zM202 110h310l-81 -142h-310zM154 381l83 -142l-156 -271l-81 142z" />
    <glyph glyph-name="google-play" unicode="GOOGLE&#x2d;PLAY" horiz-adv-x="512" 
d="M325 214l-220 221l280 -161zM47 448l257 -256l-257 -256q-22 11 -22 35v442q0 24 22 35zM472 222q14 -10 14.5 -30t-13.5 -30l-60 -34l-65 64l65 64zM105 -51l220 221l60 -60z" />
    <glyph glyph-name="gripfire" unicode="GRIPFIRE" horiz-adv-x="384" 
d="M112 147q0 -5 1 -10.5t2 -9t4 -9t4 -8t5 -9t5 -7.5t6.5 -8.5t5.5 -8.5q2 -2 5 -6q13 -18 20 -28t13 -25t6 -27q0 -25 -17 -47q0 2 2.5 9.5t2.5 12.5q0 31 -79 87q-21 18 -33 30.5t-22.5 33.5t-10.5 44q0 32 15 63t37 55.5t43.5 48.5t36.5 50.5t15 51.5q0 5 -1 10
q4 -2 13 -13.5t18 -33.5t9 -43q0 -27 -16.5 -55.5t-36.5 -49t-36.5 -47.5t-16.5 -51zM318 186q2 -13 2 -25q0 -67 -67 -137l-3 -2q-4 0 -20 22.5t-16 30.5q5 6 12 16.5t18.5 36.5t11.5 44q0 17 -9 33q-1 -14 -15 -36t-28 -36.5t-15 -14.5t-2.5 1.5t-3.5 4.5t-4 7t-4 8.5
t-3 10t-1 10.5q0 8 3 16l9.5 13.5t19.5 29.5t18.5 37t8.5 36q0 10 -3 17l-4 7q19 -7 53 -47t42 -83z" />
    <glyph glyph-name="grunt" unicode="GRUNT" horiz-adv-x="384" 
d="M61 259q1 9 7 12q-7 2 -13 4q46 11 83 -32q7 -9 16 -11t14 0l6 2q0 -8 -6.5 -13.5t-15.5 -5.5q1 -5 -0.5 -9.5t-3.5 -8.5t-4 -7.5t-4 -5.5l-2 -2q1 1 1 2t1 4t1.5 6t0.5 7t-1 7q-1 4 -3 8q-9 -9 -21 -8t-20.5 5t-13.5 9q-12 13 -13 34q-3 -6 -4 -16q0 1 -1 2.5t-2.5 6.5
t-1.5 10zM90 260q-3 -6 -1.5 -18t7.5 -17q18 -13 38 -1q-12 18 -44 36zM232 215q-9 0 -15.5 5.5t-6.5 13.5q19 -10 36 9q37 43 83 32q-6 -2 -13 -5q6 -2 7 -11q0 -5 -1 -9.5t-3 -7.5l-1 -2q-1 9 -4 16q-2 -21 -13 -34q-3 -3 -9 -6.5t-14 -6t-16.5 -1t-15.5 7.5q-2 -5 -3 -8
q-1 -6 -0.5 -11.5t1.5 -10.5l2 -4q-2 2 -4.5 5.5t-6.5 12t-3 15.5zM294 260q-32 -18 -44 -36q19 -12 37 1q7 5 8.5 17t-1.5 18zM160 30q6 0 8.5 -3t1.5 -7q-4 -10 -13 -20q-5 -4 -11.5 -4t-11.5 4q-10 9 -14 18q-2 6 1 9t10 3h29zM349 131l8 -8t11 -23.5t2 -39.5
q-7 -40 -47 -55q-20 -45 -67 -49q-24 -20 -64 -20t-63 20q-47 4 -68 49q-19 7 -31 20.5t-16 34.5t1.5 39t12.5 25l7 7q3 -26 25 -44q3 27 3 62q0 10 -4.5 17t-7.5 9t-8 5q-13 7 -19.5 11t-14 13t-7.5 20q0 16 16 27q0 1 1 1.5l1 0.5q4 3 4 5q3 6 3.5 20.5t-1.5 16.5
q-17 20 -12 39q3 12 14 17q8 4 20 5q0 2 1 6q1 5 1 8q-1 9 -3 11q-3 6 -10.5 10.5t-12.5 6t-6 1.5l-12 2l8 9q18 18 46 18q12 0 24 -4q27 -8 50 -39q4 2 6 2q-1 18 9.5 32.5t18.5 15.5v-5t0.5 -8.5t2 -8t4.5 -5.5q4 28 39 40q-6 -17 2 -37q9 8 17.5 12t12.5 4l4 -1
q-2 -2 -4 -6.5t-4.5 -14.5t-0.5 -17q5 -1 9 -3q23 31 50 39q12 4 24 4q13 0 24.5 -4.5t16.5 -8t5 -4.5l8 -10l-12 -2q-1 0 -6 -1.5t-12 -6t-11 -10.5q-2 -2 -2 -11q-1 -3 1 -8v-6q12 0 20 -4q11 -6 14 -18q2 -8 -1 -18t-6 -14.5t-5 -6.5t-1.5 -16.5t3.5 -20.5q1 -2 4 -5
q1 0 2 -1q16 -12 16 -28q0 -10 -7.5 -19.5t-14 -13.5t-19.5 -11q-7 -4 -8 -4q-3 -3 -7.5 -10t-4.5 -17q0 -35 4 -62q21 18 24 44zM306 410q-21 -6 -38 -32q2 -1 5 -2q4 -2 7 -4q6 12 20 23q13 9 29 9q5 0 9 -1q5 3 10 5q-12 5 -25 5q-9 0 -17 -3zM327 392q-11 0 -20 -7
t-13 -22q6 -6 10 -12q5 2 12 3q3 5 4 17.5t4 17.5zM46 403q4 0 9 1q16 0 28 -9q15 -11 21 -23q5 3 7 4t5 2q-17 26 -38 32q-8 3 -17 3q-13 0 -25 -5q5 -2 10 -5zM90 363q-4 15 -13 22q-8 7 -20 7l3 -3q3 -6 4 -18t4 -17q5 -1 12 -3q3 6 10 12zM58 188q18 -10 19 -34
q2 -25 -3 -76q15 -6 39 -7q4 7 6 13q17 48 26 62q-6 -43 -23 -89q6 1 12 1h116q7 0 12 -1q-17 46 -23 89q11 -17 26 -62q2 -6 6 -13q24 1 39 7q-5 51 -3 76q1 24 19 34q7 4 8 5q10 5 15 8t10.5 9.5t5.5 12.5q0 11 -9 18l-1 1l-1 0.5t-1 1.5q2 -13 3 -15q-12 15 -16 44
q-3 25 5 43v-14l2 2q12 15 9 26q-1 6 -7 8q-5 3 -15 3q-14 0 -33 -6q-26 -8 -64 -38l-6 -4l4 6q22 33 53 47q-5 6 -22 15q-32 15 -74 15t-74 -15q-17 -9 -22 -15q32 -14 53 -47l4 -6l-6 4q-38 30 -64 38q-19 6 -33 6q-9 0 -15 -3q-6 -2 -7 -8q-3 -11 9 -26l2 -2v14
q8 -18 5 -43q-2 -13 -5.5 -24t-6.5 -16l-4 -4q2 2 3 15l-2 -2l-1 -1q-8 -7 -8 -18q0 -9 7.5 -15.5t22.5 -14.5q6 -4 8 -5zM35 43q18 -29 58 -29q-7 20 4 32l1 1q5 5 8 10q-61 3 -75 45q-5 -2 -4.5 -23.5t8.5 -35.5zM80 0q13 -18 31 -26q-6 9 -12 24q-9 0 -19 2zM192 -50
q62 0 85 64q5 16 -1 24q-6 7 -25 7h-118q-19 0 -25 -7.5t-1 -23.5q23 -64 85 -64zM273 -26q18 8 31 26q-10 -2 -19 -2q-6 -15 -12 -24zM349 43q8 14 8.5 35.5t-4.5 23.5q-14 -42 -74 -45q3 -5 7 -10l1 -1q11 -12 4 -32q41 0 58 29zM192 260q-6 0 -12.5 4.5t-10.5 9.5l-4 4
q13 -8 27 -8t27 8q-14 -18 -27 -18zM254 30q6 -1 9 -3.5t1 -7.5q-4 -10 -14 -18q-5 -5 -11.5 -5t-11.5 5q-9 10 -13 19q-1 4 1.5 7t8.5 3h30z" />
    <glyph glyph-name="gulp" unicode="GULP" horiz-adv-x="256" 
d="M210 57l-14 -25l-5 -80q0 -7 -18.5 -11.5t-44.5 -4.5q-17 0 -31.5 2t-23 6t-8.5 8l-6 80l-15 25q31 -13 83.5 -13t82.5 13zM14 310q23 -13 114 -12.5t114 12.5l-15 -136q-12 -11 -16 -14q-7 -5 -8 -5q-3 0 -3 2q1 0 6 6q13 16 13 23q0 4 -3 6.5t-9 1.5t-13 -7l-5 -5
q1 3 1 6q0 4 -4 4q-1 0 -3 -1q-2 -3 -5 -12q0 -1 -2 -5l-1 -1q-16 -17 -23 -17q-2 0 -1 6q2 4 9 22q0 2 5 13.5t8 18.5q2 5 4 9q0 1 1 2q1 4 -1 6q-2 1 -3 1q-5 0 -7 -5q-25 -64 -26 -68q-4 -3 -7 -4q-7 -3 -7 1t3 12q1 3 3.5 8.5t3.5 7.5q2 5 0 7t-4 2q-3 0 -5 -5
q-1 -3 -2 -5q-1 -5 -5 -13q-5 -9 -11 -13q-4 -2 -7 -2q-4 0 -2 9q2 5 10 20q2 6 -1 8h-1q-5 2 -8 -4q-4 -9 -7 -16q-7 -19 -5 -24t9 -5q14 0 22 15q-3 -14 4 -15.5t16 7.5q0 -1 0.5 -1.5l0.5 -0.5q2 -9 14 -4q7 3 15 11l-1 -3q-15 -33 -15.5 -34t-0.5 -3t2 -3q2 -2 6 -1
q2 2 4 5q0 1 0.5 1.5t0.5 1t1 4t3 7.5q3 8 9 22q4 9 9 15q4 7 8 10q10 7 12 3q0 -3 -5 -8q-14 -19 -14 -22q0 -6 6.5 -7t10.5 1q7 3 20 15l-11 -95q-1 -2 -12 -6t-32.5 -7.5t-44 -3.5t-43.5 3.5t-32 7.5t-12 6l-8 80q3 -2 8 -2q9 0 21 12q3 2 7 6q-7 -21 -8 -25q0 -5 1 -6
q1 -2 3 -2q4 0 6 8q2 6 8 26q2 8 5 15.5t4 11t1 7.5q0 3 -2 4.5t-4.5 0.5t-3.5 -5l-5 -15q-4 -7 -13 -16q-10 -10 -16 -10q-3 0 -5 3q-3 7 1 20q4 14 12 28.5t17 20.5q11 8 17 -3q4 -7 7 -7q6 0 4 9q-1 7 -10 12t-19 1q-13 -6 -24 -22t-16 -33zM244 319q0 -10 -58 -14
t-116 0t-58 14q0 6 34 11t82 5q15 0 26 -1l13 49l61 64q3 3 10 -3q8 -7 5 -9v-1l-57 -60l-10 -41q68 -4 68 -14zM174 314q0 1 -2 2l-1 -1q0 -2 -11 -2t-11 2v1h1q-4 -1 -4 -2q0 -4 14 -4t14 4z" />
    <glyph glyph-name="hacker-news-square" unicode="HACKER&#x2d;NEWS&#x2d;SQUARE" 
d="M400 416q20 0 34 -14t14 -34v-352q0 -20 -14 -34t-34 -14h-352q-20 0 -34 14t-14 34v352q0 20 14 34t34 14h352zM21 219zM239 165l81 155h-35q-24 -45 -35.5 -68.5t-17 -37.5t-7.5 -20q-2 5 -6.5 16t-8 19.5t-15 32.5t-30.5 58h-37l80 -153v-103h31v101z" />
    <glyph glyph-name="hire-a-helper" unicode="HIRE&#x2d;A&#x2d;HELPER" horiz-adv-x="512" 
d="M443 448q2 -18 11.5 -33.5t24.5 -25.5t33 -13v-370q-27 -3 -46.5 -23t-21.5 -47h-372q-5 27 -24.5 46t-47.5 23v371q28 3 48.5 23.5t23.5 48.5h371zM406 43q6 0 5.5 5.5t-5.5 5.5q-14 5 -22 14q-5 9 -6.5 33.5t-1.5 94.5v101q0 10 4.5 17t10 10t14.5 5q6 2 4.5 7t-5.5 5
q-18 0 -28.5 -1t-28.5 -1q-16 0 -24.5 1t-24.5 1q-3 0 -4.5 -4.5t3.5 -6.5l3 -0.5t4.5 -1.5t5 -3t5.5 -4.5t4.5 -6.5t3.5 -10t1 -13q0 -58 -1 -69q0 -1 -0.5 -4t-4 -6t-7.5 -3h-110q-4 0 -7.5 3t-4 6t-0.5 4q-1 11 -1 69q0 7 1 13t3.5 10t4.5 6.5t5.5 4.5t5 3t4.5 1.5l3 0.5
q5 2 3.5 6.5t-4.5 4.5q-16 0 -24.5 -1t-24.5 -1q-18 0 -28.5 1t-28.5 1q-4 0 -5.5 -5t4.5 -7q14 -3 21.5 -10t7.5 -22v-101q0 -70 -1.5 -94.5t-6.5 -33.5q-8 -9 -22 -14q-5 0 -5.5 -5.5t5.5 -5.5q18 0 27.5 1t27.5 1t28.5 -1t27.5 -1q4 0 4 4.5t-4 5.5q-20 7 -25 13
q-3 5 -4.5 20.5t-1.5 29.5t0.5 35.5t0.5 27.5q0 4 4 8.5t9 4.5h112q5 0 9 -4.5t4 -8.5q0 -6 0.5 -27.5t0.5 -35.5t-1.5 -29.5t-4.5 -20.5q-4 -6 -25 -13q-4 -1 -4 -5.5t4 -4.5q17 0 27.5 1t28.5 1t27.5 -1t27.5 -1z" />
    <glyph glyph-name="hotjar" unicode="HOTJAR" 
d="M415 286q23 -40 30 -87.5t-4 -92.5q-12 -46 -51.5 -87t-97.5 -59q27 38 33.5 86t-9.5 85t-51 45q32 -55 1 -100q-25 -35 -63 -29q-28 4 -49 35q-3 -11 -6.5 -25.5t-2.5 -47t14 -57.5q-111 16 -145 93q-25 60 -4 111.5t83 93.5q36 25 52.5 54t13.5 53.5t-11 45.5t-17 33
l-10 12q9 -1 24 -4t57 -15t78 -28.5t75 -46.5t60 -68z" />
    <glyph glyph-name="hubspot" unicode="HUBSPOT" horiz-adv-x="512" 
d="M267 236l-163 115q-13 -7 -27 -7q-21 0 -36.5 15t-15.5 36.5t15.5 37t37 15.5t37 -15.5t15.5 -36.5q0 -7 -2 -14q29 -22 94 -69.5t75 -55.5q20 11 42 14v61q-28 12 -28 43q0 20 13.5 34t33 14t33.5 -14t14 -34q0 -31 -28 -43v-62q47 -7 78.5 -43.5t31.5 -84.5
q0 -54 -38 -92t-92 -38q-44 0 -79 26l-50 -50q2 -5 2 -12q0 -17 -12 -28q-12 -12 -29 -12t-28 12q-12 11 -12 28t11.5 28.5t28.5 11.5q7 0 14 -2l50 50q-26 34 -26 78q0 56 40 94zM356.5 73q28.5 0 49 20t20.5 49q0 19 -9.5 34.5t-25 25t-34.5 9.5q-29 0 -49 -20.5t-20 -49
t20 -48.5t48.5 -20z" />
    <glyph glyph-name="itunes" unicode="Itunes" 
d="M223.5 368q70.5 0 121 -50.5t50.5 -121t-50 -121t-121 -50.5t-121.5 50.5t-50.5 121t50.5 121t121 50.5zM303 128q1 4 1 167q0 10 -9 9q-1 0 -115 -21q-3 0 -7 -3q-3 -2 -3 -6q-1 -2 -0.5 -67.5t-2.5 -66.5q-2 -3 -8 -4q-30 -5 -38 -13q-11 -10 -6 -25t21 -18q17 -3 31 6
q12 6 15 19q1 6 1 119q0 7 7 8q88 16 92 17q8 2 8 -6v-44q1 -34 -1.5 -37t-8.5 -4q-30 -5 -38 -12q-8 -8 -7.5 -19t9.5 -18q11 -9 32 -5q22 4 27 24zM345 416q43 0 73 -30t30 -73v-242q0 -43 -30 -73t-73 -30h-242q-43 0 -73 30t-30 73v242q0 43 30 73t73 30h242zM224 4
q52 0 96.5 26t70 70t25.5 96.5t-25.5 96.5t-70 70t-96.5 26q-80 0 -136.5 -56.5t-56.5 -136t56.5 -136t136.5 -56.5z" />
    <glyph glyph-name="itunes-note" unicode="ITUNES&#x2d;NOTE" horiz-adv-x="384" 
d="M382 60q-5 -20 -19.5 -32t-35.5 -16q-42 -8 -65 10q-17 15 -18 37t16 37q8 8 21 13t21.5 7t33.5 6q11 2 16 8q4 4 4.5 13t0.5 61q-1 51 -1 89q0 15 -17 12l-185 -35q-8 -1 -11 -4.5t-3 -11.5v-129q1 -99 -2 -110v-1q-6 -27 -30 -39q-13 -7 -32 -10t-32 -1q-32 6 -41.5 36
t12.5 51q8 8 21.5 13t22 6.5t33.5 6.5q11 2 16 7q5 7 4.5 134.5t0.5 135.5q1 9 7 13q6 6 13 6q230 43 233 43q18 1 18 -18v-191q0 -138 -2 -146v-1z" />
    <glyph glyph-name="jenkins" unicode="Jenkins" horiz-adv-x="512" 
d="M487 23q1 -7 -9 -40q-8 -26 -14 -47h-422q-1 1 -2 4v2q-2 4 -4.5 11t-4.5 12t-3.5 11.5t-2.5 11.5q-1 9 2.5 14.5t13.5 10t13 6.5q10 7 56 34q27 16 27 18q2 4 0.5 9t-5.5 11t-5 8q-7 15 -8 30q-25 4 -39 25q-11 17 -15 39.5t3 44.5l2.5 2.5t2.5 3.5l2 4q0 3 -0.5 7
t-1.5 8t-1 7q-2 63 30 78q3 9 7.5 17.5t9.5 14t14 12t14.5 9.5l16.5 9t16 10q11 6 40 17q37 14 88.5 10t81.5 -27q7 -5 15.5 -12.5t16 -16t14.5 -17.5t11 -16q19 -40 20 -102t-14 -110q-6 -21 -11 -32q-1 -2 -5 -9t-6.5 -12t-2 -8t6.5 -9t14.5 -13t9.5 -8q2 -2 8 -7
t9.5 -8.5t7 -8t3.5 -8.5zM206 414q-28 -8 -54 -25t-35 -38q4 1 13 4t15 3q1 1 6.5 0t6.5 0q4 1 8.5 6.5t8.5 13t7 10.5t6.5 6t7.5 5.5t6 5.5q1 0 3.5 1t4 2.5t1.5 3.5q-3 3 -5 2zM101 321q-14 -16 -10 -68q20 12 41 2t21 -32q3 0 5 2t1.5 5t-1 5.5t-2 7t-1.5 6.5
q-3 15 2.5 50t-1.5 48q-34 -3 -55 -26zM138 120q9 -36 26 -61q15 -20 69 -24q6 14 36 7q-16 6 -40 32q-26 29 -27 49q17 -24 25.5 -34t26 -24t38.5 -21q45 -15 99 24q7 4 25 30q44 63 39 157q-2 50 -9 63q-7 14 -23 20t-29 -4q-2 8 2.5 14t12.5 7.5t18 -0.5q-2 2 -6 7.5
t-6.5 8.5t-6.5 7.5t-7 8t-7 7t-7.5 6.5t-8.5 5q-28 17 -63 22.5t-66 -6.5q-67 -33 -83 -70q4 -10 4.5 -22t-1.5 -21t-4.5 -22t-3.5 -22q0 -9 4 -24.5t5 -23.5q-6 -9 -27 -8q-7 33 -25 35q-16 2 -27.5 -9t-12.5 -27q-1 -19 12.5 -39.5t31.5 -18.5q5 1 12 6t12 5
q3 -4 1.5 -7.5t-4 -6t-5 -5.5t-2.5 -5q-1 -4 2 -16zM360 -4q-1 -2 -0.5 -7t-0.5 -9q22 -6 51 -7q5 7 4 23q0 11 -2.5 22.5t-7.5 14.5q-6 3 -15.5 -1t-20 -11l-13.5 -9q3 -9 3 -10q10 3 19 -2q-15 -2 -17 -4zM343 16q3 3 10 9t12 9q-6 -1 -19.5 -4.5t-20.5 -4t-19 3.5
q0 -1 -1 -1t-1 -1q16 -12 39 -11zM330 -17q16 -5 18 9q3 13 -8 15q-5 1 -12 -4q-1 -2 2 -20zM226 9q0 3 1.5 9t1.5 8q-5 1 -14.5 1.5t-16 1.5t-10.5 4q-7 -6 10 -14.5t28 -9.5zM58 -49h180l-2 7q-7 22 -8 36q-42 20 -57 30q-1 0 -7 7.5t-12 14t-7 5.5q-41 -16 -102 -63
q8 -17 15 -37zM298 -55v1v-1zM306 -49h9q-1 1 -3 4q-1 0 -6 -4zM321 -24v3v4v3q-11 6 -23 6q3 2 10.5 3.5t11.5 3.5v2.5v2.5q-6 0 -22 9q-21 12 -44 16q-7 1 -10.5 -3t-4.5 -10.5t-1.5 -14.5t0.5 -14q0 -7 11 -37q3 -9 5 -10q11 -2 34 10q7 4 18 13.5t15 12.5zM374 -49l1 13
q-6 -1 -14 4.5t-11 5.5q-3 1 -10 -2.5t-12 -1.5l-2 -2t-2 -2.5t-2 -2.5q4 -5 9 -12h17q0 6 6 6t6 -6h14zM383 -49h36q-14 21 -35 11q-1 -6 -1 -11zM466 -12q5 22 4 25q0 4 -3.5 8t-10 9t-7.5 6q-5 4 -15.5 15t-17.5 17q-3 -4 -7 -7.5t-8 -6.5t-6 -6q22 11 28 -27
q6 -32 -4 -51q1 -4 5.5 -8.5t5.5 -7.5q-1 -1 -2 -3h28q7 21 10 37zM222 318q5 12 19 22.5t26 9.5q7 -2 11.5 -7t0.5 -11q-35 8 -54 -33q-9 2 -3 19zM406 254q4 2 15 2.5t15 3.5q-10 27 -9 37h1q17 -35 21 -41q-2 -7 -13 -12t-20.5 -3t-9.5 13zM310 252q-20 31 -15 45
q1 -1 6.5 -14.5t11.5 -18.5q0 -1 2 -2.5t3 -2.5t2 -3t1.5 -3.5t0.5 -4t-1 -4.5q-1 -3 -5 -6t-7 -4q-13 -4 -28.5 0.5t-7.5 16.5q2 0 5 -0.5t5.5 -1t5.5 -1l6 -1t5.5 0t5 1.5t4.5 3zM337 182q1 -2 2 -7.5t3 -9t7 -4.5q7 -1 15.5 1t15 4.5t15 7t12.5 5.5q3 4 3.5 7.5t-0.5 7
t-2.5 5t-5 5.5t-4.5 5q-13 16 -18.5 23t-12.5 22.5t-7 29.5q6 4 8 -7v-3q11 -24 47 -63q1 -2 4 -4.5t4.5 -4l2.5 -2.5q1 -5 -2 -13.5t-3 -10.5q-14 -9 -23 -14t-25.5 -9t-32.5 -2q-6 5 -7 14t4 17zM136 191q-3 1 -5.5 6.5t-5 10t-6.5 4.5q-2 0 -4 -1t-3 -3.5t-1.5 -4.5
t-0.5 -6.5v-7v-7v-5.5q-6 5 -7 18.5t3 21.5q-2 2 -4 1t-3 -2t-3 -2.5t-3 -2.5q3 22 21.5 18t21.5 -25q1 -6 0 -13zM435 162q-21 -40 -54 -41q-1 15 0 19q8 1 16 3.5t13 5.5t12.5 7t12.5 6zM293 150q23 -12 79 -10q2 -5 2 -20q-28 -1 -51.5 6t-29.5 24zM385 103q-3 -9 -9 -11
q-11 -4 -29.5 -5t-33.5 5q-5 3 -9 7t-8.5 11t-5.5 8l-3 3q-11 10 3 10q6 -15 22 -22t34.5 -6.5t38.5 0.5z" />
    <glyph glyph-name="joget" unicode="Joget" horiz-adv-x="496" 
d="M378 403q88 -54 111.5 -154t-30.5 -187.5t-154 -111t-187.5 30.5t-111 154t30.5 187q35 56 91.5 87t119.5 31q70 0 130 -37zM430 80q8 12 14 26q-2 0 -37.5 -0.5t-61 -1.5t-59 -5t-51.5 -10q-11 -4 -18.5 -9t-12 -9t-6.5 -9.5t-2.5 -9t0.5 -9.5t2 -8t3.5 -7.5l2.5 -5.5
q7 -18 24 -43q11 -1 20 -1q55 0 103.5 27t78.5 75zM229 166q51 -1 230 -5q9 62 -17.5 120.5t-81.5 92.5q-75 46 -161 25.5t-133 -95.5q-43 -69 -28 -149q5 20 15 39t29 42.5t54 39.5t80 19q41 3 38 -13q-2 -9 -14 -16q-2 -2 -11.5 -7t-14.5 -8.5t-13.5 -9t-16 -12.5
t-13.5 -15q-17 -20 -0.5 -33.5t58.5 -14.5zM413 221q10 -3 15 -7t4 -6v-3l-46 -23l-170 -2q34 11 65 32q5 3 15 9.5t15.5 10t13 8t13.5 6t11 1.5t10 -2q5 -3 7 -6t-0.5 -6t-5 -4.5t-8 -4.5t-6.5 -4l-51 -34l6 -2q9 1 25 10q63 33 87 27z" />
    <glyph glyph-name="js" unicode="Js" 
d="M0 416h448v-448h-448v448zM244 67v143h-42v-143q0 -26 -23 -26q-15 0 -27 21l-34 -20q18 -39 63 -39q29 0 46 16t17 48zM343 3q31 0 50.5 15.5t19.5 43.5q0 25 -13.5 39t-42.5 27l-10 4q-15 7 -20.5 12t-5.5 14q0 5 2.5 9t7 6.5t10.5 2.5q17 0 27 -18l33 21
q-19 34 -60 34q-28 0 -45 -16t-17 -40t13 -38.5t38 -24.5l10 -5l13.5 -6t9.5 -5.5t6.5 -7.5t1.5 -9q0 -9 -8 -15t-21 -6q-25 0 -41 26l-34 -20q21 -43 76 -43z" />
    <glyph glyph-name="js-square" unicode="JS&#x2d;SQUARE" 
d="M400 416q20 0 34 -14t14 -34v-352q0 -20 -14 -34t-34 -14h-352q-20 0 -34 14t-14 34v352q0 20 14 34t34 14h352zM244 67v143h-42v-143q0 -26 -23 -26q-15 0 -27 21l-34 -20q18 -39 63 -39q29 0 46 16t17 48zM343 3q31 0 50.5 15.5t19.5 43.5q0 25 -13.5 39t-42.5 27
l-10 4q-15 7 -20.5 12t-5.5 14q0 5 2.5 9t7 6.5t10.5 2.5q17 0 27 -18l33 21q-19 34 -60 34q-28 0 -45 -16t-17 -40t13 -38.5t38 -24.5l10 -5l13.5 -6t9.5 -5.5t6.5 -7.5t1.5 -9q0 -9 -8 -15t-21 -6q-25 0 -41 26l-34 -20q21 -43 76 -43z" />
    <glyph glyph-name="keycdn" unicode="KEYCDN" horiz-adv-x="512" 
d="M64 39l60 59q49 -66 127 -68q47 -1 86 23l7.5 -7.5t8.5 -9t5 -5.5q-49 -32 -108 -31q-67 2 -118 45q1 0 -17 -17.5t-21 -20.5q7 -23 -7.5 -42.5t-38.5 -19.5q-21 0 -34.5 14t-13.5 34q0 26 20.5 40t43.5 6zM419 291q30 -49 28 -104q-1 -68 -48 -121l12 -12.5l12 -12.5
q15 2 26 -9q8 -9 8 -21.5t-9 -21t-21.5 -8.5t-21.5 9q-10 11 -7 26l-45 48q63 50 65 124q1 42 -21 82zM104 395q11 -11 8 -26l46 -49q-15 -11 -23 -21q-39 -44 -41 -103q-1 -44 20 -82l-22 -22q-29 49 -28 105q2 68 48 121l-26 27q-15 -2 -26 9q-8 9 -7.5 21t9 21t21 8.5
t21.5 -9.5zM465 440q19 0 33 -14.5t14 -34t-14 -33.5t-33 -14q-11 0 -16 2l-63 -60q-49 65 -127 67q-47 1 -86 -22l-21 22q49 31 108 30q67 -2 118 -45l41 39q-2 7 -2 15q0 13 6.5 24t17.5 17.5t24 6.5zM257 335q7 0 16 -1q59 -8 95 -54.5t29 -105t-54 -95t-105.5 -29
t-94.5 54t-29 105.5q7 54 47.5 89t95.5 36zM198 215q1 -36 32 -52l-11 -52h74l-11 52q32 17 32 52q0 25 -17 41.5t-41 17.5q-24 -1 -41 -17.5t-17 -41.5zM256 288z" />
    <glyph glyph-name="kickstarter" unicode="Kickstarter" 
d="M400 -32h-352q-20 0 -34 14t-14 34v352q0 20 14 34t34 14h352q20 0 34 -14t14 -34v-352q0 -20 -14 -34t-34 -14zM200 270q0 11 -3.5 19.5t-8.5 14t-12.5 8.5t-15.5 3q-19 0 -29.5 -13t-10.5 -32v-155q0 -9 2.5 -17.5t7.5 -14.5t13 -9.5t17 -3.5q18 0 29 11.5t11 33.5v42
l60 -76q10 -11 26.5 -11.5t29.5 11.5q11 11 11.5 26t-7.5 25l-49 63l40 58q8 10 7 24.5t-12 24.5q-12 13 -31 12t-31 -19l-44 -64v39z" />
    <glyph glyph-name="kickstarter-k" unicode="KICKSTARTER&#x2d;K" horiz-adv-x="384" 
d="M147 334v-71l83 118q22 32 57 34t57 -21q20 -19 22 -45.5t-12 -44.5l-75 -107l91 -115q15 -18 13.5 -45t-20.5 -47q-24 -23 -55 -22t-49 22l-112 138v-76q0 -42 -20 -63t-52 -21q-36 0 -55.5 23.5t-19.5 60.5v283q0 23 8.5 41t25.5 29t40 11q32 0 52.5 -21t20.5 -61z" />
    <glyph glyph-name="laravel" unicode="LARAVEL" horiz-adv-x="512" 
d="M504 332q1 -1 1 -2v-110q0 -4 -4 -7l-93 -53v-105q0 -5 -4 -7l-192 -111q-1 0 -2 -1v0h-2h-2l-0.5 0.5l-0.5 0.5h-1l-193 111q-4 2 -4 7v330q0 1 1 2v2h1q0 1 0.5 1.5t1 0.5t0.5 1l97 55q1 1 3.5 1t4.5 -1l96 -55q0 -1 0.5 -1t1 -0.5t0.5 -1.5h1q0 -1 0.5 -1.5l0.5 -0.5
v-2v-206l80 46v105v2l0.5 0.5l0.5 0.5v1h1v1l0.5 0.5l1 1l0.5 0.5l96 55q2 2 4.5 2t3.5 -2l97 -55l1 -1v0q1 -1 1 -1.5t1 -0.5v-1v-1zM112 431l-81 -46l81 -47l80 47zM200 371l-34 -20l-46 -27v-201l33 20l47 26v202zM200 -42v92l-92 52v0l-1 1l-0.5 0.5l-0.5 0.5l-1 1v0
q-1 1 -1 1.5v1v1v0.5v215l-47 27l-34 20v-311zM208 64l117 67l59 34l-80 46l-92 -53l-84 -49zM392 60v91l-45 -26l-131 -75v-92zM392 179v91l-46 27l-34 19v-91l47 -27zM400 284l81 46l-81 46l-80 -46zM408 179l81 46v91l-34 -19l-47 -27v-91z" />
    <glyph glyph-name="line" unicode="LINE" 
d="M272 244v-71q0 -3 -3 -3h-11q-2 0 -3 1l-33 44v-42q0 -4 -3 -4h-11q-4 0 -4 4v71q0 3 4 3h11q2 0 3 -1l32 -44v42q0 3 3 3h12q3 0 3 -3zM190 247q3 0 3 -3v-71q0 -3 -3 -3h-11q-3 0 -3 3v71q0 3 3 3h11zM163 187q3 0 3 -3v-11q0 -3 -4 -3h-45q-1 0 -2 0.5t-1 2.5v71
q0 3 3 3h11q4 0 4 -3v-57h31zM332 247q3 0 3 -3v-12q0 -3 -3 -3h-31v-12h31q3 0 3 -3v-12q0 -3 -3 -3h-31v-12h31q3 0 3 -3v-11q0 -3 -3 -3h-46q-3 0 -3 3v71q0 3 3 3h46zM448 334v-285q0 -34 -24 -57.5t-58 -23.5h-285q-34 0 -57.5 24t-23.5 58v285q0 34 24 57.5t58 23.5
h285q34 0 57.5 -24t23.5 -58zM386 212q0 54 -47.5 93t-115 39t-115.5 -39t-48 -93q0 -49 39 -86t98 -45q13 -3 14.5 -10.5t-2.5 -26.5v-4t0.5 -4.5t4 -2.5t9.5 3q10 4 33 18t51.5 36t44.5 40q34 39 34 82z" />
    <glyph glyph-name="lyft" unicode="LYFT" horiz-adv-x="512" 
d="M0 367h78v-209q0 -43 27 -61q-12 -10 -34 -11.5t-46 14.5q-25 20 -25 59v208zM486 193q0 -10 7.5 -17.5t18.5 -7.5v-77q-28 0 -51.5 14t-37.5 37.5t-14 51.5v77q0 16 -13 23t-26 0t-13 -23v-23h39v-77h-39v-7q0 -39 -25 -59q-21 -18 -51 -14v179q0 43 30 73t72 30
q37 0 65 -23t36 -58h26v-77h-24v-22zM192 292v1h77v-178q0 -40 -21 -67t-56 -34q-38 -7 -78 5v70q24 -10 45 -8q32 3 35 25l-1 -0.5t-4 -2.5t-6 -3.5t-8.5 -3.5t-11 -2.5t-12.5 0t-15 2.5q-45 12 -45 64v132h77v-113q0 -11 12 -11t12 11v113z" />
    <glyph glyph-name="magento" unicode="Magento" 
d="M446 320v-256l-64 -36v255l-158 92l-159 -92l1 -256l-64 37v256l222 128zM256 28v255l63 -36v-256l-95 -55l-95 55v256l63 36v-256l32 -18z" />
    <glyph glyph-name="medapps" unicode="MEDAPPS" horiz-adv-x="320" 
d="M118 210q1 2 2.5 7.5t2.5 9.5l2 8t3 6t4 2q3 -1 5.5 -7t6 -15t6.5 -14q2 8 3.5 31t4 39t6.5 16q3 0 6 -6.5t5.5 -17.5t4.5 -20.5t4 -20.5t2 -12q5 -2 17 -3.5t22 -2.5l10 -1q1 -2 -2.5 -4t-11 -2.5t-12.5 -0.5t-14 -1q-1 -4 -3 -12.5t-4 -11.5t-4 -4q-2 0 -3 3t-2.5 8.5
t-3.5 11.5t-4 13.5t-5 13.5l-9 -65q-3 -9 -11 10q-3 6 -8 20l-3 9h-12t-18 1t-18 2.5t0 4.5zM228 0h-136q-16 0 -16 16t16 16h136q16 0 16 -16t-16 -16zM204 -64h-88q-16 0 -16 16t16 16h88q16 0 16 -16t-16 -16zM238 78q-1 -11 -10 -13.5t-16.5 3t-5.5 15.5q7 44 15 58
q8 16 23 40.5t22.5 38t14 33.5t6.5 40q0 51 -37.5 87t-89.5 36t-89.5 -36t-37.5 -87q0 -20 6.5 -40t14 -33.5t22.5 -38t23 -40.5q8 -15 15 -59q2 -9 -5.5 -14.5t-16.5 -3t-10 12.5q-7 39 -12 49q-9 17 -24 41q-16 27 -23.5 41t-15 37.5t-7.5 47.5q0 42 21.5 77.5t58.5 56.5
t80 21q66 0 113 -45.5t47 -109.5q0 -24 -7.5 -47.5t-15 -37.5t-23.5 -41q-16 -26 -24 -41q-5 -10 -12 -48z" />
    <glyph glyph-name="medium-m" unicode="MEDIUM&#x2d;M" horiz-adv-x="512" 
d="M72 306q0 9 -7 16l-45 54v8h140l109 -238l95 238h134v-8l-39 -37q-5 -4 -4 -11v-272q-1 -7 4 -11l38 -37v-8h-190v8l39 38q4 4 4 11v220l-108 -276h-15l-127 276v-185q-1 -12 7 -21l51 -62v-8h-144v8l51 62q9 9 7 21v214z" />
    <glyph glyph-name="medrt" unicode="MEDRT" horiz-adv-x="544" 
d="M114 192q0 -91 55 -159t138 -82q-28 -7 -58 -7q-103 0 -176 72.5t-73 175.5t73 175.5t176 72.5q30 0 58 -7q-83 -14 -138 -82t-55 -159zM411 92q58 41 77 108t-10 126q17 -16 31 -35q46 -66 32.5 -145.5t-79 -126.5t-144.5 -33t-126 80q-13 19 -21 40q46 -47 114 -51.5
t126 37.5zM192 336q55 41 119.5 35t102.5 -55q34 -45 27 -102t-49 -100q14 38 8 80.5t-33 77.5q-32 42 -81 58t-98 3l2 1zM296 224h40q8 0 8 -8v-48q0 -8 -8 -8h-40q-8 0 -8 -8v-40q0 -8 -8 -8h-48q-8 0 -8 8v40q0 8 -8 8h-40q-8 0 -8 8v48q0 8 8 8h40q8 0 8 8v40q0 8 8 8
h48q8 0 8 -8v-40q0 -8 8 -8z" />
    <glyph glyph-name="microsoft" unicode="MICROSOFT" 
d="M0 416h215v-215h-215v215zM233 416h215v-215h-215v215zM0 183h215v-215h-215v215zM233 183h215v-215h-215v215z" />
    <glyph glyph-name="mix" unicode="MIX" 
d="M0 384h448v-204q0 -27 -22 -38.5t-44 -0.5t-22 39v24q0 27 -21 38.5t-42.5 1.5t-24.5 -36v-116q0 -21 -15 -32.5t-33 -11.5t-33 11.5t-15 32.5v175q0 20 -12.5 32t-28.5 13t-30 -9t-17 -29v-239q0 -27 -22 -38t-44 0.5t-22 37.5v349z" />
    <glyph glyph-name="mizuni" unicode="MIZUNI" horiz-adv-x="496" 
d="M248 440q103 0 175.5 -72.5t72.5 -175.5t-72.5 -175.5t-175.5 -72.5t-175.5 72.5t-72.5 175.5t72.5 175.5t175.5 72.5zM168 88v224q0 17 -11.5 28.5t-28.5 11.5t-28.5 -11.5t-11.5 -28.5v-272q33 32 80 48zM288 98v214q0 17 -11.5 28.5t-28.5 11.5t-28.5 -11.5
t-11.5 -28.5v-214q20 3 40 3t40 -3zM408 40v272q0 17 -11.5 28.5t-28.5 11.5t-28.5 -11.5t-11.5 -28.5v-224q47 -16 80 -48z" />
    <glyph glyph-name="monero" unicode="MONERO" horiz-adv-x="496" 
d="M352 64h108q-21 -36 -53.5 -63t-73.5 -42t-85 -15q-66 0 -122.5 32.5t-89.5 87.5h108v128l104 -105l104 105v-128zM88 112h-75q-13 39 -13 80q0 103 72.5 175.5t175.5 72.5t175.5 -72.5t72.5 -175.5q0 -41 -13 -80h-75v208l-161 -159l-159 159v-208z" />
    <glyph glyph-name="napster" unicode="NAPSTER" horiz-adv-x="496" 
d="M298 74q-22 -21 -50 -30q-29 10 -50 30h100zM342 274q-42 30 -94 30t-95 -30q-31 26 -69 36v-161q0 -45 18 -80t47 -53.5t64 -27t70 0t64 26.5t47 53.5t18 80.5v161q-39 -10 -70 -36zM134 332q10 -5 20 -11q44 23 94 23t94 -23l20 12q-48 45 -114 45t-114 -46zM44 355
q25 -1 50 -8q62 69 154 69t154 -69q24 7 50 8v-69q44 -28 44 -79.5t-44 -79.5v-1q-7 -58 -38 -100t-74 -61t-92.5 -19.5t-92 18.5t-74 61.5t-37.5 101.5q-44 28 -44 79.5t44 79.5v69zM259 96q9 40 26.5 48t75.5 8q7 -1 11 -1v-3.5t-0.5 -5t-1 -5.5t-1.5 -7t-3 -6.5t-4.5 -7
t-6.5 -6.5t-9 -6q-10 -6 -26 -6zM124 151h11q26 1 37 0.5t25 -3t19.5 -8.5t11 -16.5t9.5 -27.5q-36 0 -62 1q-15 1 -25 7q-5 3 -9 6t-6.5 6.5t-4.5 7t-3 6.5t-1.5 7t-1 5.5t-0.5 5v3.5zM293 28q2 -4 3 -9q-22 -13 -48 -13t-48 13q1 6 4 10l6 6q38 -11 76 0q4 -2 7 -7z" />
    <glyph glyph-name="node-js" unicode="NODE&#x2d;JS" 
d="M224 -60q-10 0 -19 5l-62 37q-10 5 -2 8q15 5 28 12q2 2 5 0l47 -28q3 -2 6 0l185 106q2 2 2 6v213q0 3 -3 5l-184 106q-3 2 -6 0l-184 -106q-3 -2 -3 -5v-213q0 -4 3 -5l50 -30q21 -8 33 -1.5t12 20.5v210q0 6 5 6h23q6 0 6 -6v-210q0 -27 -14.5 -42.5t-40.5 -15.5
q-19 0 -43 12l-48 28q-19 11 -19 34v213q0 22 19 33l185 107q19 11 38 0l185 -107q20 -11 20 -33v-213q0 -23 -20 -34l-185 -107q-9 -5 -19 -5zM373 150q0 -30 -24 -46.5t-68 -16.5q-98 0 -98 68q0 5 6 5h23q5 0 6 -4q3 -20 15.5 -28.5t47.5 -8.5q55 0 55 29q0 5 -0.5 7.5
t-4.5 5.5t-10.5 5.5t-19 4.5t-30.5 4q-27 3 -44 8t-27 17t-10 32q0 28 22 43.5t62 15.5q86 0 92 -64q0 -3 -1.5 -4.5t-4.5 -1.5h-24q-4 0 -5 4q-4 19 -16.5 26.5t-40.5 7.5q-48 0 -48 -26q0 -10 11 -14.5t52 -10.5q46 -6 65 -18t19 -40z" />
    <glyph glyph-name="npm" unicode="NPM" horiz-adv-x="576" 
d="M288 160h-32v64h32v-64zM576 288v-192h-288v-32h-128v32h-160v192h576zM160 256h-128v-128h64v96h32v-96h32v128zM320 256h-128v-160h64v32h64v128zM544 256h-192v-128h64v96h32v-96h32v96h32v-96h32v128z" />
    <glyph glyph-name="ns8" unicode="NS&#x38;" horiz-adv-x="640" 
d="M187 288h45l-48 -160h-57l-51 106l-31 -106h-45l49 160h49l55 -114zM640 289q3 -19 -17.5 -32t-48.5 -19q14 -23 15.5 -50t-12.5 -55q-19 -38 -58.5 -57.5t-76.5 -10.5q-15 4 -26.5 12t-19.5 20t-11 27q-1 5 -1 11q-7 -4 -18 -5q-22 -2 -161 -2l11 40h127q11 0 14 7t4 15
q1 3 -0.5 4.5t-6.5 1.5h-88q-24 0 -30.5 6.5t-1.5 22.5q10 36 17 47q9 13 31 15q11 1 160 1l-10 -32h-133q-11 0 -14 -7q-1 -3 -3 -12q-1 -2 0 -4t4 -2.5t7 -0.5h88q29 0 34 -17q33 36 94 48v1q-9 30 21.5 47.5t67.5 10.5q38 -6 42 -31zM531 184q4 23 -7 48q-49 -6 -69 -27
q-18 -19 -13.5 -40t27.5 -25q20 -3 38.5 10t23.5 34zM552 267q24 4 35 10q10 6 8.5 14t-13.5 10q-21 5 -32 -7q-9 -10 2 -27z" />
    <glyph glyph-name="nutritionix" unicode="NUTRITIONIX" horiz-adv-x="400" 
d="M88 440h5t12 -0.5t17.5 -1.5t20 -4.5t21 -8t19.5 -13t16 -18.5t9 -25t1 -33q0 1 1 3.5t4.5 10t8.5 13t13.5 11.5t18.5 9t25 1.5t32 -8.5q0 -1 -1 -3.5t-4 -10.5t-7.5 -13.5t-11.5 -13.5t-16 -11.5t-21 -6t-27 2.5q0 1 1 3t3.5 8t5.5 11t8.5 11.5t12 11t16 8t19.5 4.5
q-2 0 -4.5 0.5t-12 -1t-18.5 -5.5t-22 -15.5t-25 -27.5q-1 4 -2.5 10.5t-9 23t-17 29.5t-27 24t-38.5 13q3 -1 8.5 -3t18.5 -10t23 -19t18.5 -31t9.5 -45q0 -3 -26.5 1t-52.5 33.5t-25 85.5zM400 124q0 -79 -32 -132q-66 -48 -168 -48t-168 48q-32 53 -32 132q0 66 40 132
q66 49 160 49t160 -49q40 -66 40 -132zM120 20q0 12 -8 20t-20 8t-20 -8t-8 -20t8 -20t20 -8t20 8t8 20zM120 86.5q0 11.5 -8 19.5t-20 8t-20 -8t-8 -19.5t8 -20t20 -8.5t20 8.5t8 20zM120 152.5q0 11.5 -8 19.5t-20 8t-20 -8t-8 -19.5t8 -20t20 -8.5t20 8.5t8 20zM192 20
q0 12 -8 20t-20 8t-20 -8t-8 -20t8 -20t20 -8t20 8t8 20zM192 86.5q0 11.5 -8 19.5t-20 8t-20 -8t-8 -19.5t8 -20t20 -8.5t20 8.5t8 20zM192 152.5q0 11.5 -8 19.5t-20 8t-20 -8t-8 -19.5t8 -20t20 -8.5t20 8.5t8 20zM264 20q0 12 -8 20t-20 8t-20 -8t-8 -20t8 -20t20 -8
t20 8t8 20zM264 86.5q0 11.5 -8 19.5t-20 8t-20 -8t-8 -19.5t8 -20t20 -8.5t20 8.5t8 20zM264 152.5q0 11.5 -8 19.5t-20 8t-20 -8t-8 -19.5t8 -20t20 -8.5t20 8.5t8 20zM336 20q0 12 -8 20t-20 8t-20 -8t-8 -20t8 -20t20 -8t20 8t8 20zM336 86.5q0 11.5 -8 19.5t-20 8
t-20 -8t-8 -19.5t8 -20t20 -8.5t20 8.5t8 20zM336 152.5q0 11.5 -8 19.5t-20 8t-20 -8t-8 -19.5t8 -20t20 -8.5t20 8.5t8 20zM360 192q-8 39 -16 56q-62 32 -144 32t-144 -32q-7 -16 -16 -56q79 15 160 15t160 -15z" />
    <glyph glyph-name="page4" unicode="Page&#x34;" horiz-adv-x="496" 
d="M248 -56q-103 0 -175.5 72.5t-72.5 175.5t72.5 175.5t175.5 72.5q31 0 61 -8l-267 -376h206v-112zM248 88h-149l149 213v-213zM344 56h111q-41 -63 -111 -93v93zM401 194v-16l-21 8zM381 140q8 0 8 -11v-10h-16v8q0 13 8 13zM496 192q0 -55 -23 -104h-129v333
q33 -14 61 -37.5t48.5 -52.5t31.5 -65t11 -74zM360 304h69v48h-14v-33h-14v30h-14v-30h-13v33h-14v-48zM428 119h-26v11q0 25 -21 25t-21 -26v-25h69v15h-1zM428 222l-68 -30v-12l68 -30v17l-14 6v26l14 6v17zM424 291h-36v-27h14v12h11q7 -12 1.5 -23.5t-20.5 -11.5
q-16 0 -20.5 14t5.5 24l-12 10q-8 -9 -9 -24t8.5 -27.5t27.5 -12.5q25 0 33.5 22t-3.5 44z" />
    <glyph glyph-name="palfed" unicode="Palfed" horiz-adv-x="576" 
d="M385 254q0 -38 -27 -67t-56 -29q-14 0 -16 6q1 47 4 120q22 8 42.5 9.5t36.5 -8t16 -31.5zM190 182v4q0 18 19 40t39 36q-6 -189 -1 -242q1 -15 8.5 -22.5t15 -6.5t12.5 7q6 6 6 19q-3 40 -3 100q46 -11 93 34.5t47 103.5q0 52 -39.5 70.5t-95.5 1.5q-2 11 -11.5 14.5
t-18.5 -3.5t-10 -28q-44 -23 -72.5 -59t-28.5 -67q0 -13 5 -22.5t13.5 -15.5t18.5 -6q24 0 30 21q6 19 -11 23q-2 1 -4 1q-4 0 -12 -3zM8 267q0 11 4 18.5t9.5 11t11 5.5t9.5 2h4h29q4 15 12 26.5t19 19t23.5 13.5t24 8.5t21 4.5t15.5 2l6 1h28v19q0 8 5.5 12.5t10.5 5.5h5
h86q8 0 13.5 -4.5t6.5 -9.5l1 -4v-19h28q98 0 119 -75h31q17 0 26.5 -9t10.5 -19l1 -9q0 -17 -9.5 -26.5t-19.5 -10.5h-9h-30l-23 -218q0 -19 -11 -30t-22 -13l-12 -1h-288q-13 0 -22 4.5t-13.5 11t-7 13t-2.5 11.5v4l-23 218h-30q-17 0 -26.5 9t-10.5 19z" />
    <glyph glyph-name="patreon" unicode="Patreon" horiz-adv-x="512" 
d="M512 253q0 -76 -54 -130t-130 -54t-130 54t-54 130t54 130.5t130 54.5t130 -54.5t54 -130.5zM0 -54v492h90v-492h-90z" />
    <glyph glyph-name="periscope" unicode="Periscope" 
d="M370 384q60 -63 60 -150q0 -83 -82 -193q-7 -9 -17.5 -21.5t-30 -34t-39.5 -35.5t-34 -14q-24 0 -59 31.5t-67 73.5q-83 109 -83 193q0 88 61.5 151t147.5 63q83 0 143 -64zM227 -46q14 0 44.5 28.5t61.5 69t54.5 91.5t23.5 91q0 80 -54.5 138t-129.5 58q-80 0 -135 -58
t-55 -138q0 -40 23.5 -91t55 -91.5t63.5 -69t48 -28.5zM338 241q0 -44 -33 -76.5t-78 -32.5q-36 0 -64.5 18t-41.5 44.5t-10.5 59t23.5 59.5q0 -18 13.5 -31.5t32 -13.5t31.5 13.5t13 31.5q0 29 -27 41q37 9 70 -4.5t52 -43t19 -65.5z" />
    <glyph glyph-name="phabricator" unicode="Phabricator" horiz-adv-x="496" 
d="M323 186l21 -21l-8 -20h-30l-9 -9v-32l-20 -8l-22 24h-13l-20 -24l-20 8l-2 33l-9 9q-29 -1 -30 1l-9 20l21 21v13l-21 21l8 20h30l9 9v29l20 8l21 -21h14l20 21l20 -9l2 -29l9 -9q29 0 29 -1l10 -20l-21 -21v-13zM278 195q0 12 -10 21t-23 8.5t-21.5 -10t-8 -22.5
t10 -21.5t22.5 -8.5q9 1 16 5.5t10.5 11.5t3.5 16zM479 232q17 -16 17 -40t-17 -40q-94 -95 -95 -96q-56 -56 -135 -56t-135 55v-1q-41 42 -97 98q-17 16 -17 40t17 40q63 63 95 96q56 56 135 56t135 -55v1zM140.5 84.5q44.5 -44.5 107.5 -45t108 44.5t45 108t-45 107.5
t-108 44.5t-107.5 -44.5t-44.5 -107.5t44.5 -107.5z" />
    <glyph glyph-name="phoenix-framework" unicode="PHOENIX&#x2d;FRAMEWORK" horiz-adv-x="640" 
d="M213 104q-34 -1 -74.5 26.5t-53.5 79.5q-5 20 -5.5 46t-2.5 40q-10 68 -56 77q-9 1 -18 0h-3l2 2q27 20 64.5 29t71.5 6q35 -3 63 -20t48.5 -40.5t40 -47t45.5 -42t56 -23.5q4 -1 10.5 -1.5t8.5 -0.5h1h1q-2 -2 -14.5 -7.5t-21.5 -6.5q-29 -6 -52 10q-3 2 -16.5 13.5
t-22.5 13.5q-12 4 -23 -0.5t-12.5 -19t12.5 -36.5t39 -38q29 -17 70 -21t65 6l1 1h1q-18 -22 -49.5 -35.5t-58.5 -10.5q-22 3 -42 22t-39 43t-33 33t-32 4t-20 -23q-1 -12 6 -27q5 -10 11.5 -18t12.5 -13t12.5 -8.5t12 -5.5t9.5 -3t7 -1.5l3 -0.5q-5 -2 -25 -2zM75 383
q10 -10 22.5 -7.5t13.5 14.5q-20 -1 -37 -5q1 -1 1 -2zM272 33q-31 -1 -65 16.5t-58 44.5q-14 15 -19 23v1q34 -21 55 -27q37 -11 72 3q8 3 16 4t13.5 -0.5t9 -3t4.5 -3.5q-20 -4 -24 -8q-10 -9 7 -17q8 -4 43 -6.5t54 -18.5q7 -6 10 -11v0q-27 8 -40 9q-14 1 -39.5 -2.5
t-38.5 -3.5zM447 285q42 13 67 3q22 -9 32 -35q5 -13 5 -28q-1 0 -1 -1v2q-5 19 -23.5 29t-44.5 1q-27 -9 -57.5 -9t-64 14.5t-55.5 42.5q-2 2 -1 3q0 1 3 -1q26 -20 60 -27q39 -7 80 6zM550 167q-11 0 -20.5 -8t-17.5 -18.5t-25 -21.5t-41 -16q-26 -6 -45 -5v1l5 1.5
t11.5 5t13.5 10.5q7 6 23 22q13 14 21.5 21t25 13.5t35.5 4.5q19 -1 36 -12v-1q-9 3 -22 3zM537 191v0q-20 4 -37 4t-31 -8q-1 -1 -8 -5t-9 -5.5t-8.5 -4.5t-11 -4t-11.5 -3t-14 -3q-40 -5 -66 8l-1 1q17 -3 29.5 -2t25.5 8q4 2 13 7.5t13.5 8t12.5 6.5t16 6t16 3
q41 6 71 -17zM269 351l-3 2q33 0 54 -8q7 -3 14 -7.5t11.5 -8t12 -9t12.5 -8.5q15 -10 36 -8h4.5t5 0.5t3.5 0.5h2l-2 -1q-12 -6 -26 -7q-36 -4 -73 15q-28 15 -51 39zM640 112q-4 -3 -15 -5.5t-28 0.5q-5 2 -10 5.5t-11 9.5t-10 9q-10 7 -28 9l1 1q23 14 47 6q3 -1 6 -2.5
t5 -3t4.5 -4l4.5 -4.5l5 -5l5 -5q4 -3 8.5 -5.5t7 -3t5.5 -1l3 -0.5v-1zM428 -25q1 -1 1 -2q-29 3 -47 23q-19 22 -48 29l1 1q24 -1 39 -4q5 -2 9.5 -4t8.5 -4.5t6.5 -5t5.5 -6.5t4.5 -5.5t4 -5.5t2.5 -5q5 -6 13 -11z" />
    <glyph glyph-name="playstation" unicode="PLAYSTATION" horiz-adv-x="576" 
d="M571 76q-3 -4 -8.5 -8t-10.5 -7t-9.5 -5t-7.5 -3l-3 -2l-205 -73v54l151 54q13 4 14.5 10t-8.5 9q-25 9 -56 -3l-101 -35v56q37 13 76 17q69 8 130 -15q21 -7 32 -16t11 -17.5t-5 -15.5zM346 168v139q0 31 -18 36q-8 3 -13.5 -4t-5.5 -20v-347l-94 29v415q54 -10 130 -35
q59 -21 82.5 -51t23.5 -87q0 -55 -30.5 -76t-74.5 1zM43 38q-32 9 -40.5 26.5t8.5 28.5q8 6 21 12t22 9l9 4l134 47v-54l-97 -35q-13 -4 -14.5 -10t8.5 -9q26 -9 57 3l46 17v-49q-80 -15 -154 10z" />
    <glyph glyph-name="pushed" unicode="PUSHED" horiz-adv-x="432" 
d="M407 336q17 -1 23 -16.5t-6 -28.5l-235 -231l-35 -81q-8 -13 -25.5 -11t-22.5 18l-105 348q-3 14 3.5 24.5t17.5 12.5l272 45q14 2 25 -9.5t3 -28.5l-14 -33zM298 394l-189 -31l177 -16l17 40q2 4 0 6t-5 1zM23 340l158 -244l97 230l-249 23q-4 1 -6.5 -2t0.5 -7zM136 -8
q1 2 3 6.5t7.5 16.5t9.5 21.5t8.5 20t6.5 14.5l-127 197l83 -275q1 -3 4 -3.5t5 2.5zM409 306q6 6 -3 9l-106 9l-90 -213z" />
    <glyph glyph-name="python" unicode="PYTHON" 
d="M440 248q15 -63 0 -109q-9 -28 -20.5 -41t-33.5 -13h-160v-14h107v-41q0 -38 -53 -54q-54 -15 -107 0q-54 16 -54 54v102q0 22 16 38t38 16h107q26 0 46 20.5t20 47.5v48h40q40 0 54 -54zM286.5 44q-8.5 0 -14.5 -6t-6 -14.5t6 -14.5t14 -6q6 0 10.5 3t7 7.5t2.5 10.5
q0 8 -5.5 14t-14 6zM168 200q-18 0 -33.5 -9t-24.5 -24.5t-9 -32.5v-49h-37q-22 0 -36 14.5t-20 39.5q-14 54 0 109q6 25 24 39.5t42 14.5h147v13h-107v41q0 10 1.5 17t5 13.5t9 11t15 8t23.5 6.5q51 9 107 0q22 -4 37.5 -19.5t15.5 -36.5v-102q0 -22 -15.5 -38t-37.5 -16
h-107zM161 342q6 0 10.5 3t7 7.5t2.5 10t-2.5 10.5t-7 7.5t-10.5 2.5q-8 0 -14 -6t-6 -14q0 -4 1.5 -8t4.5 -6.5t6.5 -4.5t7.5 -2z" />
    <glyph glyph-name="red-river" unicode="RED&#x2d;RIVER" 
d="M353 416q39 0 67 -28t28 -67v-258q0 -39 -28 -67t-67 -28h-258q-39 0 -67 28t-28 67v258q0 39 28 67t67 28h258zM145 247q-1 9 7 17t17 7h56q20 0 34.5 14.5t14.5 34.5h-154q-10 0 -17 -7t-7 -17v-154q20 0 34.5 14.5t14.5 34.5v56zM321 175q20 0 34.5 14.5t14.5 34.5
h-154q-10 0 -17 -7t-7 -17v-154q20 0 34.5 14.5t14.5 34.5v56q-1 9 7 17t17 7h56z" />
    <glyph glyph-name="wpressr" unicode="WPRESSR" horiz-adv-x="496" 
d="M248 440q103 0 175.5 -72.5t72.5 -175.5t-72.5 -175.5t-175.5 -72.5t-175.5 72.5t-72.5 175.5t72.5 175.5t175.5 72.5zM419 281q4 9 -5 9h-131q-6 0 -9 -6q-3 -8 -17 -39q-4 -9 5 -9h76q9 0 6 -8q-2 -5 -10 -5h-39.5h-39.5q-8 0 -11 -7q-30 -70 -32 -73q-1 -3 -5 -4
t-6 1.5t0 8.5q1 3 25 56q4 9 -6 9h-22.5h-22.5q-5 0 -7 -4q-29 -66 -30 -68q-3 -5 -8.5 -3t-2.5 9q8 18 17 39q28 63 41 92q2 4 0 7.5t-7 3.5h-21.5h-21.5q-6 0 -8 -6q-8 -18 -39 -88q-19 -43 -26 -59q-2 -5 1 -9q2 -3 14.5 -16.5t19.5 -20.5q3 -4 8 -4h137q6 0 8 5
q31 69 31 71q3 7 11 7h69q9 0 13 8q17 38 45 103z" />
    <glyph glyph-name="replyd" unicode="REPLYD" 
d="M320 -32h-192q-53 0 -90.5 37.5t-37.5 90.5v192q0 53 37.5 90.5t90.5 37.5h192q53 0 90.5 -37.5t37.5 -90.5v-192q0 -53 -37.5 -90.5t-90.5 -37.5zM193 175q-9 3 -16 3q-11 0 -19 -6q-8 -5 -13 -16h-1l-4 19h-28v-139h36v90q2 8 8.5 13t16.5 5q7 0 16 -3zM309 71
q-5 -3 -14 -7q-9 -3 -21 -3q-18 0 -26 9t-9 26h83q2 7 2 14q1 6 1 12q0 16 -5 27t-12 18q-8 6 -18 9t-20 3q-32 0 -49.5 -18.5t-17.5 -55.5q0 -34 15.5 -53.5t49.5 -19.5q16 0 30 5q15 4 23 11zM286.5 142q5.5 -8 4.5 -23h-51q1 14 8 22.5t21 8.5q12 0 17.5 -8zM367 139
q6 -6 16 -6t16.5 6t6.5 16t-6.5 15.5t-16.5 5.5t-16 -5.5t-6 -15.5t6 -16zM367 39q6 -6 16 -6t16.5 6t6.5 15.5t-6.5 15t-16.5 5.5t-16 -5.5t-6 -15t6 -15.5z" />
    <glyph glyph-name="resolving" unicode="RESOLVING" horiz-adv-x="496" 
d="M281 170l-198 -57l-28 98l188 54q40 11 53 7.5t18 -20.5l11 -39q5 -16 -3 -25t-41 -18zM248 440q68 0 125 -33t90 -90.5t33 -124.5q0 -102 -73 -175t-175 -73q-69 0 -127 35l-23 80l287 -37l48 13l-10 34l-220 27l93 27q36 10 61 33q35 33 23 74l-10 37q-14 48 -62 56
q-34 4 -79 -9l-222 -64q20 83 87 136.5t154 53.5zM38 59q-38 62 -38 132z" />
    <glyph glyph-name="rocketchat" unicode="ROCKETCHAT" horiz-adv-x="576" 
d="M486 340q44 -28 67 -68t23 -80.5t-23 -80.5t-67 -68q-55 -36 -129 -48t-135 1q-33 -32 -71 -46t-69 -11t-51 8t-31 12q3 3 8 7.5t17 18t20.5 27t14 31t1.5 33.5q-18 19 -31 44t-18.5 56t6.5 66t43 66q5 25 -10 54t-33 46l-18 17q11 7 31 12t51.5 8t69 -11.5t70.5 -45.5
q62 13 135.5 1t128.5 -49zM294 44q95 0 162.5 43.5t67.5 104.5t-67.5 104.5t-162.5 43.5t-162 -43.5t-67 -104.5q0 -53 52 -94q13 -44 -16 -99l-1 -2t-2 -3q27 2 52 15q20 11 36 27l20 19q43 -11 87 -11h1zM184 157q-14 0 -24 9.5t-11 23.5q0 22 17 31t34.5 0.5t17.5 -29.5
v-1q0 -14 -10 -24t-24 -10zM258 190q0 22 16.5 31t34 0.5t17.5 -29.5v-1q1 -13 -6 -22t-17 -11t-20.5 0t-17.5 11t-7 21zM401 157q-14 0 -24 9.5t-11 23.5q0 22 17 31t34.5 0.5t17.5 -29.5v-1q0 -14 -10 -24t-24 -10z" />
    <glyph glyph-name="rockrms" unicode="ROCKRMS" horiz-adv-x="496" 
d="M248 440q103 0 175.5 -72.5t72.5 -175.5t-72.5 -175.5t-175.5 -72.5t-175.5 72.5t-72.5 175.5t72.5 175.5t175.5 72.5zM405 20l-101 119l74 1q22 -1 32 19t-4 37l-158 185q-10 13 -27 13t-27 -13l-148 -173h90l85 99l84 -99h-75q-22 0 -31 -20.5t4 -35.5l112 -132h90z
" />
    <glyph glyph-name="schlix" unicode="SCHLIX" 
d="M350 290l-54 46l74 39l78 -44zM192 326l46 28l34 -34l-55 -30zM127 319l32 22l17 -28l-37 -23zM104 231l-9 35l29 18l14 -35zM82 315l24 18l9 -24l-27 -18zM59 242l-4 28l23 15l6 -28zM28 225l21 13l3 -34l-22 -12zM1 180l20 10v-38l-21 -9zM60 121l-28 -9l-1 47l25 11z
M99 185l-31 -13l-5 41l27 14zM123 71l-41 -6l-8 64l35 10zM152 211l21 -57l-46 -14l-14 54zM237 -20l-71 4l-24 96l55 8zM152 260l43 22l28 -45l-51 -22zM194 165l61 19l53 -87l-80 -11zM245 251l67 29l66 -66l-89 -26z" />
    <glyph glyph-name="searchengin" unicode="SEARCHENGIN" horiz-adv-x="460" 
d="M221 318l-68 -210v131l-54 -25l54 191v-115zM137 414l-1 -4l-15 -53q-31 -12 -50 -39.5t-19 -61.5q0 -39 23.5 -68.5t59.5 -36.5v-54q-58 8 -96.5 53.5t-38.5 105.5t39.5 105t97.5 53zM449 -33q-15 -15 -29 -10l-60 44q-8 6 -14 11.5t-10 9.5t-7 9t-4.5 8t-4 9.5
t-3.5 9.5q-17 38 -58 52l-9 15q-38 -26 -82 -29l2 7l16 49q36 9 58.5 38t22.5 66q0 42 -26.5 73t-69.5 35v52q31 -2 58.5 -15.5t47.5 -34.5t31.5 -49.5t11.5 -60.5q0 -48 -29 -90l15 -10q14 -40 52 -57q3 -1 11.5 -4.5t11 -5.5t9 -6t12.5 -10.5t13 -16.5l44 -60
q5 -14 -10 -29zM439 -15q0 8 -8 8t-8 -8t8 -8t8 8z" />
    <glyph glyph-name="servicestack" unicode="SERVICESTACK" horiz-adv-x="496" 
d="M88 232q45 -6 108 -34.5t122.5 -83t73.5 -114.5h-392q50 4 88.5 42.5t41.5 89t-42 100.5zM120 384q41 -6 97 -37t113.5 -79t104.5 -120t61 -148h-96q-9 45 -35.5 87t-61 73.5t-69 54t-68.5 35.5q2 81 -46 134z" />
    <glyph glyph-name="sistrix" unicode="Sistrix" 
d="M448 -1l-30 -31l-146 148q-46 -38 -106 -38q-68 0 -117 49.5t-49 119.5t49 119.5t117.5 49.5t117.5 -49.5t49 -119.5q0 -55 -32 -99zM167 117q53 0 90.5 38t37.5 92t-38 92t-90.5 38t-90.5 -38t-38 -92t38 -92t91 -38z" />
    <glyph glyph-name="slack-hash" unicode="SLACK&#x2d;HASH" 
d="M446 178q5 -15 -2 -28.5t-21 -17.5l-45 -15l16 -47q4 -15 -2.5 -28t-20.5 -18q-16 -5 -29 2.5t-17 20.5l-16 47l-94 -32l16 -46q3 -10 1 -19.5t-8.5 -16.5t-15.5 -10q-15 -5 -28 2t-18 20l-16 48q-52 -18 -57 -17q-11 0 -20.5 7t-13.5 17q-2 7 -1.5 14.5t3.5 13.5t8.5 11
t12.5 7l45 15l-30 90q-53 -17 -58 -16q-11 0 -20.5 6.5t-12.5 17.5q-3 10 -1 19t8 16.5t16 10.5l45 15l-16 47q-2 7 -1.5 14.5t3.5 13.5t8.5 11t12.5 7q15 5 28.5 -2t17.5 -21l16 -47l93 31l-15 47q-5 15 2 28t21 18q7 3 14 2t13.5 -4t11.5 -8.5t7 -12.5l16 -47l45 15
q14 5 27.5 -1.5t18 -21t-2 -28t-20.5 -18.5l-46 -15l31 -90l45 15q10 3 19 1.5t16.5 -8t10.5 -15.5zM192 130l94 32l-31 90l-93 -31z" />
    <glyph glyph-name="speakap" unicode="SPEAKAP" 
d="M64 56q-60 66 -55 155.5t71.5 149t155.5 55t148.5 -70.5t55 -155t-71.5 -149q-10 -9 23 -29q22 -14 23 -19q0 -3 -4 -4q-44 -19 -105 -21.5t-129.5 19t-111.5 69.5zM277 268l39 41q-29 26 -76 27q-41 1 -68.5 -20.5t-28.5 -59.5q-1 -36 29 -55q13 -7 36.5 -14.5t37 -15.5
t12.5 -22q0 -10 -7.5 -16t-15.5 -8t-15 -1q-31 0 -48 24l-40 -42q34 -33 84 -33q6 -1 14 -0.5t24 5t28 12t21.5 24.5t9.5 40q1 38 -28 56q-13 8 -36.5 15t-36 14t-12.5 21q0 10 9 16.5t16 7.5t13 1q26 0 39 -17z" />
    <glyph glyph-name="staylinked" unicode="STAYLINKED" horiz-adv-x="440" 
d="M383 156l44 -42q7 -6 -1 -12l-198 -164q-4 -3 -8.5 -3.5t-6.5 1.5l-2 1l-209 196q-6 7 2 13l45 34q8 6 14 0l152 -148q7 -6 14 0l93 74q8 6 1 12l-84 82q-6 6 -13.5 0t-14.5 0l-68 65q-6 6 1 12l58 44q7 5 13 -1l170 -167zM437 239q7 -6 -1 -12l-45 -36q-8 -6 -14 0
l-161 159q-6 7 -14 1l-92 -72q-7 -6 -1 -12l95 -92q6 -6 14 0t14 0l57 -55q7 -6 -1 -12l-7 -6l-50 -39q-8 -6 -15 0l-171 165l-43 42q-6 6 2 12l206 162q9 7 17 2z" />
    <glyph glyph-name="steam-symbol" unicode="STEAM&#x2d;SYMBOL" 
d="M396 270.5q0 -25.5 -18 -43t-43.5 -17.5t-43 17.5t-17.5 43t17.5 43.5t43 18t43.5 -18t18 -43.5zM448 270q0 -47 -33.5 -80.5t-80.5 -33.5l-109 -79q-3 -33 -27.5 -55t-57.5 -22q-14 0 -28 5t-25 14t-18.5 21.5t-10.5 26.5l-58 23v107l97 -39q23 14 52 12l71 101
q1 47 34 80t80 33q31 0 57.5 -15t41.5 -41.5t15 -57.5zM203 85q0 26 -18 44.5t-45 18.5q-6 0 -13 -2l26 -10q19 -8 27 -27t0.5 -38t-26.5 -27t-38 0q-4 1 -14.5 5.5t-16.5 6.5q18 -34 55 -34q27 0 45 18.5t18 44.5zM410 270.5q0 31.5 -22 53.5t-54 22q-20 0 -38 -10
t-28 -27.5t-10 -38.5q0 -31 22.5 -53.5t53.5 -22.5q32 0 54 22.5t22 54z" />
    <glyph glyph-name="sticker-mule" unicode="STICKER&#x2d;MULE" horiz-adv-x="576" 
d="M562 248zM556 326q4 -12 8 -21l6 -13.5t3.5 -8t2 -5t0.5 -2.5v-3q0 -4 -7 -17q-4 -7 -7 -8q-1 0 -14 -2q-11 -2 -15 9v4.5t-0.5 4.5t-3 6t-7.5 8q-5 5 -10.5 7.5t-12 5t-9.5 4.5t-5 2.5t-4 -0.5t-3 -2t-3 -3.5t-3 -4.5q-8 -9 -17 -22t-18.5 -25.5t-16.5 -21.5
q-25 -32 -34 -48q-2 -3 -4 -10t-4 -13t-2 -7q-3 -9 -7 -28.5t-10 -39.5q-1 -6 -4.5 -18t-3.5 -14q-3 -8 -4 -29t3 -31q1 -2 5.5 -4t6.5 -4l2 -4.5t4.5 -9.5t2.5 -6q0 -3 -2.5 -4t-5.5 -1.5l-3 -0.5q-3 -2 -4 -3.5t-1.5 -2.5t-1.5 -2q-4 -2 -18.5 -2t-17.5 3q-5 3 -2 15
q2 5 1 7.5t-2 2.5h-4t-5 1q-3 2 -4 10l-2 4q-1 6 3.5 24t4.5 19q3 14 2 29t0 18q1 4 2 6.5t1 3t0.5 3t0.5 6v11.5q-1 11 0 21t1.5 12.5t-0.5 5.5q-4 0 -25.5 -2.5t-40 -3t-47.5 3.5q-20 4 -34.5 11t-22 13t-8.5 7q-8 3 -16 0.5t-11 -7.5q-1 -1 -9.5 -19t-18.5 -39.5
t-12 -29.5q-7 -22 4 -67l1.5 -3.5t4 -8.5t4.5 -7q1 -1 2.5 -1.5t3 -1.5t2.5 -2q3 -3 9 -16q5 -8 -1 -10q-5 -3 -15 -3q-1 0 -1.5 -2t-1.5 -3q-2 -2 -12 -3.5t-17 1.5q-6 2 -7 5q0 1 0.5 6t-1.5 6q-1 1 -5 2t-7 3.5t-5 6.5q-2 6 -2 50q0 17 -9 46q-2 9 0 16q1 1 1.5 2l1 2
t1.5 4t1 5q-1 1 -3 1t-2 1q-5 36 -6.5 57t-1 25t-0.5 16q-1 5 -3.5 19.5t-3.5 23t0 22.5q5 22 24 38t31.5 21.5t43.5 4.5t84 -14q6 -2 20 -5t42.5 -1t48.5 15q9 6 21 10t14 6q2 1 17 13.5t37 29t34 22.5q16 10 30.5 15t22.5 5t14.5 -1t7.5 -1q2 1 8.5 13.5t8.5 12.5
t2.5 -5.5t0 -11t0.5 -9.5q1 -5 6 -5l11 5q3 2 7 6.5t7.5 7.5t5.5 3q5 -3 0.5 -11.5t-12 -21t-7.5 -14.5l5 -9q3 -6 6 -20q3 -11 4.5 -15.5t2.5 -5.5t2.5 -5t4.5 -11z" />
    <glyph glyph-name="studiovinari" unicode="STUDIOVINARI" horiz-adv-x="512" 
d="M480 260l4 -28v-28l-25 -44l-39 -78l-56 -68l-80 -38l-17 -24l-8 -12l-10 -4q18 64 20 64l20 -1l67 39l-93 -27l-56 -36l-22 -28l-7 -2l21 74l7 5l20 -13l89 46l57 51l14 68l-125 -23l15 18l-173 54l82 10l-166 123l115 -18l-102 108l253 -127l-31 38l124 -74l-143 99
l18 -38l-49 18l-46 84l195 -122l-43 56l108 -97l12 9l-21 17l4 37l38 11l29 -25l12 -4l-7 -6l8 -12l-13 -8l-10 -20z" />
    <glyph glyph-name="supple" unicode="SUPPLE" horiz-adv-x="640" 
d="M640 186q0 -32 -32.5 -59t-88.5 -42.5t-123 -15.5q-35 0 -71 5h24q101 0 172 37t71 90q0 43 -51 78q46 -16 72.5 -40.5t26.5 -52.5zM48 220q0 -44 51 -78q-46 16 -72.5 40.5t-26.5 52.5q0 48 71 82.5t172 34.5q37 0 71 -5q-13 1 -23 1q-101 -1 -172 -38t-71 -90zM108 180
l9 11q9 -10 20 -10q13 0 13 10q0 6 -10 10.5t-20 11.5t-10 18q0 10 8 17t20 7q9 0 17 -4t8 -13v-8h-14v4q0 7 -11 7q-13 0 -13 -9q0 -5 6.5 -8.5t14 -6.5t14 -9t6.5 -16q0 -11 -8 -18t-21 -7q-8 0 -15.5 3.5t-10.5 6.5zM229 254h15v-55q0 -14 -9 -23t-24 -9t-24.5 9t-9.5 23
v55h16v-55q0 -17 18 -17t18 17v55zM263 168v72h-8v14h39q12 0 20 -8t8 -20t-8 -20t-20 -8h-15v-30h-16zM279 211h13q14 0 14 15q0 14 -14 14h-13v-29zM336 168v72h-8v14h39q12 0 19.5 -8t7.5 -20t-7.5 -20t-19.5 -8h-15v-30h-16zM352 211h12q14 0 14 15q0 14 -14 14h-12v-29
zM409 177v61q0 2 -3 2h-5v14h15q9 0 9 -8v-62q0 -2 2 -2h19q2 0 2 2v6h15v-13q0 -9 -9 -9h-37q-8 0 -8 9zM472 177v63h-8v14h52q8 0 8 -8v-13h-14v5q0 2 -3 2h-19v-22h28v-13h-28v-21q0 -2 3 -2h19q3 0 3 2v6h14v-13q0 -9 -8 -9h-39q-8 0 -8 9zM531 253h-3v1h7v-1h-2v-6h-2
v6zM537 254h2l2 -5l2 5h3v-7h-2v5l-2 -5h-2l-2 5v-5h-1v7z" />
    <glyph glyph-name="telegram-plane" unicode="TELEGRAM&#x2d;PLANE" 
d="M447 349l-68 -318q-8 -34 -37 -18l-103 76l-50 -48q-10 -10 -21 -10l8 105l191 172q7 7 0 8q-6 2 -13 -3l-236 -149l-102 32q-17 5 -16 15t21 17l397 154q15 5 24 -3.5t5 -29.5z" />
    <glyph glyph-name="uber" unicode="UBER" 
d="M414 416q14 0 24 -10t10 -24v-380q0 -14 -10 -24t-24 -10h-380q-14 0 -24 10t-10 24v380q0 14 10 24t24 10h380zM238 57q56 6 91.5 49.5t29.5 99.5q-5 52 -44 87t-91 35t-91 -35t-44 -87h94v20q0 7 7 7h68q7 0 7 -7v-68q0 -7 -7 -7h-68q-7 0 -7 7v20h-94
q6 -56 49.5 -91.5t99.5 -29.5z" />
    <glyph glyph-name="uikit" unicode="UIKIT" 
d="M444 320v-256l-226 -128l-218 128v214l88 -45v-117l133 -75l136 75v151l-101 58l87 53zM309 399l-88 -53l-86 47l89 55z" />
    <glyph glyph-name="uniregistry" unicode="UNIREGISTRY" horiz-adv-x="384" 
d="M192 -32q-59 0 -107 32h214q-48 -32 -107 -32zM103 161v-7h-103v7v13h103v-13zM123 104q14 -16 33 -25h-138q-6 12 -10 25h115zM106 139q3 -12 9 -23h-110q-2 11 -4 23h105zM103 208v-17h-103v17h103zM103 381v-5h-103v5h103zM103 416v-2h-103v2h103zM103 347v-8h-103v8
h103zM103 243v-15h-103v15h103zM103 312v-10h-103v10h103zM103 277v-12h-103v12h103zM269 116q6 11 9 23h105q-1 -12 -4 -23h-110zM281 302v10h103v-10h-103zM281 265v12h103v-12h-103zM281 339v8h103v-8h-103zM281 416h103v-2h-103v2zM78 5q-20 15 -33 30h293
q-14 -16 -32 -30h-228zM281 376v5h103v-5h-103zM281 228v15h103v-15h-103zM39 42q-4 5 -16 28h339q-8 -15 -18 -28h-305zM228 79q19 9 32 25h116q-7 -20 -9 -25h-139zM281 161v13h103v-13v-7h-103v7zM281 191v17h103v-17h-103z" />
    <glyph glyph-name="untappd" unicode="UNTAPPD" horiz-adv-x="640" 
d="M401 398q-18 -37 -33.5 -66.5t-24 -45t-15 -27t-9 -16.5t-4 -9t-2.5 -9l-5 -33q-3 -18 -14 -33l-148 -208q-13 -17 -34 -15q-30 4 -56 23t-39 46q-9 19 3 36l149 208q11 15 27 24l29 15q6 3 9 6t11 11.5t18.5 20.5t37 39.5t60.5 61.5q2 8 4 8q5 3 6 5l-1 4q0 4 4 4
q11 0 25 -10q15 -10 18 -21q1 -3 -2 -4l-5 -1q-3 -1 -2 -8q0 -2 -7 -6zM230 412q-7 3 -7 5q4 11 18 21t26 10q3 0 2 -8q0 -3 7 -5q2 0 3 -8l26 -26q2 -2 0 -5q-20 -20 -41 -42q-2 -2 -3 0l-22 44q-1 1 -2 1q-5 3 -5 5q1 7 -2 8zM620 41q12 -17 3 -36q-8 -18 -23 -33
t-33.5 -24t-38.5 -12q-21 -2 -33 15l-149 208q-11 15 -14 33q-3 16 0 30q0 3 1 5t2 5t4.5 9t8 14t13.5 25t20 37q1 3 3 0q3 -3 7 -7.5t6 -6.5l4.5 -4.5l4 -4t4 -3t5.5 -3.5l13 -6.5l12 -6t9 -5.5t8.5 -6.5t6.5 -6t7 -8.5z" />
    <glyph glyph-name="ussunnah" unicode="USSUNNAH" horiz-adv-x="512" 
d="M157 163l5 -15h-8q-2 7 -4 10q-2 6 0 10l4 5q0 -4 3 -10zM454 144q-3 -20 -10 -40l43 -23l-45 19q-8 -20 -20 -37l34 -31l-37 27q-12 -18 -28 -33l25 -34l-29 32q-16 -15 -36 -26l16 -37l-19 36q-20 -11 -42 -16l7 -39l-11 38q-22 -6 -44 -6l-2 -38l-2 38q-22 1 -44 6
l-11 -38l7 39q-22 5 -42 15l-19 -35l15 37q-19 11 -36 25l-28 -31l25 34q-16 15 -29 32l-36 -26l34 30q-12 18 -20 38l-45 -19l43 23q-8 20 -11 40l-51 -9l51 14q-2 13 -2 26v14l-55 3l56 3q2 19 8 38l-58 16l59 -10q6 17 15 34l-55 30l59 -25q9 16 21 30l-49 44l54 -39
q12 13 26 23l-40 56l46 -52q14 10 30 18l-27 65l34 -63q16 7 32 11l-12 71l19 -70q17 3 34 4l4 72l4 -72q17 0 33 -4l20 70l-12 -71q17 -4 32 -11l34 63l-27 -65q15 -8 30 -18l46 52l-40 -56q14 -11 26 -23l54 39l-49 -44q12 -14 21 -30l59 25l-56 -30q9 -17 15 -35l60 11
l-58 -16q6 -19 8 -38l56 -3l-56 -3v-14q0 -12 -1 -26l51 -14zM432 175q0 73 -51.5 125t-124.5 52t-125 -52t-52 -125t52 -124.5t125 -51.5t124.5 51.5t51.5 124.5zM408 175q0 -63 -44.5 -108t-108 -45t-108 45t-44.5 108t44.5 108t108 45t108 -45t44.5 -108zM195 207
q0 -3 4 -5q5 -3 8 -8q4 8 4 11t-3 7t-3 8q-10 -10 -10 -13zM154 226q0 -3 4 -5q5 -3 8 -8q4 8 4 11t-3 7t-3 8q-10 -10 -10 -13zM135 226q0 -3 4 -5q5 -3 8 -8q4 8 4 11t-3 7t-3 8q-10 -11 -10 -13zM340 138q-8 3 -8 16v112q-13 -19 -18 -19q9 -21 9 -28v-64q0 -7 -5 -7h-18
q-2 5 -15 41q-2 -2 -11 -14q4 -3 6 -6q6 -17 7 -21h-9q-7 19 -12 32q-1 -3 -10 -14q3 -3 5 -6q0 -1 1.5 -5t2.5 -6h-9q-1 2 -4 10.5t-4 11.5q-2 -2 -11 -14q4 -3 5 -6q0 -1 0.5 -1.5l0.5 -0.5h-18q-2 5 -5 13t-4.5 13t-1.5 8q0 4 1 8q-14 -17 -14 -25q0 -4 5 -17.5t5 -15.5
q0 -3 -1 -5q-16 21 -19 21h-12l-11 28q-6 14 -6 19t2 12l-2.5 -3t-3.5 -4q0 1 -2 5t-2 6q-1 -1 -12 -14q1 0 2 -2.5l2 -5t1 -4.5q-1 -1 -6 -7.5t-7 -9.5q-7 -10 -3 -22q3 -7 -2 -14h62q4 0 9.5 -8t5.5 -14q12 13 17 21h107q6 0 10 6zM360 165v101q-13 -18 -20 -18
q10 -22 10 -29v-66q0 -12 6 -16t18 -4t14 2q-2 1 -4 1.5t-3.5 1t-2.5 1.5q-18 7 -18 26z" />
    <glyph glyph-name="vaadin" unicode="Vaadin" 
d="M224 307q1 10 2.5 16.5t6 16.5t15.5 15t26 5h99q32 0 32 22v12q0 9 6 15.5t15 6.5q6 0 11 -3t8 -8t3 -11v-37q0 -32 -16.5 -47t-50.5 -15h-100q-11 0 -18 -2t-10 -6.5t-4 -8.5t-1 -10v-3q-1 -10 -8 -16.5t-16 -6.5t-16 6.5t-7 16.5q-1 2 -1 3q0 8 -1.5 13t-9.5 9.5
t-21 4.5h-101q-34 0 -50.5 15t-16.5 47v37q0 6 3 11t8 8t11 3t10.5 -3t7.5 -8t3 -11v-12q0 -22 32 -22h99q16 0 26.5 -5.5t15 -15t6 -16t2.5 -16.5zM224 -8q-18 0 -26 16q0 1 -24.5 43.5l-49 85t-24.5 43.5q-9 14 0 29t27 15q21 0 30 -20l67 -118l67 118q9 20 30 20
q18 0 27 -15t0 -29q-1 -1 -49.5 -86t-48.5 -86q-8 -16 -26 -16z" />
    <glyph glyph-name="viber" unicode="VIBER" horiz-adv-x="512" 
d="M444 398q33 -29 47 -91.5t3 -154.5q-3 -23 -9.5 -42t-14.5 -32.5t-18.5 -24.5t-20 -17.5t-20.5 -11.5t-18 -7.5t-15.5 -4.5t-9.5 -2q-7 -3 -24 -6t-54 -6.5t-74 0.5q-21 -23 -30 -33q-3 -3 -8 -8.5t-7 -7.5l-6.5 -6.5t-6.5 -4.5t-7 -2t-7 1q-4 1 -7 4t-4 6.5t-1.5 7
t-0.5 5.5l-1 2l1 52h-1q-21 6 -39 16.5t-29.5 23.5t-21 28.5t-14 31.5t-8 33t-4 33t-1 31t0.5 27q2 109 50 157q30 27 80 40t86 13h35q52 -1 94.5 -11.5t58.5 -20t26 -18.5zM458 161q10 78 -1.5 132.5t-39.5 78.5q-7 7 -22 15t-51.5 16t-80.5 9h-12.5t-31 -1.5t-43 -5
t-44.5 -13t-39 -24.5q-41 -40 -43 -131q1 -18 0 -38.5t4 -44t13.5 -44t28.5 -38t49 -25.5q-1 -79 -1 -86t4 -8.5t8 3.5l68 79q31 -2 63 0.5t47 5.5t21 5q1 0 9.5 2t15 4.5t17.5 7.5t19.5 13.5t17.5 20t15 29t9 38.5zM319 242q0 -7 -6.5 -7t-6.5 6q-2 32 -33 34
q-4 0 -5.5 3.5t0.5 6.5t6 3q43 -2 45 -46zM339 230q1 33 -19 55t-57 25q-4 0 -5 3.5t0.5 6.5t5.5 3q42 -3 65.5 -29t22.5 -64q0 -4 -3 -5.5t-6.5 0t-3.5 5.5zM386 217q0 -4 -3 -5.5t-6.5 0t-3.5 5.5q0 59 -34.5 92.5t-86.5 33.5q-6 0 -6 6.5t6 6.5q58 0 96 -37.5t38 -101.5z
M375 119q-10 -17 -24 -27.5t-28 -5.5q-17 5 -48.5 22t-53.5 34q-24 19 -43 43q-16 21 -30 46q-10 17 -16.5 31t-8.5 20l-1 5q-5 14 5.5 28t27.5 24q14 7 24 -4q12 -15 18 -22q7 -10 15 -24q9 -17 -4 -27l-12 -9q-3 -2 -4 -5.5t-1 -6.5v-2l2.5 -7.5t8 -17t15 -23t24 -21.5
t34.5 -16q9 0 14 6l10 12q10 13 26 4q28 -16 46 -33q11 -10 4 -24z" />
    <glyph glyph-name="vimeo" unicode="VIMEO" 
d="M403 416q19 0 32 -13t13 -32v-358q0 -19 -13 -32t-32 -13h-358q-19 0 -32 13t-13 32v358q0 19 13 32t32 13h358zM377 267q3 64 -47 65q-67 2 -91 -76q15 9 31.5 4.5t13.5 -26.5q-1 -17 -21 -49q-27 -42 -39 -28q-12 15 -29 119q-9 56 -46 52q-7 -1 -15 -5t-18.5 -12.5
t-18 -15l-22.5 -19.5t-22 -19l16 -20q21 15 25 15q12 0 21 -23.5t26 -85.5q7 -25 10 -39q20 -52 48 -52q46 0 112 86q64 82 66 129z" />
    <glyph glyph-name="vnv" unicode="VNV" horiz-adv-x="640" 
d="M105 96q-15 0 -26.5 7.5t-15.5 15.5l-5 7l-55 112q-1 1 -1.5 2t-1 4t0 5.5t3.5 4.5t9 2h33q3 0 5 -1t4 -3t3 -3.5t3.5 -5.5t3.5 -5l36 -75q6 -13 21 -13q7 0 12.5 3.5t7.5 6.5l2 3l36 75q1 1 3 5t3 5.5t3 3.5t4.5 3t5.5 1h33q9 0 11.5 -4.5t0.5 -9.5l-2 -4l-56 -112
q0 -1 -1 -3t-5 -7t-9 -9t-13 -7.5t-18 -3.5h-35zM500 96q-15 0 -26.5 7.5t-15.5 15.5l-4 7l-56 112q-11 18 10 18h33q3 0 5 -1t4 -3t3 -3.5t3.5 -5.5t3.5 -5l36 -75q6 -13 21 -13q7 0 12.5 3.5t7.5 6.5l1 3l37 75q1 1 3.5 5t3 5.5t3 3.5t4.5 3t5 1h33q9 0 11.5 -4.5
t0.5 -9.5l-2 -4l-55 -112q-1 -1 -2 -3t-5 -7t-9 -9t-13 -7.5t-18 -3.5h-35zM338 256q15 0 26.5 -7.5t15.5 -15.5l4 -7l56 -112q10 -18 -10 -18h-33q-3 0 -5 1t-3.5 2t-3 3t-2.5 3.5t-2.5 4.5t-2.5 4l-37 75q-5 13 -21 13q-7 0 -12.5 -3.5t-6.5 -6.5l-2 -3l-37 -75
q0 -1 -2.5 -5t-3.5 -5.5t-3 -3.5t-4.5 -3t-4.5 -1h-33q-10 0 -12.5 4.5t-0.5 9.5l2 4l56 112q1 1 2 3t5 7t8.5 9t13 7.5t17.5 3.5h36z" />
    <glyph glyph-name="whatsapp-square" unicode="WHATSAPP&#x2d;SQUARE" 
d="M223.5 325q54.5 0 93.5 -39q40 -40 40 -93q0 -54 -39 -92.5t-94 -38.5q-36 0 -67 18l-5 3l-50 -13l13 48l-3 5q-20 32 -20 70q0 55 38.5 93.5t93 38.5zM302 137q4 14 2 19q-1 1 -8 4q-22 12 -27 13q-6 3 -9 -2t-12 -15q-3 -4 -9 -1q-20 10 -31.5 19.5t-22.5 27.5
q-1 5 -0.5 5.5t5 5.5t7.5 11q2 3 0 6q-1 1 -3 6.5t-5 13t-5 10.5q-2 6 -8 7h-8q-6 0 -11 -5q-14 -15 -14 -33q0 -20 17 -41l1.5 -2.5t3 -4.5l4.5 -6t6.5 -8t8 -8t9.5 -8.5t10 -8.5t11.5 -7.5t12.5 -6.5q30 -13 48 -10q6 1 15 6.5t12 12.5zM400 416q20 0 34 -14t14 -34v-352
q0 -20 -14 -34t-34 -14h-352q-20 0 -34 14t-14 34v352q0 20 14 34t34 14h352zM224 35q66 0 113 46.5t47 111.5q0 64 -48 113q-46 46 -112 46t-112.5 -46.5t-46.5 -111.5q0 -43 21 -80l-22 -82l84 22q35 -19 76 -19z" />
    <glyph glyph-name="whmcs" unicode="WHMCS" 
d="M448 287l-29 -7l-2 -12l21 -19l-11 -20l-29 9l-7 -8l9 -28l-21 -12l-21 21l-11 -3l-7 -29h-22l-7 29l-12 3l-19 -21l-20 12l8 27l-7 8l-30 -7l-10 18l20 20l-3 12l-28 8v22l28 7l3 11l-20 21l11 19l28 -8l8 9l-8 27l20 11l19 -21l12 4l7 26h22l7 -26l11 -4l21 21l19 -11
l-7 -28l7 -8l29 8l10 -20l-20 -20l3 -11l28 -9v-21zM329 242q15 0 28 7.5t21 20.5t8 29q0 23 -17 39.5t-40.5 16.5t-40 -16.5t-16.5 -40t16.5 -40t40.5 -16.5zM401 225l47 -14v-40l-55 -13l-4 -23l39 -35l-20 -38l-54 16l-14 -15l17 -52l-39 -23l-39 40l-21 -6l-13 -54h-42
l-13 54l-22 6l-36 -39l-37 22l15 50l-14 17l-55 -15l-20 35l38 38l-5 22l-54 14v41l54 15l6 20l-39 39l21 36l53 -14l15 16l-15 52l37 20l36 -39l23 6l12 52h42l12 -46l-23 6l-6 2l-4 -6l-11 -19l-3 -6l5 -4l17 -18v-1l-24 -6l-6 -2v-6l-1 -13q-36 -8 -59.5 -37t-23.5 -67
q0 -43 31 -74t75 -31q37 0 66 23.5t37 58.5h13h7l2 7l5 24h2l17 -17l5 -5l6 3l20 12l6 4l-2 6z" />
    <glyph glyph-name="wordpress-simple" unicode="WORDPRESS&#x2d;SIMPLE" horiz-adv-x="512" 
d="M256 440q103 0 175.5 -72.5t72.5 -175.5t-72.5 -175.5t-175.5 -72.5t-175.5 72.5t-72.5 175.5t72.5 175.5t175.5 72.5zM33 192q0 -65 34.5 -119t91.5 -82l-107 292q-19 -43 -19 -91zM256 -31q38 0 74 13q-1 1 -2 3l-68 187l-67 -194q31 -9 63 -9zM287 296l80 -239l23 74
q17 54 17 72q0 30 -19 62q-22 35 -22 52q0 16 11 28t27 12q1 0 3 -1q-64 59 -151 59q-38 0 -73.5 -12.5t-64 -35t-48.5 -53.5h14l60 3q9 1 9.5 -8t-8.5 -10q-12 -2 -26 -3l82 -241l48 146l-34 95l-24 3q-5 0 -7 4.5t0.5 9t8.5 4.5q37 -3 58 -3l60 3q9 1 9.5 -8t-8.5 -10
q-12 -2 -25 -3zM368 -1q51 30 81 81t30 112q0 57 -27 107q1 -11 1 -23q0 -37 -17 -80z" />
    <glyph glyph-name="xbox" unicode="XBOX" horiz-adv-x="512" 
d="M370 130q71 -87 54 -119q-6 -11 -35.5 -29t-56.5 -27q-49 -15 -101 -10q-59 6 -110 39q-21 14 -27.5 21.5t-6.5 19.5q0 47 89 142q24 25 51 49t31 23q7 -1 49 -42t63 -67zM189 304q-90 -109 -121 -194q-16 -45 -9 -64q2 -7 -1 -2q-3 3 -8 12q-33 50 -41 121q-2 19 4 60
q3 16 8.5 33t13.5 33t18 30.5t21 26.5q9 9 13 10t15 -2q27 -9 81 -58zM500 241q4 -17 4 -47t-3 -47q-6 -31 -19 -58q-12 -27 -25 -44q-3 -3 -3 -2l2 7q3 18 -8 52q-27 82 -123 202q43 40 65 53q22 14 36 14q4 0 18 -15t31.5 -47t24.5 -68zM141 405l-9 1l19 10
q63 28 123.5 23.5t110.5 -35.5q-10 0 -20 1t-34.5 -5.5t-53.5 -20.5q-20 -10 -21 -9q-1 0 -13.5 6t-28 12.5t-36 12t-37.5 4.5z" />
    <glyph glyph-name="yandex" unicode="YANDEX" horiz-adv-x="256" 
d="M153 132l-87 -196h-64l96 210q-75 38 -75 141q0 77 42.5 119t106.5 42h82v-512h-55v196h-46zM199 402h-29q-38 0 -63 -28t-25 -87q0 -109 88 -109h29v224z" />
    <glyph glyph-name="yandex-international" unicode="YANDEX&#x2d;INTERNATIONAL" horiz-adv-x="320" 
d="M130 -64v166l-112 298h56l82 -230l94 278h52l-121 -348v-164h-51z" />
    </font>
</defs>
</svg>
